<svg enable-background="new 0 0 595.3 595.3" viewBox="0 0 595.3 595.3" xmlns="http://www.w3.org/2000/svg" xmlns:xlink="http://www.w3.org/1999/xlink"><defs><circle id="a" cx="297.6" cy="297.6" r="149.3"/><clipPath id="b"><use xlink:href="#a"/></clipPath></defs><use fill="#fff" xlink:href="#a"/><g clip-path="url(#b)"><path d="m263.9 445.4c-11.5-10.8 8.1-31.7 8.1-31.7s-18.2 36.7-36.1 25.3c-11.7-7.4 9.2-27 9.2-27s-25.9 34.6-40.7 18.8c-13.5-14.4 52.6-97.9 93.5-100.5 31.2-2 49.7 23.7 52.4 36.4 13.7 63.8-73.7 90.6-86.4 78.7z" fill="#094567"/><path d="m307.7 333.5.6-.4-36.3-19.6-11 18.4s-68.5 113.7 73.8 143c-30.2-27.5-58.7-74.1-27.1-141.4z" fill="#8bcb8f"/><path d="m302.6 330.7c-55.2 117.4 72.8 171.8 72.8 171.8v36l12.8 9.6c3.2 43.3 35.2 36.8 35.2 36.8v-223.3c-12-59.3-61.7-68.1-61.7-68.1v-31.2z" fill="#205072"/><path d="m373.8 448.7v88.7l3.2 2.4v-87.8h9.6v95l1.6 1.2c.3 4 .9 7.6 1.6 10.9v-110.4z" fill="#fff"/><path d="m409.9 456.4c16.3-15.4-11.4-45-11.4-45s25.7 52 51.3 35.9c16.5-10.4-13-38.3-13-38.3s36.7 49 57.8 26.6c19.1-20.4-74.5-138.8-132.6-142.5-44.3-2.8-70.4 33.6-74.3 51.6-19.8 90.5 104.3 128.6 122.2 111.7z" fill="#094567"/><path d="m362.2 261.2c0-.7 0-1.4-.1-2.1 0-.2 0-.4 0-.6-.1-.8-.1-1.7-.2-2.5 0-.1 0-.3-.1-.4-.1-.7-.2-1.4-.3-2.2 0-.2-.1-.4-.1-.6-.1-.8-.3-1.7-.5-2.5 0-.1-.1-.3-.1-.4-.2-.7-.4-1.5-.5-2.2-.1-.2-.1-.4-.2-.6-.2-.8-.5-1.7-.8-2.6 0-.1-.1-.2-.1-.4-.3-.8-.5-1.5-.8-2.3-.1-.2-.2-.4-.2-.6-.3-.9-.7-1.7-1.1-2.6 0-.1-.1-.2-.1-.3-.3-.8-.7-1.6-1.1-2.3-.1-.2-.2-.4-.3-.7-.4-.9-.9-1.7-1.3-2.6 0-.1-.1-.2-.1-.3-.4-.8-.9-1.6-1.4-2.4-.1-.2-.3-.4-.4-.7-.5-.9-1.1-1.8-1.7-2.7 0-.1-.1-.1-.1-.2-.5-.8-1.1-1.7-1.7-2.5-.2-.2-.3-.5-.5-.7-.6-.9-1.3-1.8-2-2.7 0 0-.1-.1-.1-.1-.7-.9-1.3-1.7-2.1-2.6-.2-.2-.4-.5-.6-.7-.7-.9-1.5-1.8-2.3-2.7-27.8-31.7-79.6-34-118.7-2.6-3.2 2.6-6.2 5.3-9 8.1.7-.6 1.6-1.4 2.7-2.5l66.3 62.5s-16.1-7.4-45.9 3.2c-1.9.7-3.7 1.4-5.5 2.1-8.5 3.6-16.1 8-22.2 12.8-.1.1-.2.2-.3.3-.7.6-1.4 1.1-2 1.7-.2.2-.4.4-.7.6-.6.5-1.1 1-1.7 1.5-.3.3-.5.5-.8.8-.5.5-1 .9-1.4 1.4-.3.3-.6.6-.9.9-.4.4-.8.9-1.2 1.3v.1l80.9-26.3-4 66.9c14.8-3.9 29.8-10.9 43.4-20.4 10.4-7.3 19.5-15.4 26.4-24.2.5-.6 1-1.2 1.4-1.8.1-.1.2-.2.2-.3.5-.7 1-1.4 1.5-2.1.1-.2.2-.3.4-.5.4-.6.8-1.2 1.2-1.9.1-.1.2-.2.2-.4.5-.7.9-1.4 1.3-2.2.1-.2.2-.4.3-.5.4-.6.7-1.3 1.1-1.9.1-.1.1-.3.2-.4.4-.7.8-1.5 1.1-2.2.1-.2.2-.4.3-.5.3-.6.6-1.3.9-1.9.1-.1.1-.3.2-.4.3-.8.6-1.5.9-2.3.1-.2.1-.3.2-.5.2-.6.5-1.3.7-1.9.1-.2.1-.3.2-.5.3-.8.5-1.5.7-2.3.1-.2.1-.3.1-.5.2-.7.4-1.3.5-2 0-.2.1-.3.1-.5.2-.8.4-1.6.5-2.4 0-.2.1-.3.1-.5.1-.7.2-1.3.3-2 0-.2.1-.4.1-.5.1-.8.2-1.6.3-2.4 0-.2 0-.3 0-.5.1-.7.1-1.4.1-2.1 0-.2 0-.4 0-.6 0-.8 0-1.6 0-2.4.4-.2.4-.3.4-.5z" fill="#205072"/><path d="m192.8 318.2s5.7-4.6 16-9.2c10.4-4.6 25.4-9.4 44.3-9.6 0 0 6.3 24.4-.9 48.8l52.2-47.5-46.5-44-65.1 51.4z"/><path d="m185.4 280.2c12.3-6 29.6-3.9 46 5.2 1.8-.7 3.6-1.5 5.5-2.1 29.8-10.6 45.9-3.2 45.9-3.2l-66.3-62.5c-1.1 1-2 1.8-2.7 2.5-17.3 17.3-27.1 39-28.4 60.1z" fill="#309d9c"/><path d="m185.4 280.2c-.9 13.2 1.6 26.2 7.6 37.6.3-.6.5-1.3.8-1.9.1-.3.3-.5.4-.8.3-.5.5-1 .8-1.5.2-.3.4-.7.6-1 .3-.4.5-.9.8-1.3s.5-.8.8-1.1c.3-.4.6-.8.9-1.2s.7-.8 1-1.2c.3-.3.6-.7.9-1 .4-.4.8-.9 1.2-1.3l.9-.9c.5-.5.9-1 1.4-1.4l.8-.8c.6-.5 1.1-1 1.7-1.5.2-.2.4-.4.7-.6.7-.6 1.3-1.1 2-1.7l.3-.3c6.2-4.8 13.7-9.3 22.2-12.8-16.3-9.2-33.5-11.3-45.8-5.3z" fill="#205072"/><path d="m349 189.6h-68.9c21.4 0 40.9 7.2 55.4 18.9z" fill="#205072"/><ellipse cx="310" cy="245.2" fill="#fff" rx="30.8" ry="35.3" transform="matrix(.7071 -.7071 .7071 .7071 -82.5827 290.9836)"/><path d="m333 263.8c-1.4-.6-2.7-1.4-3.8-2.5-5.7-5.4-5.9-14.4-.5-20 1.6-1.7 3.5-2.8 5.6-3.5-.2-.2-.5-.5-.7-.7-7.3-6.9-18.8-6.6-25.7.7s-6.6 18.8.7 25.7c6.8 6.4 17.5 6.5 24.4.3z"/><path d="m282 279.7c1 11.1-1.8 26.8-9.6 41.8-5.8 11.2-13 20.4-20.2 26.7l-.3.8c11.7 1.1 24.1-.2 36.3-4.2 16.7-5.4 28.7-10.9 38.8-22.8z" fill="#5dbf8f"/><ellipse cx="219.1" cy="233.4" fill="#094567" rx="5.8" ry="5.8" transform="matrix(.3536 -.9354 .9354 .3536 -76.697 355.7935)"/><path d="m252.2 348.2-.3.8c6.9.6 14 .4 21.2-.6.1-6.5-1.3-13.6-4.1-20.7-5.1 8.3-10.9 15.4-16.8 20.5z" fill="#094567"/><g fill="none"><path d="m358.4 282.8c-.1.2-.1.3-.2.5 0-.1.1-.3.2-.5z"/><path d="m357.2 285.6c-.1.1-.1.3-.2.4.1-.1.2-.3.2-.4z"/><path d="m359.3 280.4c-.1.2-.1.3-.2.5 0-.2.1-.4.2-.5z"/><path d="m360.1 277.6c0 .2-.1.3-.1.5 0-.2.1-.4.1-.5z"/><path d="m346.3 220.5s.1.1.1.1-.1 0-.1-.1z"/><path d="m350.3 297.9c-.1.2-.2.3-.4.5.2-.1.3-.3.4-.5z"/><path d="m351.8 295.7c-.1.1-.2.2-.2.4 0-.2.1-.3.2-.4z"/><path d="m343.7 217.3c.2.2.4.5.6.7-.2-.3-.4-.5-.6-.7z"/><path d="m348.4 223.3c.2.2.3.5.5.7-.2-.2-.4-.4-.5-.7z"/><path d="m360.8 275.1c0 .2-.1.3-.1.5 0-.2 0-.4.1-.5z"/><path d="m356.1 287.9c-.1.2-.2.4-.3.5.2-.1.3-.3.3-.5z"/><path d="m354.7 290.7c-.1.1-.1.3-.2.4.1-.1.2-.3.2-.4z"/><path d="m353.4 293c-.1.2-.2.4-.3.5.1-.2.2-.3.3-.5z"/><path d="m362.1 258.5v.6c0-.2 0-.4 0-.6z"/><path d="m361.4 272.2c0 .2-.1.3-.1.5 0-.2 0-.3.1-.5z"/><path d="m361.8 255.6c0 .1 0 .3.1.4 0-.1-.1-.2-.1-.4z"/><path d="m361.8 269.7c0 .2-.1.4-.1.5 0-.2 0-.4.1-.5z"/><path d="m362.1 266.8v.5c0-.2 0-.4 0-.5z"/><path d="m362.2 261.2v.5c0-.2 0-.3 0-.5z"/><path d="m362.2 264.1v.6c0-.2 0-.4 0-.6z"/><path d="m348.4 300.5c-.1.1-.2.2-.2.3.1-.1.1-.2.2-.3z"/></g><path d="m346.4 220.7c.7.9 1.3 1.8 2 2.7-.7-1-1.3-1.8-2-2.7z" fill="#1b75bc"/><path d="m344.2 217.9c.7.9 1.4 1.7 2.1 2.6-.7-.8-1.3-1.7-2.1-2.6z" fill="#1b75bc"/><path d="m341.4 214.5c.8.9 1.6 1.8 2.3 2.7-.8-.8-1.5-1.8-2.3-2.7z" fill="#1b75bc"/><path d="m362.2 261.7v2.4c0-.8.1-1.6 0-2.4z" fill="#1b75bc"/><path d="m360 278.1c-.2.8-.5 1.5-.7 2.3.2-.8.4-1.6.7-2.3z" fill="#1b75bc"/><path d="m354.5 291.1c-.3.6-.7 1.3-1.1 1.9.4-.6.8-1.3 1.1-1.9z" fill="#1b75bc"/><path d="m359.1 280.9c-.2.7-.5 1.3-.7 1.9.2-.6.5-1.3.7-1.9z" fill="#1b75bc"/><path d="m353.1 293.5c-.4.7-.9 1.4-1.3 2.2.5-.7.9-1.5 1.3-2.2z" fill="#1b75bc"/><path d="m357 286c-.3.6-.6 1.3-.9 1.9.4-.6.6-1.2.9-1.9z" fill="#1b75bc"/><path d="m351.6 296c-.4.6-.8 1.2-1.2 1.9.3-.6.7-1.2 1.2-1.9z" fill="#1b75bc"/><path d="m346.8 302.7c.5-.6 1-1.2 1.4-1.8-.5.6-1 1.2-1.4 1.8z" fill="#1b75bc"/><path d="m349.9 298.4c-.5.7-1 1.4-1.5 2.1.5-.7 1-1.4 1.5-2.1z" fill="#1b75bc"/><path d="m355.9 288.5c-.4.7-.7 1.5-1.1 2.2.3-.7.7-1.5 1.1-2.2z" fill="#1b75bc"/><path d="m361.9 256.1c.1.8.2 1.7.2 2.5 0-.9-.1-1.7-.2-2.5z" fill="#1b75bc"/><path d="m361.5 253.5c.1.7.2 1.4.3 2.2-.1-.8-.2-1.5-.3-2.2z" fill="#1b75bc"/><path d="m362.1 259.1c0 .7.1 1.4.1 2.1 0-.7 0-1.4-.1-2.1z" fill="#1b75bc"/><path d="m361.3 272.7c-.2.8-.3 1.6-.5 2.4.2-.8.3-1.6.5-2.4z" fill="#1b75bc"/><path d="m360.6 275.6c-.2.7-.3 1.3-.5 2 .2-.7.4-1.4.5-2z" fill="#1b75bc"/><path d="m361.7 270.2c-.1.7-.2 1.3-.3 2 .1-.7.2-1.3.3-2z" fill="#1b75bc"/><path d="m362.2 264.7c0 .7-.1 1.4-.1 2.1 0-.7.1-1.4.1-2.1z" fill="#1b75bc"/><path d="m362 267.3c-.1.8-.2 1.6-.3 2.4.2-.8.3-1.6.3-2.4z" fill="#1b75bc"/><path d="m217.7 216.3c-.4.4-.9.9-1.3 1.3l110.6 104.4c.8-.7 1.6-1.3 2.5-2l-110.8-104.6c-.3.3-.7.6-1 .9z"/></g></svg>