<svg enable-background="new 0 0 595.3 595.3" viewBox="0 0 595.3 595.3" xmlns="http://www.w3.org/2000/svg" xmlns:xlink="http://www.w3.org/1999/xlink"><defs><circle id="a" cx="297.6" cy="297.6" r="149.3"/><clipPath id="b"><use xlink:href="#a"/></clipPath></defs><use fill="#fff" xlink:href="#a"/><g clip-path="url(#b)"><path d="m306.4 342.8c-60.4 128.6 79.8 188.2 79.8 188.2v39.5l14 10.5c3.5 47.4 38.6 40.4 38.6 40.4v-244.8c-13.2-64.9-67.6-74.6-67.6-74.6v-34.2z" fill="#205072"/><path d="m384.4 494.2v75.1l3.5 2.6v-74.2h10.5v82.1l1.8 1.3c.3 4.4.9 8.4 1.8 11.9v-98.8z" fill="#fff"/><path d="m306.4 342.8.6-.4-39.8-21.6-16.6 20.2s-60.3 130.4 85.4 156.7c-33-30.2-64.2-81.2-29.6-154.9z" fill="#8bcb8f"/><path d="m351.9 488.6c5.4 8.3 14.8 13.8 25.5 13.8 2.4 0 4.8-.3 7-.9 5.3 8.9 15 14.9 26.1 14.9 10.8 0 22.4-7.9 28.3-17v-122.8c-13.2-64.9-67.6-74.6-67.6-74.6v-34.2l-64.8 75.1c-30.7 65.3-9.6 112.8 18.5 143.8 4.6 2.7 9.9 4.3 15.6 4.3 4.1-.1 7.9-.9 11.4-2.4z" fill="#094567"/><ellipse cx="281.8" cy="267.7" fill="#205072" rx="89.5" ry="78.1"/><path d="m290.4 290.6-47.4 47.6c-4.3-1.8-8.3-3.9-12.2-6.2l50.5-50z"/><circle cx="314.5" cy="249.1" fill="#fff" r="30.4"/><path d="m316.3 229.3c.5 1.6.9 3.2.9 4.9 0 8.6-7 15.5-15.5 15.5-2.5 0-4.9-.7-7-1.7 0 .4-.1.7-.1 1.1 0 11 8.9 19.9 19.9 19.9s19.9-8.9 19.9-19.9c0-10.4-8-18.9-18.1-19.8z"/><path d="m213.2 217.6c-7.2 6.7-15.2 22.6-15.2 22.6s-34.4 57.7 18.8 105.7l64.5-63.9z" fill="#309d9c"/><path d="m242.5 338c11.8 5.1 25.2 7.9 39.2 7.9 19.3 0 37.1-5.3 51.7-14.4l-42.9-41.1z" fill="#5dbf8f"/><circle cx="215" cy="240.3" fill="#094567" r="6.3"/><path d="m216.8 345.9 34.8-34.5c-6.9-2.9-14.5-4.5-22.5-4.5-12.7 0-24.4 4.1-34 11 4.6 9.3 11.5 18.8 21.7 28z" fill="#205072"/><path d="m281.8 345.9c.8 0 1.6-.1 2.4-.1-4.1-11.4-11.5-21.2-21.2-28.1l-20.5 20.3c11.9 5 25.2 7.9 39.3 7.9z" fill="#094567"/><path d="m304.5 169.6-68.5 31.8c21.3-9.9 43.9-11.7 63.8-6.8z" fill="#205072"/><path d="m212 218.9 120 113.5c1-.6 2.1-1.3 3.1-1.9l-120.7-114.2c-.8.9-1.7 1.7-2.4 2.6z"/></g></svg>