<svg enable-background="new 0 0 595.3 595.3" viewBox="0 0 595.3 595.3" xmlns="http://www.w3.org/2000/svg" xmlns:xlink="http://www.w3.org/1999/xlink"><defs><circle id="a" cx="297.6" cy="297.6" r="149.3"/><clipPath id="b"><use xlink:href="#a"/></clipPath></defs><use fill="#d1e8ce" xlink:href="#a"/><g clip-path="url(#b)"><path d="m199.9 398.5c.8-16.1 30-14.8 30-14.8s-40.5 10.2-43.6-11.3c-2-13.9 27-10.8 27-10.8s-44 2.8-41.6-19.2c2.2-20 110.8-24.1 140 6 22.3 22.9 14.5 54.3 6.5 64.8-40.4 53.1-119.2 3-118.3-14.7z" fill="#094567"/><path d="m312.5 335.9c-56.3 119.9 74.3 175.4 74.3 175.4v36.8l13.1 9.8c3.3 44.2 36 37.6 36 37.6v-228.1c-12.3-60.5-63-69.5-63-69.5l-.6-32.6z" fill="#205072"/><path d="m385.2 477v70l3.3 2.4v-69.1h9.8v76.5l1.6 1.2c.3 4.1.9 7.8 1.6 11.1v-92.1z" fill="#fff"/><path d="m312.5 335.9.6-.4-37.1-20-15.5 18.8s-56.2 121.5 79.6 146c-30.8-28.1-59.9-75.7-27.6-144.4z" fill="#8bcb8f"/><path d="m354.9 471.8c5.1 7.7 13.8 12.8 23.7 12.8 2.3 0 4.5-.3 6.6-.8 5 8.3 14 13.8 24.3 13.8 10.1 0 20.8-7.4 26.3-15.9v-114.3c-12.3-60.5-63-69.5-63-69.5l-.6-32.6-59.8 70.6c-28.6 60.9-9 105.1 17.2 134 4.2 2.5 9.2 4 14.5 4 3.9 0 7.5-.7 10.8-2.1z" fill="#094567"/><path d="m362.9 232.6c-4.2-8.1-9.9-15.1-16.7-20.7l13.3-20-66.1 2.4c-16.1 0-33.1 3.9-49.2 12.2-46.1 23.6-67.6 73.6-48.1 111.7 1.1 2.1 2.3 4.2 3.6 6.2l89.4-45.1 8.5 8-38.4 69.7c17.7 1.2 36.7-2.9 54.5-13 60.5-34.8 68.7-73.3 49.2-111.4z" fill="#205072"/><path d="m313.6 343.9c9.9-5.7 18.5-11.5 25.7-17.4l-41.8-39.3-38.4 69.7c17.8 1.2 36.8-2.8 54.5-13z" fill="#5dbf8f"/><path d="m225 218.9c-32.5 26.1-45.5 67-28.9 99.3 1.1 2.1 2.3 4.2 3.6 6.2l89.4-45.1z" fill="#309d9c"/><ellipse cx="319.7" cy="248.8" fill="#fff" rx="30.6" ry="36.1" transform="matrix(.7071 -.7071 .7071 .7071 -82.3213 298.95)"/><path d="m301 234.3c1.5.4 2.9 1.1 4.2 2 6.5 4.7 8 13.7 3.3 20.2-1.4 1.9-3.2 3.3-5.1 4.4.3.2.5.4.8.6 8.3 6 19.9 4.1 25.9-4.3 6-8.3 4.1-19.9-4.3-25.9-7.8-5.5-18.6-4.1-24.8 3z"/><ellipse cx="222.9" cy="236.6" fill="#094567" rx="5.9" ry="5.9" transform="matrix(.3536 -.9354 .9354 .3536 -77.2433 361.4106)"/><path d="m289 279.2-64.6 32.3c3.2 1.9 31.1 18.4 41.6 24.3 1.8 1 3.1 1.7 3.7 1.9l.5-1 27.2-49.6z"/><path d="m223.8 219.9 63.6 60.2 1.6-.8 8.5 8-.9 1.6 41.2 38.9c.9-.7 1.8-1.5 2.7-2.2l-114-107.8c-.9.6-1.8 1.4-2.7 2.1z"/><path d="m275.7 326.8-16.6 30.1c6.6.4 13.4.1 20.2-.9 1.3-9.9 0-19.9-3.6-29.2z" fill="#094567"/><path d="m199.7 324.4 52.4-26.5c-19.4-12.4-43.6-12.4-62.7-1.4.9 7.5 3.1 14.8 6.7 21.7 1.1 2.1 2.3 4.2 3.6 6.2z" fill="#205072"/></g></svg>