<svg viewBox="0 0 480 480" xmlns="http://www.w3.org/2000/svg"><path d="m15.2 371.69q3.32 1.53 10.69 1.53 2.51 0 5.26-.11t5.23-.29l4.29-.29q1.8-.11 2.38-.11 1.17 0 1 1.17l-.54 4a3.28 3.28 0 0 1 -1.3 2.58 6.63 6.63 0 0 1 -3.14 1.05q-2.65.27-6.79.38t-9.43.11a39.26 39.26 0 0 1 -12.6-1.66 15.49 15.49 0 0 1 -7.25-4.63 13.62 13.62 0 0 1 -2.85-7.32 36.84 36.84 0 0 1 .45-9.75 34.17 34.17 0 0 1 3.57-10.89 20.72 20.72 0 0 1 6.15-7 23.33 23.33 0 0 1 8.62-3.66 52.91 52.91 0 0 1 11-1.05 46.3 46.3 0 0 1 11.59 1.19 18.92 18.92 0 0 1 6.87 3.06 8 8 0 0 1 3 4.25 11.25 11.25 0 0 1 .2 4.74 14.84 14.84 0 0 1 -1.84 5.3 11.8 11.8 0 0 1 -3.76 3.81 21.28 21.28 0 0 1 -5.75 2.54 63.85 63.85 0 0 1 -8.06 1.71l-20.62 3.1q.31 4.71 3.63 6.24zm13.66-16.17a46.44 46.44 0 0 0 5.62-1.08 12.26 12.26 0 0 0 3.24-1.3 4.14 4.14 0 0 0 1.57-1.66 8.72 8.72 0 0 0 .67-2.25 3.58 3.58 0 0 0 -1.89-4.13q-2.38-1.3-8.58-1.3a36 36 0 0 0 -7.5.65 11.87 11.87 0 0 0 -4.9 2.18 9.47 9.47 0 0 0 -2.92 4 29.86 29.86 0 0 0 -1.62 6l-.22 1.37z" fill="#231f20"/><path d="m93.32 352.06-4.63 28.94a1.15 1.15 0 0 1 -1.26 1.08h-7.77q-1.08 0-.9-1.08l4.36-27.36q.85-5.3-1-7.05t-7.86-1.75q-4.59 0-7 .16a19.25 19.25 0 0 0 -3.68.52 1.79 1.79 0 0 0 -1.46 1.44l-5.41 34.04a1.13 1.13 0 0 1 -1.21 1.08h-7.6q-1.26 0-1.08-1.08l6.29-39.35a4.35 4.35 0 0 1 4-3.91 65.86 65.86 0 0 1 8.29-1.21q4.29-.36 10.81-.36 10.42 0 14.44 3.71t2.67 12.18z" fill="#231f20"/><path d="m95.75 399.14q-3.1-.36-2.6-3.42l.76-4c.09-.69.44-1 1-1q1.48.13 5.1.65a87.44 87.44 0 0 0 11.25.52 32.61 32.61 0 0 0 6.47-.52 8.71 8.71 0 0 0 4-1.84 7.9 7.9 0 0 0 2.27-3.44 28 28 0 0 0 1.19-5.17q-1.35.13-4.09.27t-6.29.13a42.42 42.42 0 0 1 -8.47-.81 15 15 0 0 1 -6.81-3.19 13.22 13.22 0 0 1 -4.07-6.67q-1.24-4.29-.11-11.3a51.45 51.45 0 0 1 2.36-9.61 20.52 20.52 0 0 1 4.54-7.41 19.34 19.34 0 0 1 7.91-4.76 39.08 39.08 0 0 1 12.33-1.66 70.3 70.3 0 0 1 8.58.47q3.82.47 7.41 1.23 3.37.4 2.87 3.73l-5.75 36.52a47.16 47.16 0 0 1 -2.74 10.58 18.2 18.2 0 0 1 -4.68 6.83 17.3 17.3 0 0 1 -7.18 3.73 42.83 42.83 0 0 1 -10.58 1.12q-5.39 0-8.94-.27a55.11 55.11 0 0 1 -5.73-.71zm31-27.4 3.91-25.11a1.23 1.23 0 0 0 -.85-1.48 24.37 24.37 0 0 0 -3.24-.45q-2.07-.18-4.58-.18a39 39 0 0 0 -6.9.52 10 10 0 0 0 -4.72 2.11 10.6 10.6 0 0 0 -3 4.49 40.09 40.09 0 0 0 -1.86 7.79 33.68 33.68 0 0 0 -.52 6.11 7 7 0 0 0 1.26 4.11 6.76 6.76 0 0 0 3.73 2.31 26.35 26.35 0 0 0 6.9.72q2.92 0 5.82-.27a19.71 19.71 0 0 0 4-.67z" fill="#231f20"/><path d="m149.7 381.71h-8.54q-1 0-.85-1.21l9-58.31q.77-5.12 5.39-5.12h4.94q1.17 0 1 1.21l-9.64 62.22a1.25 1.25 0 0 1 -1.3 1.21z" fill="#231f20"/><path d="m160 381.84c-.66 0-.94-.33-.85-1l6-38.81q.63-4.32 4.94-4.31h4.31q1 0 .85 1l-6.47 42.14a1 1 0 0 1 -1.12 1zm7.14-58.22q.94-5.89 6.65-5.89t4.72 5.89q-.85 5.66-6.51 5.66t-4.87-5.66z" fill="#231f20"/><path d="m201.28 364.46-11.5-3.32q-6.56-1.84-8.85-4.56t-1.57-7.35a14.66 14.66 0 0 1 5.91-9.64q5-3.84 15.61-3.84 5.52 0 8.4.27a43.6 43.6 0 0 1 4.81.67 4.58 4.58 0 0 1 2.27 1q.87.74.34 2.45l-.63 4.09a.84.84 0 0 1 -.9.81 13.9 13.9 0 0 1 -1.71-.13l-2.65-.34q-1.62-.2-4.16-.4t-6.4-.2a24.48 24.48 0 0 0 -7.86.94 4.29 4.29 0 0 0 -3 3.59q-.45 3 4.27 4.22l11.84 3.28q6 1.62 8.4 4.51t1.66 7.53a15 15 0 0 1 -6.27 10.38q-5.19 3.58-15.47 3.58a90 90 0 0 1 -9.34-.4 38 38 0 0 1 -6.42-1.17q-2.65-.76-2.16-3.82l.81-4.36a1 1 0 0 1 1-.94 19.83 19.83 0 0 1 5 1.19q3.64 1.19 11.45 1.19 5.66 0 8.31-1.33a4.94 4.94 0 0 0 3-3.71 2.45 2.45 0 0 0 -1.05-2.72 15.27 15.27 0 0 0 -3.14-1.47z" fill="#231f20"/><path d="m228.63 380.68a1.15 1.15 0 0 1 -1.26 1.08h-7.73c-.63 0-.89-.36-.77-1.08l8.94-58q.72-4.49 4.9-4.49h4.49c.72 0 1 .36.9 1.08l-2.78 18.1a52.29 52.29 0 0 1 6.4-.85q3.21-.23 6.76-.23 18.46 0 16 15.64l-4.4 28.71a1.16 1.16 0 0 1 -1.26 1.08h-7.59c-.75 0-1.06-.36-.94-1.08l4.18-27.13q.81-5.12-1.08-7-1.53-1.89-7.41-1.89a48.35 48.35 0 0 0 -10.87.94 2 2 0 0 0 -1.35 1.57z" fill="#231f20"/><path d="m285.11 381.89q-12.36 0-16.22-6.79-3.5-5.25-1.71-16.67 5.21-21.92 28.62-21.92l4.9.32a2.9 2.9 0 0 1 2.52 3.68l.32 3.73a.94.94 0 0 1 -1 .9 60.72 60.72 0 0 0 -11-.43 17.21 17.21 0 0 0 -9.44 3.37q-4.18 3.08-5.35 10.35-1.48 9.26 1.53 12 2 3.06 9.66 3.05a35.87 35.87 0 0 0 4.34-.36q2.76-.36 4.65-.67a25.9 25.9 0 0 1 3.15-.32h.92q.9 0 .72 1.21l-.31 4a3.66 3.66 0 0 1 -3.64 3.37q-1.57.31-5.28.7a72.18 72.18 0 0 1 -7.38.48z" fill="#231f20"/><path d="m304.16 358.17q2-12.76 9.34-17.45a31 31 0 0 1 17-4.69q9.61 0 15.61 4.69t4 17.45a45.69 45.69 0 0 1 -2.4 9.41 21 21 0 0 1 -4.76 7.48 21.78 21.78 0 0 1 -7.86 4.94 33.2 33.2 0 0 1 -11.7 1.8q-7 0-11.16-1.8a13.68 13.68 0 0 1 -6.22-4.94 15.23 15.23 0 0 1 -2.36-7.48 43.45 43.45 0 0 1 .51-9.41zm35.89 0q1.12-7.19-1-10.44t-9.82-3.26q-7.73 0-10.89 3.26t-4.34 10.44q-1.39 9.16 1.15 12.17t9.55 3q7 0 10.44-3t4.86-12.17z" fill="#231f20"/><path d="m360.29 380.45a13.13 13.13 0 0 1 -5.64-3.16 7.47 7.47 0 0 1 -2.11-4.34 17.35 17.35 0 0 1 .13-4.81 12.06 12.06 0 0 1 5.3-8.58q4.31-2.78 12.13-4.27l6-.94q2.52-.4 4.2-.74t2.7-.61q1.05-.27 1.77-.54a2.74 2.74 0 0 0 1-.61 2.7 2.7 0 0 0 .49-1.28q.54-3.37-1.44-4.79t-7.68-1.42a77.56 77.56 0 0 0 -11.32.61 39.55 39.55 0 0 1 -5.12.61c-.54 0-.75-.31-.63-.94l.54-4a3.22 3.22 0 0 1 1.15-2.49 6 6 0 0 1 2.54-1q2.11-.27 5.73-.54t8.88-.27q10.15 0 14.19 3.71t2.56 12.51l-4 24.08a4.33 4.33 0 0 1 -4 3.77 69.29 69.29 0 0 1 -8.16.94q-4.43.27-8.78.27a35.43 35.43 0 0 1 -10.43-1.17zm24.42-20.39-16.71 3.1q-4.9.94-5.57 5-.58 3.37 2.27 4.51a22 22 0 0 0 8 1.15q2.74 0 5.68-.27a39.44 39.44 0 0 0 4.2-.54z" fill="#231f20"/><path d="m416.06 381.89q-12.36 0-16.22-6.79-3.5-5.25-1.71-16.67 5.21-21.92 28.62-21.92l4.9.32a2.9 2.9 0 0 1 2.52 3.68l.32 3.73a.94.94 0 0 1 -1 .9 60.72 60.72 0 0 0 -11-.43 17.21 17.21 0 0 0 -9.44 3.37q-4.18 3.08-5.35 10.35-1.48 9.26 1.53 12 2 3.06 9.66 3.05a35.87 35.87 0 0 0 4.34-.36q2.76-.36 4.65-.67a25.9 25.9 0 0 1 3.15-.32h.97q.9 0 .72 1.21l-.31 4a3.66 3.66 0 0 1 -3.64 3.37q-1.57.31-5.28.7a72.18 72.18 0 0 1 -7.43.48z" fill="#231f20"/><path d="m443.82 380.68a1.15 1.15 0 0 1 -1.26 1.08h-7.73c-.63 0-.89-.36-.77-1.08l8.94-58q.72-4.49 4.9-4.49h4.49c.72 0 1 .36.9 1.08l-2.78 18.1a52.29 52.29 0 0 1 6.4-.85q3.21-.23 6.76-.23 18.46 0 16 15.64l-4.4 28.71a1.16 1.16 0 0 1 -1.26 1.08h-7.59c-.75 0-1.06-.36-.94-1.08l4.18-27.13q.81-5.12-1.08-7-1.53-1.89-7.41-1.89a48.35 48.35 0 0 0 -10.87.94 2 2 0 0 0 -1.35 1.57z" fill="#231f20"/><rect fill="#1f5072" height="189.16" rx="7.11" transform="matrix(.70710678 -.70710678 .70710678 .70710678 -48.85 219.06)" width="189.16" x="145.42" y="73.91"/><path d="m295.82 180.6-10.34 10.34-37.11 37.06-8.37 8.43-43.44-43.43 18.62-18.62 24.82 24.82 60-60-10.34-10.34-10.19 10.14-39.47 39.52-14.47-14.52 24.81-24.81-35.15-35.15-24.81 24.81-10.38 10.38 24.85 24.77-29 29 10.34 10.34 53.81 53.77 66.17-66.17zm-80.63-55.85 14.48 14.48-14.48 14.47-13.31-13.31-1.16-1.16z" fill="#5dbe8e"/><path d="m279.29 139.23.19-.19.71-.72z" fill="#5dbe8e"/><g fill="#231f20"><path d="m51.71 435.11 1.83-9.66-4.49-13.6h3.07l2.24 7.52c.59 2.07.79 3 1 3.9h.07c.59-1 1.38-2.28 2.49-4l5-7.42h3.35l-9.9 13.56-1.83 9.7z"/><path d="m78.58 425c0 5.14-3.66 10.49-9.25 10.49-4.18 0-6.52-3.11-6.52-6.87 0-5.49 3.83-10.59 9.25-10.59 4.52-.03 6.52 3.41 6.52 6.97zm-12.8 3.52c0 2.73 1.48 4.69 3.94 4.69 3.38 0 5.94-4.35 5.94-8.25 0-1.93-.9-4.66-3.9-4.66-3.6 0-6.01 4.38-5.98 8.21z"/><path d="m96.86 418.4-2.24 11.84c-.35 1.86-.59 3.48-.76 4.86h-2.59l.45-3.14h-.07a7.44 7.44 0 0 1 -5.9 3.52c-2.14 0-4.38-1-4.38-4.83a15.3 15.3 0 0 1 .31-2.8l1.79-9.45h2.86l-1.76 9.32a11.35 11.35 0 0 0 -.31 2.45c0 1.72.72 2.9 2.69 2.9s4.73-2.42 5.42-6.11l1.63-8.56z"/><path d="m98.72 435.11 2-10.77c.41-2.17.69-4.38.86-5.94h2.52c-.14 1.17-.27 2.35-.45 3.62h.1c1.07-2.28 2.86-4 5.11-4a5.45 5.45 0 0 1 .79.07l-.55 2.83a3.92 3.92 0 0 0 -.76-.07c-2.49 0-4.69 3-5.42 6.9l-1.38 7.35z"/><path d="m120.45 412.19a23.1 23.1 0 0 1 5-.52 8.35 8.35 0 0 1 5.69 1.79 5.43 5.43 0 0 1 1.69 4.21 8 8 0 0 1 -2.8 6.07 11 11 0 0 1 -7 2.21 16.76 16.76 0 0 1 -2.38-.17l-1.76 9.32h-2.83zm.65 11.18a10.49 10.49 0 0 0 2.31.24c3.93 0 6.56-2.45 6.56-5.73 0-2.76-2-3.86-4.62-3.86a10.6 10.6 0 0 0 -2.52.24z"/><path d="m144.84 434.14a11.5 11.5 0 0 1 -5.52 1.31c-4.42 0-6.35-3-6.35-6.69 0-5 3.73-10.73 9.11-10.73 3.18 0 4.9 1.9 4.9 4.28 0 4.38-4.93 5.56-11.11 5.45a6.93 6.93 0 0 0 .35 3.17 3.8 3.8 0 0 0 3.73 2.24 9.31 9.31 0 0 0 4.49-1.17zm-3.18-13.87c-2.73 0-4.76 2.66-5.45 5.28 4.49 0 8-.55 8-3.14 0-1.41-1.03-2.14-2.55-2.14z"/><path d="m148.42 435.11 2-10.77c.41-2.17.69-4.38.86-5.94h2.52c-.14 1.17-.28 2.35-.45 3.62h.1c1.07-2.28 2.87-4 5.11-4a5.42 5.42 0 0 1 .79.07l-.55 2.83a4 4 0 0 0 -.76-.07c-2.49 0-4.69 3-5.42 6.9l-1.38 7.35z"/><path d="m159.52 432.21a7.61 7.61 0 0 0 3.59 1 2.88 2.88 0 0 0 3.18-2.73c0-1.31-.59-2.11-2.31-3.07-1.93-1.07-3-2.55-3-4.25 0-2.93 2.52-5.17 6-5.17a7 7 0 0 1 3.49.83l-.77 2.18a6 6 0 0 0 -2.9-.76 2.68 2.68 0 0 0 -3 2.52c0 1.21.79 2 2.28 2.8 1.86 1.07 3.14 2.52 3.14 4.38 0 3.52-2.86 5.49-6.38 5.49a7.33 7.33 0 0 1 -4.14-1.14z"/><path d="m188.26 425c0 5.14-3.66 10.49-9.25 10.49-4.17 0-6.52-3.11-6.52-6.87 0-5.49 3.83-10.59 9.25-10.59 4.52-.03 6.52 3.41 6.52 6.97zm-12.8 3.52c0 2.73 1.48 4.69 3.93 4.69 3.38 0 5.94-4.35 5.94-8.25 0-1.93-.9-4.66-3.9-4.66-3.59 0-6.01 4.38-5.97 8.21z"/><path d="m190.25 435.11 2.24-11.84c.38-1.86.59-3.49.79-4.86h2.55l-.42 3.28h.07a7.3 7.3 0 0 1 6.18-3.66c2 0 4.24 1.14 4.24 4.66a16.06 16.06 0 0 1 -.31 2.69l-1.86 9.73h-2.86l1.83-9.63a11 11 0 0 0 .24-2.14c0-1.69-.65-2.93-2.62-2.93s-4.93 2.45-5.69 6.59l-1.52 8.11z"/><path d="m219.74 435.11a43 43 0 0 1 .38-4.31h-.07c-1.83 3.45-4.11 4.69-6.49 4.69-2.93 0-4.8-2.35-4.8-5.52 0-5.8 4.28-11.94 11.56-11.94a15.64 15.64 0 0 1 4.48.65l-1.69 8.7a38.2 38.2 0 0 0 -.72 7.73zm1.86-14.56a7.74 7.74 0 0 0 -2-.24c-4.31 0-7.83 4.52-7.87 9.14 0 1.86.65 3.69 2.86 3.69 2.38 0 5.21-3.11 6-7.56z"/><path d="m226.7 435.11 4.66-24.5h2.86l-4.69 24.5z"/><path d="m254.34 424.17h-8.45l-1.59 8.49h9.52l-.48 2.45h-12.39l4.42-23.26h11.87l-.48 2.45h-9l-1.41 7.45h8.46z"/><path d="m257.05 435.11 2.24-11.84c.38-1.86.59-3.49.79-4.86h2.55l-.41 3.28h.07a7.3 7.3 0 0 1 6.18-3.66c2 0 4.24 1.14 4.24 4.66a16.06 16.06 0 0 1 -.31 2.69l-1.86 9.73h-2.87l1.83-9.63a10.85 10.85 0 0 0 .24-2.14c0-1.69-.66-2.93-2.62-2.93s-4.93 2.45-5.69 6.59l-1.52 8.11z"/><path d="m275.64 438.9a8.86 8.86 0 0 0 4.42 1.1c2.8 0 5-1.45 6-6l.55-2.48h-.1a6.66 6.66 0 0 1 -5.8 3.55c-3.35 0-5.07-2.83-5.07-5.8 0-5.66 4.14-11.28 10.6-11.28a13.56 13.56 0 0 1 5.35 1.17l-2.59 13.84c-.69 3.52-1.62 6-3.38 7.45a8.8 8.8 0 0 1 -5.83 1.86 9.9 9.9 0 0 1 -5-1.17zm12.8-18a7 7 0 0 0 -2.76-.55c-4.17 0-7 4.35-7.07 8.49 0 1.83.65 4 3.21 4s4.93-3.11 5.55-6.38z"/><path d="m293.58 435.11 4.66-24.5h2.87l-4.69 24.5z"/><path d="m301.44 435.11 3.21-16.7h2.87l-3.21 16.7zm3.73-21.36a1.9 1.9 0 0 1 1.9-1.93 1.66 1.66 0 0 1 1.69 1.79 1.89 1.89 0 0 1 -1.93 1.93 1.65 1.65 0 0 1 -1.66-1.8z"/><path d="m309.48 432.21a7.61 7.61 0 0 0 3.59 1 2.88 2.88 0 0 0 3.18-2.73c0-1.31-.59-2.11-2.31-3.07-1.93-1.07-3-2.55-3-4.25 0-2.93 2.52-5.17 6-5.17a7 7 0 0 1 3.49.83l-.79 2.17a6 6 0 0 0 -2.9-.76 2.68 2.68 0 0 0 -3 2.52c0 1.21.79 2 2.28 2.8 1.86 1.07 3.14 2.52 3.14 4.38 0 3.52-2.86 5.49-6.38 5.49a7.33 7.33 0 0 1 -4.14-1.14z"/><path d="m322.2 435.11 4.66-24.5h2.86l-2.07 10.77h.07a7.18 7.18 0 0 1 6-3.35c1.9 0 4.14 1.17 4.14 4.49a15.39 15.39 0 0 1 -.28 2.83l-1.86 9.77h-2.87l1.86-9.63a13.64 13.64 0 0 0 .21-2.31c0-1.55-.72-2.76-2.59-2.76-2.21 0-5 2.59-5.69 6.35l-1.55 8.35z"/><path d="m363.08 434.35a15.28 15.28 0 0 1 -6 1.1c-5.87 0-9.42-3.69-9.42-9.63a14.48 14.48 0 0 1 5-11.22 13.17 13.17 0 0 1 8.76-3.14 9.35 9.35 0 0 1 5 1.14l-.93 2.31a9.57 9.57 0 0 0 -4.59-1 9.83 9.83 0 0 0 -6.66 2.62 12.23 12.23 0 0 0 -3.55 8.83c0 4.18 1.9 7.59 7.07 7.59a11.7 11.7 0 0 0 5-1z"/><path d="m381.81 425c0 5.14-3.66 10.49-9.25 10.49-4.17 0-6.52-3.11-6.52-6.87 0-5.49 3.83-10.59 9.25-10.59 4.52-.03 6.52 3.41 6.52 6.97zm-12.81 3.51c0 2.73 1.48 4.69 3.93 4.69 3.38 0 5.94-4.35 5.94-8.25 0-1.93-.9-4.66-3.9-4.66-3.58.01-5.97 4.39-5.97 8.22z"/><path d="m394.88 435.11a43.16 43.16 0 0 1 .38-4.31h-.07c-1.83 3.45-4.11 4.69-6.49 4.69-2.93 0-4.79-2.35-4.79-5.52 0-5.8 4.28-11.94 11.56-11.94a15.62 15.62 0 0 1 4.48.65l-1.69 8.7a38.23 38.23 0 0 0 -.73 7.73zm1.86-14.56a7.77 7.77 0 0 0 -2-.24c-4.31 0-7.83 4.52-7.87 9.14 0 1.86.66 3.69 2.87 3.69 2.38 0 5.21-3.11 6-7.56z"/><path d="m413.29 434.45a11.51 11.51 0 0 1 -4.83 1c-4.31 0-6.42-2.9-6.42-6.45 0-5.69 4.21-10.94 10.22-10.94a8.57 8.57 0 0 1 3.49.72l-.83 2.28a6.49 6.49 0 0 0 -2.83-.62c-4.35 0-7.07 4.28-7.07 8.21 0 2.69 1.41 4.45 4.14 4.45a8.78 8.78 0 0 0 3.86-.93z"/><path d="m416.39 435.11 4.66-24.5h2.87l-2.07 10.77h.07a7.18 7.18 0 0 1 6-3.35c1.9 0 4.14 1.17 4.14 4.49a15.6 15.6 0 0 1 -.27 2.83l-1.86 9.77h-2.93l1.86-9.63a13.64 13.64 0 0 0 .21-2.31c0-1.55-.72-2.76-2.59-2.76-2.21 0-5 2.59-5.69 6.35l-1.55 8.35z"/></g></svg>