<svg viewBox="0 0 708.66 623.62" xmlns="http://www.w3.org/2000/svg"><path d="m43 490.37q4.6 2.11 14.81 2.12 3.48 0 7.28-.16t7.25-.4l5.94-.41q2.49-.15 3.3-.15 1.62 0 1.37 1.62l-.75 5.6a4.55 4.55 0 0 1 -1.8 3.58 9.18 9.18 0 0 1 -4.35 1.46q-3.67.38-9.4.53t-13.06.16q-10.82 0-17.45-2.3t-10-6.47a18.86 18.86 0 0 1 -4-10.14 51 51 0 0 1 .62-13.5 47.31 47.31 0 0 1 4.95-15.09 28.69 28.69 0 0 1 8.52-9.67 32.31 32.31 0 0 1 11.94-5.07 73.28 73.28 0 0 1 15.27-1.46 64.12 64.12 0 0 1 16.05 1.65 26.2 26.2 0 0 1 9.51 4.24 11.07 11.07 0 0 1 4.14 5.88 15.59 15.59 0 0 1 .28 6.56 20.55 20.55 0 0 1 -2.55 7.34 16.34 16.34 0 0 1 -5.13 5.26 29.47 29.47 0 0 1 -8 3.52 88.42 88.42 0 0 1 -11.17 2.36l-28.57 4.29q.42 6.53 5 8.65zm18.93-22.37a64.32 64.32 0 0 0 7.78-1.49 17 17 0 0 0 4.48-1.8 5.73 5.73 0 0 0 2.18-2.3 12.07 12.07 0 0 0 .93-3.11 5 5 0 0 0 -2.61-5.72q-3.3-1.8-11.88-1.8a49.91 49.91 0 0 0 -10.39.9 16.43 16.43 0 0 0 -6.78 3 13.11 13.11 0 0 0 -4 5.47 41.35 41.35 0 0 0 -2.24 8.27l-.31 2z" fill="#231f20"/><path d="m151.2 463.18-6.41 40.06a1.6 1.6 0 0 1 -1.74 1.49h-10.76q-1.49 0-1.24-1.49l6-37.89q1.18-7.34-1.37-9.77t-10.89-2.43q-6.35 0-9.68.22a26.65 26.65 0 0 0 -5.1.72 2.48 2.48 0 0 0 -2 2l-7.53 47.16a1.56 1.56 0 0 1 -1.68 1.49h-10.49q-1.74 0-1.49-1.49l8.71-54.5a6 6 0 0 1 5.54-5.41 91.2 91.2 0 0 1 11.48-1.68q5.94-.5 15-.5 14.43 0 20 5.13t3.65 16.89z" fill="#231f20"/><path d="m154.56 528.38q-4.29-.5-3.61-4.73l1.06-5.54c.13-1 .6-1.43 1.43-1.43q2 .18 7.06.9a121.09 121.09 0 0 0 15.58.72 45.15 45.15 0 0 0 9-.72 12.06 12.06 0 0 0 5.54-2.55 10.94 10.94 0 0 0 3.14-4.76 38.79 38.79 0 0 0 1.65-7.15q-1.86.18-5.66.37t-8.71.19a58.74 58.74 0 0 1 -11.73-1.12 20.8 20.8 0 0 1 -9.43-4.42 18.3 18.3 0 0 1 -5.63-9.24q-1.71-5.94-.16-15.65a71.26 71.26 0 0 1 3.27-13.31 28.42 28.42 0 0 1 6.28-10.26 26.78 26.78 0 0 1 11-6.6 54.12 54.12 0 0 1 17.08-2.3 97.35 97.35 0 0 1 11.88.65q5.29.65 10.27 1.71 4.66.56 4 5.16l-8 50.58a65.31 65.31 0 0 1 -3.87 14.66 25.21 25.21 0 0 1 -6.47 9.46 24 24 0 0 1 -10 5.13 59.31 59.31 0 0 1 -14.65 1.56q-7.46 0-12.38-.37a76.32 76.32 0 0 1 -7.94-.94zm42.87-37.95 5.41-34.78a1.7 1.7 0 0 0 -1.18-2.05 33.74 33.74 0 0 0 -4.48-.62q-2.86-.25-6.34-.25a54 54 0 0 0 -9.55.72 13.88 13.88 0 0 0 -6.53 2.92 14.69 14.69 0 0 0 -4.17 6.22 55.51 55.51 0 0 0 -2.59 10.8 46.64 46.64 0 0 0 -.72 8.46 9.73 9.73 0 0 0 1.74 5.69 9.36 9.36 0 0 0 5.16 3.2 36.49 36.49 0 0 0 9.55 1q4 0 8.06-.37a27.29 27.29 0 0 0 5.64-.94z" fill="#231f20"/><path d="m229.28 504.24h-11.82q-1.43 0-1.18-1.68l12.44-80.75q1.06-7.09 7.47-7.09h6.81q1.62 0 1.37 1.68l-13.25 86.16a1.73 1.73 0 0 1 -1.84 1.68z" fill="#231f20"/><path d="m243.53 504.43c-.91 0-1.31-.45-1.18-1.37l8.27-53.75q.87-6 6.84-6h6q1.37 0 1.18 1.37l-9 58.35a1.41 1.41 0 0 1 -1.56 1.37zm9.89-80.63q1.3-8.15 9.21-8.15t6.53 8.15q-1.18 7.83-9 7.84t-6.74-7.83z" fill="#231f20"/><path d="m300.7 480.35-15.93-4.6q-9.08-2.55-12.26-6.31t-2.18-10.17a20.3 20.3 0 0 1 8.18-13.34q6.94-5.32 21.62-5.32 7.65 0 11.63.37a60.38 60.38 0 0 1 6.66.93 6.34 6.34 0 0 1 3.14 1.34q1.21 1 .47 3.39l-.87 5.66a1.17 1.17 0 0 1 -1.24 1.12 19.25 19.25 0 0 1 -2.36-.19l-3.67-.47q-2.24-.28-5.76-.56t-8.86-.28q-7.28 0-10.89 1.31a5.94 5.94 0 0 0 -4.17 5q-.62 4.17 5.91 5.85l16.42 4.54q8.34 2.24 11.64 6.25t2.3 10.42a20.74 20.74 0 0 1 -8.68 14.37q-7.19 5-21.43 5a124.69 124.69 0 0 1 -12.94-.56 52.59 52.59 0 0 1 -8.9-1.62q-3.67-1.06-3-5.29l1.12-6a1.32 1.32 0 0 1 1.43-1.31 27.46 27.46 0 0 1 6.91 1.65q5 1.65 15.86 1.65 7.84 0 11.51-1.84t4.17-5.13a3.39 3.39 0 0 0 -1.46-3.76 21.15 21.15 0 0 0 -4.37-2.1z" fill="#231f20"/><path d="m338.59 502.81a1.6 1.6 0 0 1 -1.74 1.49h-10.7c-.87 0-1.23-.5-1.06-1.49l12.38-80.26q1-6.22 6.78-6.22h6.22c1 0 1.41.5 1.24 1.49l-3.86 25.07a72.41 72.41 0 0 1 8.87-1.18q4.45-.31 9.36-.31 25.57 0 22.21 21.65l-6.1 39.75a1.6 1.6 0 0 1 -1.74 1.49h-10.5c-1 0-1.47-.5-1.31-1.49l5.79-37.58q1.12-7.1-1.49-9.64-2.13-2.58-10.27-2.58a67 67 0 0 0 -15.05 1.31 2.7 2.7 0 0 0 -1.87 2.18z" fill="#231f20"/><path d="m416.79 504.49q-17.11 0-22.46-9.4-4.85-7.27-2.33-23.09 7.22-30.36 39.63-30.36l6.78.44q4.1.87 3.48 5.1l.44 5.16a1.31 1.31 0 0 1 -1.43 1.25 84.09 84.09 0 0 0 -15.18-.59 23.83 23.83 0 0 0 -13.07 4.67q-5.78 4.26-7.4 14.34-2 12.82 2.12 16.67 2.74 4.23 13.38 4.23a49.68 49.68 0 0 0 6-.5q3.82-.5 6.44-.93a35.86 35.86 0 0 1 4.36-.44h1.31q1.24 0 1 1.68l-.43 5.6q-.62 4.23-5 4.67-2.18.43-7.31 1a100 100 0 0 1 -10.33.5z" fill="#231f20"/><path d="m443.17 471.64q2.74-17.67 12.94-24.17a42.93 42.93 0 0 1 23.58-6.5q13.31 0 21.62 6.5t5.57 24.17a63.28 63.28 0 0 1 -3.33 13 29.13 29.13 0 0 1 -6.55 10.36 30.17 30.17 0 0 1 -10.89 6.84 46 46 0 0 1 -16.21 2.49q-9.7 0-15.46-2.49a19 19 0 0 1 -8.62-6.84 21.1 21.1 0 0 1 -3.26-10.36 60.18 60.18 0 0 1 .61-13zm49.71 0q1.55-10-1.4-14.46t-13.59-4.51q-10.7 0-15.09 4.51t-5.94 14.46q-1.93 12.69 1.59 16.86t13.22 4.17q9.64 0 14.46-4.17t6.75-16.86z" fill="#231f20"/><path d="m520.91 502.5a18.18 18.18 0 0 1 -7.81-4.38 10.34 10.34 0 0 1 -2.92-6 24 24 0 0 1 .19-6.66q1.37-8 7.34-11.88t16.8-5.91l8.27-1.31q3.49-.56 5.82-1t3.8-.84q1.46-.38 2.46-.75a3.79 3.79 0 0 0 1.43-.84 3.74 3.74 0 0 0 .68-1.77q.75-4.66-2-6.63t-10.64-2a107.41 107.41 0 0 0 -15.68.84 54.77 54.77 0 0 1 -7.09.84c-.75 0-1-.43-.87-1.31l.75-5.47a4.46 4.46 0 0 1 1.56-3.43 8.33 8.33 0 0 1 3.52-1.4q2.92-.38 7.93-.75t12.29-.37q14.06 0 19.66 5.13t3.6 17.32l-5.6 33.35q-.75 4.48-5.6 5.22a96 96 0 0 1 -11.29 1.31q-6.13.38-12.16.37-9.19 0-14.44-1.68zm33.81-28.24-23.14 4.29q-6.78 1.3-7.72 6.91-.81 4.66 3.14 6.25t11 1.59q3.79 0 7.87-.37a54.61 54.61 0 0 0 5.82-.75z" fill="#231f20"/><path d="m598.14 504.49q-17.11 0-22.46-9.4-4.85-7.27-2.36-23.08 7.22-30.36 39.63-30.36l6.78.44q4.1.87 3.48 5.1l.44 5.16a1.31 1.31 0 0 1 -1.43 1.25 84.09 84.09 0 0 0 -15.22-.6 23.83 23.83 0 0 0 -13 4.68q-5.78 4.26-7.4 14.34-2 12.82 2.12 16.67 2.74 4.23 13.38 4.23a49.68 49.68 0 0 0 6-.5q3.82-.5 6.44-.93a35.86 35.86 0 0 1 4.36-.44h1.31q1.24 0 1 1.68l-.43 5.6q-.62 4.23-5 4.67-2.18.43-7.31 1a100 100 0 0 1 -10.33.49z" fill="#231f20"/><path d="m636.59 502.81a1.6 1.6 0 0 1 -1.74 1.49h-10.7c-.87 0-1.23-.5-1.06-1.49l12.38-80.26q1-6.22 6.78-6.22h6.22c1 0 1.41.5 1.24 1.49l-3.86 25.07a72.41 72.41 0 0 1 8.87-1.18q4.45-.31 9.36-.31 25.57 0 22.21 21.65l-6.1 39.75a1.6 1.6 0 0 1 -1.74 1.49h-10.5c-1 0-1.47-.5-1.31-1.49l5.79-37.58q1.12-7.1-1.49-9.64-2.13-2.58-10.27-2.58a67 67 0 0 0 -15.05 1.31 2.7 2.7 0 0 0 -1.87 2.18z" fill="#231f20"/><rect fill="#1f5072" height="261.95" rx="7.11" transform="matrix(.70710678 -.70710678 .70710678 .70710678 -43.99 311.76)" width="261.95" x="223.36" y="78"/><path d="m431.63 225.74-14.32 14.32-51.39 51.39-11.61 11.61-60.14-60.14 25.83-25.79 34.36 34.36 83-83-14.32-14.32-14.04 14.02-54.66 54.66-20-20 34.36-34.36-48.7-48.72-34.4 34.36-14.32 14.32 34.36 34.36-40.11 40.11 14.32 14.32 74.45 74.45 91.63-91.63zm-111.63-77.33 20 20-20 20-18.44-18.44-1.61-1.61z" fill="#5dbe8e"/><path d="m408.74 168.45.26-.26.99-.99z" fill="#5dbe8e"/><g fill="#231f20"><path d="m171.9 579.44a13.71 13.71 0 0 0 7.68 2.31c4.08 0 7.84-2.42 7.84-6.82 0-2.68-1.56-4.67-5.31-6.76-4.61-2.47-7.19-5.37-7.19-9.29 0-6.44 5.58-10.63 12.24-10.63a13.87 13.87 0 0 1 7.41 1.93l-1.61 3.59a12.32 12.32 0 0 0 -6.28-1.66c-4.45 0-7.14 3-7.14 5.9s1.83 4.61 5.58 6.71c4.45 2.36 6.92 5.2 6.92 9.66 0 6.28-4.94 11.16-13 11.16-3.65 0-7.19-1.18-8.7-2.47z"/><path d="m207.81 552.06-1.34 7h6.23l-.7 3.49h-6.23l-2.42 12.61a22.65 22.65 0 0 0 -.48 4.18 2.19 2.19 0 0 0 2.47 2.47 12.34 12.34 0 0 0 2.09-.16l-.21 3.49a10.35 10.35 0 0 1 -3.43.48c-4 0-5.47-2.42-5.47-5a24.12 24.12 0 0 1 .54-4.88l2.58-13.15h-3.76l.7-3.49h3.7l1.13-5.85z"/><path d="m230.19 585a66.9 66.9 0 0 1 .59-6.71h-.11c-2.84 5.37-6.39 7.3-10.09 7.3-4.56 0-7.46-3.65-7.46-8.59 0-9 6.65-18.57 18-18.57a24.27 24.27 0 0 1 7 1l-2.67 13.57a59.39 59.39 0 0 0 -1.13 12zm2.9-22.65a12.05 12.05 0 0 0 -3.09-.35c-6.71 0-12.18 7-12.24 14.22 0 2.9 1 5.74 4.45 5.74 3.7 0 8.11-4.83 9.39-11.75z"/><path d="m252.47 546.91-3.47 16.85h.11a11 11 0 0 1 9.13-5.31c5.69 0 7.84 4.72 7.84 9.34 0 7.94-5.74 17.82-16.16 17.82-4.56 0-8-1.88-8-6.71a25.44 25.44 0 0 1 .43-4l5.63-28zm-5.63 28.09a11.32 11.32 0 0 0 -.32 3.27c0 2.47 1.4 3.86 4.19 3.86 6.71 0 10.79-8 10.79-13.74 0-3.22-1.4-6.23-4.94-6.23-3.86 0-7.84 4-9.13 10.09z"/><path d="m269.17 585 5-26h4.45l-5 26zm5.8-33.22a3 3 0 0 1 3-3 2.58 2.58 0 0 1 2.63 2.79 2.94 2.94 0 0 1 -3 3 2.57 2.57 0 0 1 -2.6-2.78z"/><path d="m281.51 585 7.25-38.11h4.45l-7.3 38.11z"/><path d="m293.75 585 5-26h4.45l-5 26zm5.8-33.22a3 3 0 0 1 3-3 2.58 2.58 0 0 1 2.63 2.79 2.94 2.94 0 0 1 -3 3 2.57 2.57 0 0 1 -2.63-2.78z"/><path d="m303.9 582.28 12.61-14c2.2-2.42 3.65-3.76 5.37-5.42l.05-.16h-13.31l.7-3.65h18.68l-.59 3-12.41 13.79a62.83 62.83 0 0 1 -5.37 5.37v.16h14.37l-.7 3.65h-19.89z"/><path d="m346.79 583.51a17.92 17.92 0 0 1 -8.59 2c-6.87 0-9.87-4.67-9.87-10.41 0-7.84 5.8-16.69 14.17-16.69 4.94 0 7.62 3 7.62 6.65 0 6.82-7.68 8.64-17.28 8.48a10.72 10.72 0 0 0 .54 4.94 5.91 5.91 0 0 0 5.79 3.49 14.49 14.49 0 0 0 7-1.83zm-4.94-21.58c-4.24 0-7.41 4.13-8.48 8.21 7 .05 12.45-.86 12.45-4.88 0-2.14-1.61-3.32-3.97-3.32z"/><path d="m384 585a33.32 33.32 0 0 1 -2.47-3.33 14.21 14.21 0 0 1 -10.14 3.92c-6.28 0-9.82-4-9.82-9.07 0-5.64 4.51-9.5 9-11.65v-.16a13.83 13.83 0 0 1 -1.93-6.6 9.54 9.54 0 0 1 9.55-9.87c4.83 0 7.3 3.27 7.3 7.14 0 4.29-3.06 7.62-9.29 10.52v.16c2 3.38 4.62 7.35 6.49 10a35.19 35.19 0 0 0 5.47-10.84h4.19c-2 5.74-4.29 10.3-7.62 13.74 1.34 1.88 2.79 3.86 4.56 6zm-4.35-6.12c-1.66-2.53-4.83-6.93-7.51-11.43-2.36 1.45-6.07 4-6.07 8.43 0 3.49 2.31 6.23 6.44 6.23a9.69 9.69 0 0 0 7.13-3.21zm-7-21.26a11 11 0 0 0 1.72 5.74c4.4-2.09 6.93-4.45 6.93-7.89 0-2.09-1-4.08-3.6-4.08-2.78.03-5.04 2.61-5.04 6.25z"/><path d="m404.28 579.44a13.7 13.7 0 0 0 7.67 2.31c4.08 0 7.84-2.42 7.84-6.82 0-2.68-1.56-4.67-5.31-6.76-4.61-2.47-7.19-5.37-7.19-9.29 0-6.44 5.58-10.63 12.24-10.63a13.87 13.87 0 0 1 7.41 1.93l-1.61 3.59a12.3 12.3 0 0 0 -6.28-1.66c-4.45 0-7.14 3-7.14 5.9s1.83 4.61 5.58 6.71c4.46 2.36 6.93 5.2 6.93 9.66 0 6.28-4.94 11.16-13 11.16-3.65 0-7.19-1.18-8.7-2.47z"/><path d="m440.19 552.06-1.34 7h6.23l-.7 3.49h-6.22l-2.42 12.61a22.65 22.65 0 0 0 -.48 4.18 2.19 2.19 0 0 0 2.47 2.47 12.37 12.37 0 0 0 2.09-.16l-.21 3.49a10.35 10.35 0 0 1 -3.43.48c-4 0-5.48-2.42-5.48-5a24.15 24.15 0 0 1 .54-4.88l2.58-13.15h-3.82l.7-3.49h3.7l1.13-5.85z"/><path d="m451.63 559 2.58 14c.59 3 .91 4.88 1.18 6.81h.11c.7-1.66 1.45-3.49 2.79-6.33l6.6-14.49h4.72l-9.72 19.75c-2.79 5.64-5.42 10.2-9 13.63a16.25 16.25 0 0 1 -7.57 4.51l-1.07-3.81a17.33 17.33 0 0 0 4.77-2.53 20.09 20.09 0 0 0 5-6 1.84 1.84 0 0 0 .16-1.18l-5.18-24.36z"/><path d="m469.66 585 7.25-38.11h4.45l-7.3 38.11z"/><path d="m481.9 585 5-26h4.45l-5 26zm5.8-33.22a3 3 0 0 1 3-3 2.58 2.58 0 0 1 2.63 2.79 2.93 2.93 0 0 1 -3 3 2.57 2.57 0 0 1 -2.63-2.78z"/><path d="m492 582.28 12.61-14c2.2-2.42 3.65-3.76 5.37-5.42l.05-.16h-13.26l.7-3.65h18.68l-.59 3-12.46 13.79a61.87 61.87 0 0 1 -5.37 5.37v.16h14.39l-.7 3.65h-19.85z"/><path d="m534.93 583.51a17.91 17.91 0 0 1 -8.59 2c-6.87 0-9.87-4.67-9.87-10.41 0-7.84 5.79-16.69 14.17-16.69 4.94 0 7.62 3 7.62 6.65 0 6.82-7.68 8.64-17.28 8.48a10.76 10.76 0 0 0 .54 4.94 5.91 5.91 0 0 0 5.8 3.49 14.48 14.48 0 0 0 7-1.83zm-4.93-21.57c-4.24 0-7.41 4.13-8.48 8.21 7 .05 12.45-.86 12.45-4.88.03-2.15-1.61-3.33-3.97-3.33z"/></g></svg>