<svg viewBox="0 0 595.28 595.28" xmlns="http://www.w3.org/2000/svg"><path d="m72 446.6q3.34 1.53 10.73 1.53 2.52 0 5.28-.11t5.25-.29l4.31-.3q1.8-.11 2.39-.11 1.17 0 1 1.17l-.54 4.06a3.3 3.3 0 0 1 -1.31 2.59 6.65 6.65 0 0 1 -3.16 1.06q-2.66.27-6.81.38t-9.47.11a39.42 39.42 0 0 1 -12.67-1.69 15.55 15.55 0 0 1 -7.24-4.69 13.67 13.67 0 0 1 -2.91-7.31 37 37 0 0 1 .45-9.79 34.3 34.3 0 0 1 3.59-10.94 20.8 20.8 0 0 1 6.18-7 23.42 23.42 0 0 1 8.66-3.68 53.12 53.12 0 0 1 11.07-1.06 46.49 46.49 0 0 1 11.64 1.19 19 19 0 0 1 6.86 3.09 8 8 0 0 1 3 4.26 11.3 11.3 0 0 1 .2 4.76 14.9 14.9 0 0 1 -1.85 5.32 11.84 11.84 0 0 1 -3.72 3.81 21.36 21.36 0 0 1 -5.77 2.55 64.1 64.1 0 0 1 -8.1 1.71l-20.7 3.11q.26 4.74 3.64 6.27zm13.71-16.24a46.63 46.63 0 0 0 5.64-1.08 12.31 12.31 0 0 0 3.2-1.28 4.16 4.16 0 0 0 1.58-1.67 8.75 8.75 0 0 0 .68-2.25 3.6 3.6 0 0 0 -1.89-4.15q-2.39-1.31-8.61-1.31a36.18 36.18 0 0 0 -7.53.65 11.91 11.91 0 0 0 -4.91 2.19 9.51 9.51 0 0 0 -2.93 4 30 30 0 0 0 -1.62 6l-.22 1.44z" fill="#231f20"/><path d="m150.38 426.9-4.64 29a1.16 1.16 0 0 1 -1.26 1.08h-7.8q-1.08 0-.9-1.08l4.37-27.47q.86-5.32-1-7.08t-7.89-1.76q-4.6 0-7 .16a19.32 19.32 0 0 0 -3.7.52 1.8 1.8 0 0 0 -1.47 1.44l-5.46 34.19a1.13 1.13 0 0 1 -1.22 1.08h-7.62q-1.26 0-1.08-1.08l6.29-39.47a4.37 4.37 0 0 1 4-3.92 66.12 66.12 0 0 1 8.32-1.22q4.31-.36 10.85-.36 10.46 0 14.5 3.72t2.71 12.25z" fill="#231f20"/><path d="m152.82 474.16q-3.11-.36-2.61-3.43l.77-4c.09-.69.44-1 1-1q1.49.13 5.12.65a87.78 87.78 0 0 0 11.3.52 32.73 32.73 0 0 0 6.5-.52 8.74 8.74 0 0 0 4-1.85 7.93 7.93 0 0 0 2.28-3.45 28.12 28.12 0 0 0 1.2-5.19q-1.35.13-4.1.27t-6.31.14a42.58 42.58 0 0 1 -8.5-.81 15.08 15.08 0 0 1 -6.83-3.2 13.27 13.27 0 0 1 -4.08-6.7q-1.24-4.3-.11-11.34a51.66 51.66 0 0 1 2.37-9.65 20.6 20.6 0 0 1 4.56-7.44 19.41 19.41 0 0 1 7.94-4.78 39.24 39.24 0 0 1 12.38-1.67 70.57 70.57 0 0 1 8.61.47q3.83.47 7.44 1.24 3.38.41 2.88 3.74l-5.77 36.67a47.35 47.35 0 0 1 -2.75 10.62 18.27 18.27 0 0 1 -4.69 6.86 17.37 17.37 0 0 1 -7.28 3.72 43 43 0 0 1 -10.62 1.13q-5.41 0-9-.27a55.33 55.33 0 0 1 -5.7-.73zm31.08-27.51 3.92-25.21a1.23 1.23 0 0 0 -.82-1.44 24.46 24.46 0 0 0 -3.25-.45q-2.08-.18-4.6-.18a39.14 39.14 0 0 0 -6.92.52 10.06 10.06 0 0 0 -4.74 2.12 10.65 10.65 0 0 0 -3 4.51 40.25 40.25 0 0 0 -1.87 7.82 33.81 33.81 0 0 0 -.52 6.13 7.05 7.05 0 0 0 1.26 4.13 6.78 6.78 0 0 0 3.74 2.32 26.45 26.45 0 0 0 6.92.72q2.93 0 5.84-.27a19.78 19.78 0 0 0 4.04-.72z" fill="#231f20"/><path d="m207 456.66h-8.57q-1 0-.86-1.22l9-58.54q.77-5.14 5.41-5.14h5q1.17 0 1 1.22l-9.61 62.46a1.25 1.25 0 0 1 -1.37 1.22z" fill="#231f20"/><path d="m217.31 456.8c-.66 0-.95-.33-.86-1l6-39q.63-4.33 5-4.33h4.33q1 0 .86 1l-6.49 42.3a1 1 0 0 1 -1.13 1zm7.17-58.45q.95-5.91 6.67-5.91t4.74 5.91q-.89 5.65-6.53 5.65t-4.87-5.65z" fill="#231f20"/><path d="m258.76 439.34-11.54-3.34q-6.58-1.85-8.89-4.58t-1.58-7.38a14.72 14.72 0 0 1 5.93-9.67q5-3.86 15.67-3.86 5.55 0 8.43.27a43.77 43.77 0 0 1 4.83.68 4.6 4.6 0 0 1 2.28 1q.88.74.34 2.46l-.63 4.08a.84.84 0 0 1 -.9.81 14 14 0 0 1 -1.71-.14l-2.66-.34q-1.62-.2-4.17-.41t-6.43-.2a24.57 24.57 0 0 0 -7.89.95 4.31 4.31 0 0 0 -3 3.61q-.45 3 4.28 4.24l11.88 3.3q6 1.62 8.44 4.53t1.67 7.56a15 15 0 0 1 -6.29 10.42q-5.22 3.67-15.54 3.67a90.39 90.39 0 0 1 -9.38-.41 38.12 38.12 0 0 1 -6.45-1.17q-2.66-.77-2.17-3.83l.81-4.37a1 1 0 0 1 1-.95 19.9 19.9 0 0 1 5 1.19q3.65 1.19 11.5 1.2 5.68 0 8.34-1.33a5 5 0 0 0 3-3.72 2.46 2.46 0 0 0 -1.06-2.73 15.33 15.33 0 0 0 -3.11-1.54z" fill="#231f20"/><path d="m286.23 455.63a1.16 1.16 0 0 1 -1.26 1.08h-7.76c-.63 0-.89-.36-.77-1.08l9-58.18q.72-4.51 4.92-4.51h4.51c.72 0 1 .36.9 1.08l-2.8 18.17a52.5 52.5 0 0 1 6.43-.86q3.22-.23 6.79-.23 18.54 0 16.1 15.7l-4.42 28.82a1.16 1.16 0 0 1 -1.26 1.08h-7.61c-.75 0-1.07-.36-.95-1.08l4.2-27.24q.81-5.14-1.08-7-1.54-1.9-7.44-1.89a48.54 48.54 0 0 0 -10.91.95 2 2 0 0 0 -1.35 1.58z" fill="#231f20"/><path d="m342.92 456.84q-12.41 0-16.28-6.81-3.52-5.27-1.71-16.73 5.23-22 28.73-22l4.91.32a2.91 2.91 0 0 1 2.53 3.7l.32 3.74a1 1 0 0 1 -1 .9 61 61 0 0 0 -11-.43 17.28 17.28 0 0 0 -9.47 3.38q-4.19 3.09-5.37 10.4-1.49 9.29 1.53 12.09 2 3.07 9.7 3.07a36 36 0 0 0 4.35-.36q2.77-.36 4.67-.68a26 26 0 0 1 3.16-.32h.95q.9 0 .72 1.22l-.31 4.06a3.68 3.68 0 0 1 -3.65 3.38q-1.58.31-5.3.7a72.47 72.47 0 0 1 -7.48.37z" fill="#231f20"/><path d="m362 433q2-12.81 9.38-17.52a31.12 31.12 0 0 1 17.09-4.71q9.65 0 15.67 4.71t4 17.52a45.87 45.87 0 0 1 -2.41 9.45 21.12 21.12 0 0 1 -4.73 7.55 21.87 21.87 0 0 1 -7.9 5 33.33 33.33 0 0 1 -11.75 1.8q-7 0-11.21-1.8a13.74 13.74 0 0 1 -6.25-5 15.29 15.29 0 0 1 -2.37-7.51 43.62 43.62 0 0 1 .48-9.49zm36 0q1.13-7.22-1-10.48t-9.85-3.27q-7.76 0-10.94 3.27t-4.21 10.48q-1.4 9.2 1.15 12.22t9.58 3q7 0 10.48-3t4.87-12.22z" fill="#231f20"/><path d="m418.4 455.4a13.18 13.18 0 0 1 -5.66-3.18 7.5 7.5 0 0 1 -2.12-4.35 17.42 17.42 0 0 1 .14-4.83 12.11 12.11 0 0 1 5.32-8.61q4.33-2.8 12.18-4.28l6-.95q2.53-.41 4.22-.74t2.75-.61q1.06-.27 1.78-.54a2.75 2.75 0 0 0 1-.61 2.71 2.71 0 0 0 .5-1.29q.54-3.38-1.44-4.8t-7.71-1.42a77.86 77.86 0 0 0 -11.37.61 39.71 39.71 0 0 1 -5.14.61c-.54 0-.75-.31-.63-.95l.54-4a3.23 3.23 0 0 1 1.15-2.5 6 6 0 0 1 2.55-1q2.12-.27 5.75-.54t8.91-.27q10.19 0 14.25 3.72t2.63 12.57l-4.06 24.17a4.34 4.34 0 0 1 -4.06 3.79 69.56 69.56 0 0 1 -8.19.95q-4.44.27-8.82.27a35.57 35.57 0 0 1 -10.47-1.22zm24.51-20.47-16.77 3.07q-4.92.95-5.59 5-.59 3.38 2.28 4.53a22.13 22.13 0 0 0 8 1.15q2.75 0 5.71-.27a39.59 39.59 0 0 0 4.22-.54z" fill="#231f20"/><path d="m474.39 456.84q-12.41 0-16.28-6.81-3.52-5.27-1.71-16.73 5.23-22 28.73-22l4.91.32a2.91 2.91 0 0 1 2.53 3.7l.32 3.74a1 1 0 0 1 -1 .9 61 61 0 0 0 -11-.43 17.28 17.28 0 0 0 -9.47 3.38q-4.24 3.09-5.42 10.39-1.49 9.29 1.53 12.09 2 3.07 9.7 3.07a36 36 0 0 0 4.35-.36q2.77-.36 4.67-.68a26 26 0 0 1 3.16-.32h.95q.9 0 .72 1.22l-.31 4.06a3.68 3.68 0 0 1 -3.65 3.38q-1.58.31-5.3.7a72.47 72.47 0 0 1 -7.43.38z" fill="#231f20"/><path d="m502.26 455.63a1.16 1.16 0 0 1 -1.26 1.08h-7.76c-.63 0-.89-.36-.77-1.08l9-58.18q.72-4.51 4.92-4.51h4.51c.72 0 1 .36.9 1.08l-2.8 18.17a52.5 52.5 0 0 1 6.43-.86q3.22-.23 6.79-.23 18.54 0 16.1 15.7l-4.42 28.82a1.16 1.16 0 0 1 -1.26 1.08h-7.64c-.75 0-1.07-.36-.95-1.08l4.2-27.24q.81-5.14-1.08-7-1.54-1.9-7.44-1.89a48.54 48.54 0 0 0 -10.91.95 2 2 0 0 0 -1.35 1.58z" fill="#231f20"/><rect fill="#1f5072" height="217.32" rx="7.11" transform="matrix(.70710678 -.70710678 .70710678 .70710678 -73.88 277.17)" width="217.32" x="188.98" y="119.11"/><path d="m361.77 241.68-11.88 11.88-42.63 42.63-9.63 9.63-49.89-49.89 21.4-21.4 28.5 28.47 68.89-68.89-11.88-11.88-11.65 11.7-45.35 45.35-16.65-16.62 28.51-28.51-40.39-40.39-28.51 28.51-11.88 11.88 28.51 28.51-33.24 33.27 11.88 11.88 61.77 61.77 76-76zm-92.64-64.16 16.63 16.63-16.63 16.63-15.29-15.29-1.33-1.33z" fill="#5dbe8e"/><path d="m342.78 194.15.21-.22.83-.82z" fill="#5dbe8e"/><g fill="#231f20"><path d="m166 498.85a16.13 16.13 0 0 1 -6.42-3.12 6 6 0 0 1 -2-4.56 6.29 6.29 0 0 1 2.46-5.08 9.76 9.76 0 0 1 6.38-2 10.66 10.66 0 0 1 4.78 1 7.84 7.84 0 0 1 3.25 2.86 7.29 7.29 0 0 1 1.15 4h-3.45a4.75 4.75 0 0 0 -1.5-3.72 6.1 6.1 0 0 0 -4.23-1.35 6.23 6.23 0 0 0 -4 1.12 3.72 3.72 0 0 0 -1.42 3.1 3.35 3.35 0 0 0 1.35 2.69 13.25 13.25 0 0 0 4.59 2 21.15 21.15 0 0 1 5.07 2 7.68 7.68 0 0 1 2.71 2.56 6.54 6.54 0 0 1 .88 3.45 6.08 6.08 0 0 1 -2.46 5.06 10.51 10.51 0 0 1 -6.59 1.9 12.22 12.22 0 0 1 -5-1 8.4 8.4 0 0 1 -3.55-2.76 6.87 6.87 0 0 1 -1.26-4.05h3.44a4.48 4.48 0 0 0 1.74 3.72 7.33 7.33 0 0 0 4.65 1.37 6.73 6.73 0 0 0 4.16-1.11 3.59 3.59 0 0 0 1.44-3 3.53 3.53 0 0 0 -1.34-3 15.4 15.4 0 0 0 -4.83-2.08z"/><path d="m184 486.44v4.68h3.6v2.55h-3.6v12a2.68 2.68 0 0 0 .48 1.74 2 2 0 0 0 1.64.58 8 8 0 0 0 1.57-.21v2.66a9.64 9.64 0 0 1 -2.53.35 4.11 4.11 0 0 1 -3.34-1.34 5.76 5.76 0 0 1 -1.12-3.8v-12h-3.52v-2.55h3.52v-4.68z"/><path d="m203.42 510.44a7 7 0 0 1 -.46-2 7.36 7.36 0 0 1 -5.5 2.39 6.82 6.82 0 0 1 -4.69-1.61 5.23 5.23 0 0 1 -1.83-4.1 5.46 5.46 0 0 1 2.3-4.69 10.82 10.82 0 0 1 6.45-1.67h3.21v-1.52a3.71 3.71 0 0 0 -1-2.76 4.16 4.16 0 0 0 -3.05-1 4.82 4.82 0 0 0 -3 .89 2.64 2.64 0 0 0 -1.2 2.16h-3.32a4.55 4.55 0 0 1 1-2.79 7 7 0 0 1 2.78-2.13 9.36 9.36 0 0 1 3.86-.79 7.64 7.64 0 0 1 5.23 1.67 6 6 0 0 1 2 4.59v8.89a10.85 10.85 0 0 0 .68 4.23v.29zm-5.48-2.52a5.8 5.8 0 0 0 2.95-.8 4.87 4.87 0 0 0 2-2.09v-4h-2.59q-6.07 0-6.07 3.55a3 3 0 0 0 1 2.43 4 4 0 0 0 2.71.91z"/><path d="m227.73 501a11.49 11.49 0 0 1 -2 7.11 6.5 6.5 0 0 1 -5.46 2.69 6.73 6.73 0 0 1 -5.66-2.59l-.16 2.23h-3v-27.44h3.3v10.23a6.7 6.7 0 0 1 5.52-2.48 6.54 6.54 0 0 1 5.53 2.66 11.83 11.83 0 0 1 2 7.28zm-3.3-.38a8.93 8.93 0 0 0 -1.3-5.21 4.31 4.31 0 0 0 -3.75-1.84 4.85 4.85 0 0 0 -4.7 3v8.43a5 5 0 0 0 4.73 3 4.29 4.29 0 0 0 3.69-1.84 9.48 9.48 0 0 0 1.33-5.54z"/><path d="m231.91 486a2 2 0 0 1 .49-1.36 1.84 1.84 0 0 1 1.46-.55 1.86 1.86 0 0 1 1.46.55 2 2 0 0 1 .5 1.36 2 2 0 1 1 -3.91 0zm3.57 24.44h-3.3v-19.32h3.3z"/><path d="m244.35 510.44h-3.35v-27.44h3.3z"/><path d="m249.65 486a2 2 0 0 1 .49-1.36 1.84 1.84 0 0 1 1.46-.55 1.86 1.86 0 0 1 1.46.55 2 2 0 0 1 .5 1.36 2 2 0 1 1 -3.91 0zm3.57 24.44h-3.3v-19.32h3.3z"/><path d="m261.61 507.74h11.3v2.7h-15.33v-2.44l10.66-14.16h-10.5v-2.73h14.64v2.34z"/><path d="m284.36 510.79a8.44 8.44 0 0 1 -6.39-2.58 9.58 9.58 0 0 1 -2.47-6.9v-.6a11.61 11.61 0 0 1 1.1-5.13 8.58 8.58 0 0 1 3.07-3.53 7.72 7.72 0 0 1 4.28-1.28 7.24 7.24 0 0 1 5.86 2.48q2.09 2.48 2.09 7.11v1.37h-13.09a6.86 6.86 0 0 0 1.67 4.61 5.25 5.25 0 0 0 4.06 1.76 5.72 5.72 0 0 0 3-.71 7.41 7.41 0 0 0 2.13-1.89l2 1.57a8.11 8.11 0 0 1 -7.31 3.72zm-.41-17.32a4.41 4.41 0 0 0 -3.36 1.46 7.07 7.07 0 0 0 -1.68 4.08h9.68v-.25a6.29 6.29 0 0 0 -1.36-3.9 4.15 4.15 0 0 0 -3.28-1.38z"/><path d="m304.07 503.46a6.09 6.09 0 0 1 1-3.44 15.81 15.81 0 0 1 4-3.66 17.37 17.37 0 0 1 -2.32-3.39 6.58 6.58 0 0 1 1.16-7.19 6.58 6.58 0 0 1 4.75-1.68 6.4 6.4 0 0 1 4.43 1.56 5 5 0 0 1 1.75 3.94 5.55 5.55 0 0 1 -.79 2.9 10.36 10.36 0 0 1 -2.78 2.8l-1.91 1.41 5.78 6.91a11 11 0 0 0 1.21-5.16h3a12.47 12.47 0 0 1 -2.19 7.55l3.71 4.44h-4l-1.73-2.05a9.09 9.09 0 0 1 -3.1 1.8 11 11 0 0 1 -3.61.62 8.94 8.94 0 0 1 -6.11-2 6.74 6.74 0 0 1 -2.25-5.36zm8.41 4.64a6.94 6.94 0 0 0 4.8-2l-6.34-7.59-.59.43q-3 2.2-3 4.52a4.39 4.39 0 0 0 1.36 3.38 5.28 5.28 0 0 0 3.77 1.26zm-3-17.8q0 1.71 2.11 4.28l2.1-1.48a5.6 5.6 0 0 0 1.66-1.63 3.74 3.74 0 0 0 .45-1.88 2.56 2.56 0 0 0 -.9-2 3.25 3.25 0 0 0 -2.25-.79 2.91 2.91 0 0 0 -2.32 1 3.69 3.69 0 0 0 -.84 2.5z"/><path d="m344.72 498.85a16.13 16.13 0 0 1 -6.42-3.12 6 6 0 0 1 -2-4.56 6.29 6.29 0 0 1 2.46-5.08 9.76 9.76 0 0 1 6.38-2 10.66 10.66 0 0 1 4.78 1 7.84 7.84 0 0 1 3.25 2.86 7.29 7.29 0 0 1 1.15 4h-3.45a4.75 4.75 0 0 0 -1.5-3.72 6.1 6.1 0 0 0 -4.23-1.35 6.23 6.23 0 0 0 -4 1.12 3.72 3.72 0 0 0 -1.42 3.1 3.35 3.35 0 0 0 1.35 2.69 13.25 13.25 0 0 0 4.59 2 21.15 21.15 0 0 1 5.07 2 7.68 7.68 0 0 1 2.71 2.56 6.54 6.54 0 0 1 .88 3.45 6.08 6.08 0 0 1 -2.46 5.06 10.51 10.51 0 0 1 -6.59 1.9 12.22 12.22 0 0 1 -5-1 8.4 8.4 0 0 1 -3.58-2.81 6.87 6.87 0 0 1 -1.26-4.05h3.44a4.48 4.48 0 0 0 1.74 3.72 7.33 7.33 0 0 0 4.65 1.37 6.73 6.73 0 0 0 4.16-1.11 3.59 3.59 0 0 0 1.44-3 3.53 3.53 0 0 0 -1.34-3 15.4 15.4 0 0 0 -4.8-2.03z"/><path d="m362.71 486.44v4.68h3.6v2.55h-3.6v12a2.68 2.68 0 0 0 .48 1.74 2 2 0 0 0 1.64.58 8 8 0 0 0 1.57-.21v2.66a9.64 9.64 0 0 1 -2.53.35 4.11 4.11 0 0 1 -3.34-1.34 5.76 5.76 0 0 1 -1.12-3.8v-12h-3.52v-2.55h3.52v-4.68z"/><path d="m376.49 505.6 4.5-14.48h3.53l-7.77 22.3q-1.8 4.82-5.73 4.82l-.63-.05-1.23-.23v-2.68l.89.07a4.38 4.38 0 0 0 2.61-.68 4.9 4.9 0 0 0 1.55-2.48l.73-2-6.89-19.1h3.61z"/><path d="m391.06 510.44h-3.3v-27.44h3.3z"/><path d="m396.36 486a2 2 0 0 1 .49-1.36 1.84 1.84 0 0 1 1.46-.55 1.86 1.86 0 0 1 1.46.55 2 2 0 0 1 .5 1.36 2 2 0 1 1 -3.91 0zm3.57 24.44h-3.3v-19.32h3.3z"/><path d="m408.32 507.74h11.3v2.7h-15.33v-2.44l10.66-14.16h-10.5v-2.73h14.64v2.34z"/><path d="m431.06 510.79a8.44 8.44 0 0 1 -6.39-2.58 9.58 9.58 0 0 1 -2.47-6.9v-.6a11.61 11.61 0 0 1 1.1-5.13 8.58 8.58 0 0 1 3.07-3.53 7.72 7.72 0 0 1 4.28-1.28 7.24 7.24 0 0 1 5.86 2.48q2.09 2.48 2.09 7.11v1.37h-13.09a6.86 6.86 0 0 0 1.67 4.61 5.25 5.25 0 0 0 4.06 1.76 5.72 5.72 0 0 0 3-.71 7.41 7.41 0 0 0 2.13-1.89l2 1.57a8.11 8.11 0 0 1 -7.31 3.72zm-.41-17.32a4.41 4.41 0 0 0 -3.36 1.46 7.07 7.07 0 0 0 -1.68 4.08h9.68v-.25a6.29 6.29 0 0 0 -1.36-3.9 4.15 4.15 0 0 0 -3.28-1.38z"/></g></svg>