<svg viewBox="0 0 453.54 453.54" xmlns="http://www.w3.org/2000/svg" xmlns:xlink="http://www.w3.org/1999/xlink"><linearGradient id="a" gradientUnits="userSpaceOnUse" x1="14.17" x2="439.37" y1="226.77" y2="226.77"><stop offset="0" stop-color="#2f9c9b"/><stop offset="1" stop-color="#5dbe8e"/></linearGradient><clipPath id="b"><circle cx="226.77" cy="226.77" r="212.6"/></clipPath><circle cx="226.77" cy="226.77" fill="url(#a)" r="212.6"/><g clip-path="url(#b)"><path d="m338.1 349.77s-7.1-15.42-30.83-14.17c-10 .52-16.3.26-20.41-.75-12.39 19.27-32.15 43.29-53.39 42.72-25.38-.68-46-25.34-55.65-39.2l-24.72-1.52s-40.42 0-45.42 30.42-.38 42.72-.38 42.72 50.38 33.53 122.88 31.45 116.5-31 116.5-31 4.76-36.5-8.58-60.67z" fill="#1f5173"/><path d="m233.47 377.57c21.24.57 41-23.45 53.39-42.72-5.68-1.4-7.13-4.21-8-8.36l30.52-82.14s19.58-5.83 20-23.75-10.06-25.53-22.11-15.06c0 0 2.53-73.69-11.64-77.86s-128.33 0-128.33 0-24.91 27-12.25 77.88c0 0-23.17-12.46-18.17 23 0 0 1.25 19.17 18.75 23.75l32.06 73.69a13.12 13.12 0 0 1 -7.5 12.5l-2.36-.15c9.62 13.89 30.26 38.55 55.64 39.22z" fill="#cfe7ce"/><path d="m219.7 197.1a.61.61 0 0 0 -.59.63 100.84 100.84 0 0 1 -.3 15.55c0-.06 0-.11 0-.17-.39 3.89-1 7.76-1.69 11.61q-.57 3-1.25 6a17.93 17.93 0 0 1 -.75 2.37c-1.45 3.82-3.21 7.53-4.38 11.46a19.88 19.88 0 0 0 -.6 2.68 7.73 7.73 0 0 0 -.07 2.2 3.8 3.8 0 0 0 .69 1.76 5.88 5.88 0 0 0 1.58 1.41 9.4 9.4 0 0 0 2.18 1 17 17 0 0 0 2.68.63 35.48 35.48 0 0 0 6.17.38 47.3 47.3 0 0 0 6.06-.46 28.42 28.42 0 0 0 4.36-.86.76.76 0 0 0 .48-1 .77.77 0 0 0 -.36-.44.78.78 0 0 0 -.59 0l-.58.1a55.41 55.41 0 0 1 -6 .66 49.79 49.79 0 0 1 -7.73-.06h.18a20.18 20.18 0 0 1 -4.7-1 9.06 9.06 0 0 1 -1.49-.77 5.92 5.92 0 0 1 -.66-.59 2.79 2.79 0 0 1 -.29-.45 3.29 3.29 0 0 1 -.15-.52 7.4 7.4 0 0 1 0-1.4 22.69 22.69 0 0 1 .81-3.68c.43-1.46 1-2.89 1.49-4.32l.06-.15c.85-2.23 1.78-4.44 2.55-6.71.13-.39.26-.78.37-1.18.19-.68.31-1.38.46-2.07q.66-3.24 1.19-6.51 1-6.12 1.45-12.3a102.19 102.19 0 0 0 .06-13.2.61.61 0 0 0 -.6-.58m-4.57 36v.12zm-3.22 14.47a1.55 1.55 0 0 1 0 .2c0-.07 0-.14 0-.2m2.37-7.9v.12l.06-.16"/><path d="m210 66.34a34 34 0 0 0 -5.63.46 29.57 29.57 0 0 0 -10 3.63 27.13 27.13 0 0 0 -5.77 4.82l-1.12 1.21a38.89 38.89 0 0 1 -3.48 3.54l-.16.22a23.13 23.13 0 0 1 -2.5 1.47 14.23 14.23 0 0 1 -2.84.88 18 18 0 0 1 -3.08.24 35.3 35.3 0 0 1 -3.65-.21c-1.66-.17-3.26-.38-4.88-.6a80 80 0 0 0 -10.25-.9c-1.08 0-2.15 0-3.23.14a25.44 25.44 0 0 0 -4.24.81 19.1 19.1 0 0 0 -4.39 1.83 20.09 20.09 0 0 0 -3.63 2.69 26.77 26.77 0 0 0 -2.76 2.83 25.32 25.32 0 0 0 -3.78 5.91 23.4 23.4 0 0 0 -1.78 6.3 28.06 28.06 0 0 0 1.53 13 46.48 46.48 0 0 0 6.79 12.39 68.87 68.87 0 0 0 7.83 8.71c-.11 0-.22.14-.27.31-1.42 6.2-3 13.52-4 20.82a93.15 93.15 0 0 0 -.49 21.74 74.63 74.63 0 0 0 1.75 10c.8 3.28 1.77 6.51 2.61 9.27.54 1.75 1.07 3.49 1.58 5.24a8.8 8.8 0 0 0 -3.11-.53 9.58 9.58 0 0 0 -3.44.6 12.17 12.17 0 0 0 -6.17 5.54 24.9 24.9 0 0 0 -2.95 9.51 40.29 40.29 0 0 0 .24 11.23 38.36 38.36 0 0 0 1.77 7.08 33 33 0 0 0 3.32 6.78 20.09 20.09 0 0 0 11.27 8.7c-.33 3.29-.5 6.38-.52 9.41a74 74 0 0 0 .8 11.45 59.53 59.53 0 0 0 2.8 11 97.52 97.52 0 0 0 9.61 19.34c1.72 2.75 3.61 5.53 6.13 9 2.29 3.15 4.14 5.58 6 7.86a74.93 74.93 0 0 0 10.09 10v.32.4a8.42 8.42 0 0 1 -.48 1.87 8.31 8.31 0 0 1 -.75 1.31 7.67 7.67 0 0 1 -1.11 1.13 9.75 9.75 0 0 1 -1.78 1 15.7 15.7 0 0 1 -3.75.93 32 32 0 0 1 -4 .23c-2.47 0-5-.22-7.41-.44-2.78-.25-5.3-.39-7.81-.53-3.14-.16-5.72-.24-8.15-.24h-1a60.08 60.08 0 0 0 -17.62 2.44 36.21 36.21 0 0 0 -8 3.62 35.58 35.58 0 0 0 -7.22 5.83 40.43 40.43 0 0 0 -4.68 6 44.13 44.13 0 0 0 -3.57 7 57.91 57.91 0 0 0 -3.75 15.65 87.32 87.32 0 0 0 -.18 16.46c.12 1.62.29 3.24.48 4.85l.1.56v.31q.29 2.25.66 4.48c.3 1.65.63 3.32 1 5 .11.56.24 1.13.37 1.71a81.81 81.81 0 0 0 13.76 9.26 129.62 129.62 0 0 0 16.35 7.4 221.1 221.1 0 0 0 35.67 9.81c5.48 1.09 11.12 2 17.23 2.93 7.28 1.05 13.69 1.78 19.62 2.22s11.74.65 17.6.65a246.56 246.56 0 0 0 71.14-10.5c6.93-2.07 13.82-4.46 21.06-7.3 3.77-1.47 6.92-2.78 9.92-4.12a104.39 104.39 0 0 0 9.69-4.89c1.39-.8 2.81-1.68 4.35-2.71.7-.48 1.39-1 2.06-1.51.33-.26.63-.53.94-.81s.65-.58 1-.85a1.17 1.17 0 0 0 .44-1.07 100.5 100.5 0 0 0 1-17 115.25 115.25 0 0 0 -1.83-18.42 81.51 81.51 0 0 0 -5.06-17.34 58 58 0 0 0 -3.83-7.51 29.22 29.22 0 0 0 -5.52-6.74 26.43 26.43 0 0 0 -9.93-5.39 48.33 48.33 0 0 0 -11.75-1.78c-2-.1-4-.11-5.95-.11h-3.48-5.19a66.16 66.16 0 0 1 -8.33-.39 20 20 0 0 1 -4.57-1.12 11.47 11.47 0 0 1 -2.21-1.28 8.84 8.84 0 0 1 -1.14-1.18 9.31 9.31 0 0 1 -.9-1.55 11.49 11.49 0 0 1 -.59-2.29 10.78 10.78 0 0 1 1.28-1.67 131.28 131.28 0 0 0 11.64-15.54 126.73 126.73 0 0 0 9.14-17 106.24 106.24 0 0 0 6.06-17.46 103.41 103.41 0 0 0 2.7-21.15c.1-2.65.12-5.28.11-7.93 0 .07.09.09.24.09a2.15 2.15 0 0 0 .36 0 26.65 26.65 0 0 0 7.82-3.22 25.18 25.18 0 0 0 6-5.29 29 29 0 0 0 6.23-14.84 29.68 29.68 0 0 0 0-8.23 22.78 22.78 0 0 0 -2.56-7.35 18.83 18.83 0 0 0 -4.63-5.68 12.23 12.23 0 0 0 -2.68-1.65 9.81 9.81 0 0 0 -3.18-.78h-.42a8.67 8.67 0 0 0 -4.57 1.47 11.48 11.48 0 0 0 -2 1.6c.47-3.61 1.23-10.83 1.52-18.41a126.25 126.25 0 0 0 -1-22.27 94.27 94.27 0 0 0 -2.39-11.72c-.49-1.83-1.09-3.77-1.78-5.77a39.5 39.5 0 0 0 -2.16-5.06c.56-1.67 1.18-3.36 1.81-5.06l.34-.95.59-1.6a35.94 35.94 0 0 0 2-8.06 35.83 35.83 0 0 0 -.1-7.48 49.1 49.1 0 0 0 -1.16-6.95 26.09 26.09 0 0 0 -6.07-12 15.54 15.54 0 0 0 -2.42-2.08 17.35 17.35 0 0 0 -1.73-1.08 8.87 8.87 0 0 0 -1.86-.76 9.9 9.9 0 0 0 -2.8-.42h-1.28c-.67 0-1.32 0-2-.06-.41 0-.75-.09-1.08-.13-.64-.1-1.28-.18-1.93-.22-.43 0-.58 0-.72 0h-.38a11.47 11.47 0 0 1 -.91-.9l-.41-.42a44.59 44.59 0 0 0 -3.73-3.33 31.93 31.93 0 0 0 -8-4.52c-5.22-2.11-10.85-3.12-16.29-4.11l-1.88-.35c-2.62-.48-6.05-1.14-9.37-2-3.1-.85-6.15-2-9.09-3.1l-.55-.19-.84-.31c-6.32-2.37-12.85-4.82-19.69-5.75a40.89 40.89 0 0 0 -5.15-.35m33.94 86.11h1.07a21.38 21.38 0 0 0 4.7-.81 14.91 14.91 0 0 0 4.07-2l.84-.53a29.23 29.23 0 0 1 3.15-1.85 7.44 7.44 0 0 1 1.62-.51 5.81 5.81 0 0 1 .78-.06h.35a6.55 6.55 0 0 1 1.53.36 24.17 24.17 0 0 1 4.25 2.51c.74.52 1.44 1 2.16 1.44a12.9 12.9 0 0 0 2.34 1.13 26.22 26.22 0 0 0 8.94 1.75h.82c6.07 0 11.57-2.1 15.1-5.76 2.76 13.93 4.87 24.66 6.38 35.92l.11-.26c2.18 17.43 2.46 30.64.86 42.84a73.87 73.87 0 0 1 -4.8 18.74l-.08.26a49.07 49.07 0 0 1 -5.7 9.72 52.52 52.52 0 0 1 -8.93 8.8 140 140 0 0 1 -15 9.56l-.36.21a7 7 0 0 0 -.72-1.56 19.69 19.69 0 0 0 -1.84-2.54 25.13 25.13 0 0 0 -4.47-4 29.1 29.1 0 0 0 -5.2-3 35.27 35.27 0 0 0 -6.13-2.19 35.79 35.79 0 0 0 -6-1 25.1 25.1 0 0 0 -2.57-.12 32.64 32.64 0 0 0 -3.45.2 28.72 28.72 0 0 0 -11 3.54 31.47 31.47 0 0 0 -5.18-1.2 43.78 43.78 0 0 0 -5.37-.5h-1.13a37.52 37.52 0 0 0 -9.82 1.32 30.42 30.42 0 0 0 -9.8 4.62 28.15 28.15 0 0 0 -7.26 7.69 6.9 6.9 0 0 0 -.95-.42l-1-.38a39.88 39.88 0 0 1 -8.59-4.94 38.61 38.61 0 0 1 -6.33-6.36 46.57 46.57 0 0 1 -5.7-9.78 69 69 0 0 1 -4.67-17.8l-.09.38c-.06-1.37-.18-2.75-.3-4.12l-.12-1.37-.1-1c-.26-2.63-.54-5.25-.85-7.88l-.54-4.75c-.41-3.5-.81-7-1.16-10.5-.87-8.8-1.58-19.22-.22-29.79a76.19 76.19 0 0 1 1.62-8.35 63.28 63.28 0 0 1 2.9-8.64 64.66 64.66 0 0 1 5.92-10.86 36.85 36.85 0 0 0 7.12 2.6 46.64 46.64 0 0 0 9.37 1.37h2a59.71 59.71 0 0 0 7.41-.51c3.63-.48 7.27-1.23 10.8-2l.35-.07c2.31-.48 4.54-.94 6.76-1.32 1.73-.3 3.17-.54 4.65-.65.59 0 1.19-.08 1.79-.08.84 0 1.7 0 2.54.12a64.11 64.11 0 0 1 9.88 2l.74.2a71.94 71.94 0 0 0 8.94 2 32.33 32.33 0 0 0 3.68.24m65.39 64.93c.22-4.72.46-8.2.79-11.25v-.47c.19-.23.38-.49.57-.75l.18-.25a15.13 15.13 0 0 1 2-2.06 10 10 0 0 1 1.84-1.13 7.38 7.38 0 0 1 1.57-.42 5.3 5.3 0 0 1 .69 0 6.23 6.23 0 0 1 .75 0 8.51 8.51 0 0 1 1.62.42 11.82 11.82 0 0 1 2.06 1.22 15.71 15.71 0 0 1 2.38 2.41 22 22 0 0 1 2.63 4.55 23.33 23.33 0 0 1 1.41 5l.12.24a33.44 33.44 0 0 1 -.18 6.94 30.81 30.81 0 0 1 -1.93 7 28.21 28.21 0 0 1 -3.27 5.62 25.18 25.18 0 0 1 -4.11 4.12 27.19 27.19 0 0 1 -5.51 3.2c-1 .38-2 .71-3.26 1.07 0-2.74 0-5.54-.09-8.34l-.11-4.68c-.06-2.61-.1-5.23-.1-7.84l.39-1a20.66 20.66 0 0 1 2.39-4.06 22.09 22.09 0 0 1 3.78-3.72 28.81 28.81 0 0 1 2.85-1.81.88.88 0 0 0 .43-.55 1 1 0 0 0 -.08-.77 1 1 0 0 0 -.84-.5.9.9 0 0 0 -.5.15 24.72 24.72 0 0 0 -6.68 5.19 15.88 15.88 0 0 0 -1.77 2.38m-171.42-.1a27.15 27.15 0 0 1 1.65-6 16 16 0 0 1 1.62-2.85 11.22 11.22 0 0 1 1.76-1.8 11.54 11.54 0 0 1 1.46-.86 8.27 8.27 0 0 1 2-.52 6.91 6.91 0 0 1 .91 0 9.7 9.7 0 0 1 1.25.09 13.69 13.69 0 0 1 2.5.64 86.16 86.16 0 0 1 2.02 10.07c.13 1 .24 2.06.31 3.12a8.49 8.49 0 0 0 -1.89-2.38 13.22 13.22 0 0 0 -3.2-2.26 14.91 14.91 0 0 0 -3.83-1.33c-.69 0-1.1.24-1.23.7a1.08 1.08 0 0 0 .12.82 1 1 0 0 0 .59.43 16 16 0 0 1 2.49.74 15.55 15.55 0 0 1 2.62 1.54 16.08 16.08 0 0 1 2.41 2.41 17.44 17.44 0 0 1 2.06 3.53c0 1.1 0 2.22-.1 3.33-.17 4.07-.59 8.14-1 11.63l-.33 3c-.31 2.77-.6 5.35-.85 7.94a35 35 0 0 1 -3.31-2.22 22.77 22.77 0 0 1 -3.69-3.72l-.2-.2a32 32 0 0 1 -3.55-6.29 40.54 40.54 0 0 1 -2.62-9.79 39.86 39.86 0 0 1 0-9.8zm81.47 74.49a16.46 16.46 0 0 1 -3.92-.74 44.82 44.82 0 0 1 -5.81-2.43c-1.82-.9-3.71-2-5.61-3.15-1.19-.77-2.16-1.44-3.11-2.16-.46-.34-.77-.59-1.07-.86a39 39 0 0 0 14.08-4.24 67.26 67.26 0 0 0 13.79-9.25c3.66 2.93 6.57 5.16 9.68 7.22l-.7.23c-.56.22-1.12.45-1.71.66-1.13.39-2.3.68-3.25.9a33.35 33.35 0 0 1 -4.41.56c-.79.05-1.59.09-2.38.09s-1.74 0-2.61-.09c-1.74-.11-3.52-.3-5.43-.59a.73.73 0 0 0 -.8.57.7.7 0 0 0 .12.51.8.8 0 0 0 .43.28c2.15.31 4 .5 5.68.6.89 0 1.77.06 2.65.06 1.1 0 2.19 0 3.28-.12a30.86 30.86 0 0 0 5.52-1 25 25 0 0 0 4.85-1.9c.65.47 1.4.92 2.15 1.36a41.91 41.91 0 0 0 7.58 3.48 32.11 32.11 0 0 0 3.83 1.08 29 29 0 0 0 3 .42 1.62 1.62 0 0 0 -.57.4l-.27.24a44.56 44.56 0 0 1 -9 6.23 30 30 0 0 1 -6.65 2.58 15.22 15.22 0 0 1 -3 .32 9.8 9.8 0 0 1 -2.05-.3 6.22 6.22 0 0 1 -1.23-.59 6 6 0 0 1 -.84-.72 7.9 7.9 0 0 1 -.81-1.16 10.12 10.12 0 0 1 -.64-1.75l-.07-.36-.08-.36a1 1 0 0 0 -1-.9l-.23-.06-.48-.13a4.48 4.48 0 0 0 -1.07-.14h-.54a7.92 7.92 0 0 0 -1.59.2 10.46 10.46 0 0 0 -1.42.49.59.59 0 0 0 -.3.19.82.82 0 0 0 -.3.22 1.05 1.05 0 0 0 -.24.73 6.39 6.39 0 0 1 -.26 1.69 4.16 4.16 0 0 1 -.3.63c-.09.12-.2.25-.31.39a3.18 3.18 0 0 1 -.48.33 4 4 0 0 1 -.77.28 11.19 11.19 0 0 1 -1.37.09m15.3 57.42a49.78 49.78 0 0 0 17.26-3 45.42 45.42 0 0 0 7.72-3.68 66.59 66.59 0 0 0 7.18-5 92.38 92.38 0 0 0 10.14-9.31v.28a9 9 0 0 0 2.51 4.29 10.07 10.07 0 0 0 3.1 2l-.74 1-.52.74a128.38 128.38 0 0 1 -22.83 24.13 149.35 149.35 0 0 1 -12.07 8.91q-3.1 2-6.28 4-1.54.94-3.11 1.86l-.85.5-.85.51-.47.28-.29.17c-.31.19-.61.37-.93.54l-.28.23a12 12 0 0 0 -1.17-.71l-1-.57c-.47-.27-.92-.55-1.39-.84l-.8-.49-2.94-1.8-1.45-.88c-5.63-3.48-12.24-7.66-18.59-12.28a122.93 122.93 0 0 1 -16.93-14.54 72.35 72.35 0 0 1 -6.48-7.86 5.1 5.1 0 0 0 1.15-.56 7.87 7.87 0 0 0 3.2-3.78 9.34 9.34 0 0 0 .53-2.06c0 .09.07.17.19.25a85.86 85.86 0 0 0 30.94 15.5 62.23 62.23 0 0 0 16 2.15m27.35 49.56a7.93 7.93 0 0 0 2-.3 9.13 9.13 0 0 0 2.41-1.1 12.7 12.7 0 0 0 2.09-1.62 19 19 0 0 0 2.11-2.3 41.77 41.77 0 0 0 3.72-5.71 100.59 100.59 0 0 0 4.84-10.5c.74-1.82 1.44-3.67 2.14-5.51l.39-1 1.14-3q.31-.83.66-1.65l.28-.68c.31-.78.63-1.55.93-2.32a80.35 80.35 0 0 0 2.71-8.63c.65-2.54 1.23-5.26 1.88-8.82.5-2.81.94-5.73 1.29-8.68v-.37c1.54.09 3.1.13 4.66.15h7 2.26a88.45 88.45 0 0 1 12 .62 35.3 35.3 0 0 1 8.49 2.21 22.95 22.95 0 0 1 9.38 7.31 44.66 44.66 0 0 1 5.27 9.4 88.79 88.79 0 0 1 5.74 22.24 131.38 131.38 0 0 1 1.1 15.26 129.07 129.07 0 0 1 -.57 14.14c-1.41.75-2.73 1.57-4.06 2.39l-.91.56c-1.71 1.06-3.46 2.07-5.21 3-3.63 2-7.41 4-11.21 5.71-3.37 1.55-7.18 3.13-11.64 4.85-4.18 1.58-8.33 3-12.33 4.31h.31a262.31 262.31 0 0 1 -31 7.55 243.53 243.53 0 0 1 -31.87 3.58c-3.45.14-7 .22-10.44.22a245.28 245.28 0 0 1 -30.56-1.92c-11.32-1.42-21.59-3.19-31.4-5.41a217.62 217.62 0 0 1 -21.43-6 139.89 139.89 0 0 1 -20.45-8.69 86.05 86.05 0 0 1 -15-10c-.49-2.58-.88-4.92-1.18-7.14a94.46 94.46 0 0 1 -.28-24.77 58.31 58.31 0 0 1 3.92-14.71 43.78 43.78 0 0 1 5.23-9 36.41 36.41 0 0 1 6.21-6.24 36.85 36.85 0 0 1 7.22-4.22 43.63 43.63 0 0 1 5.65-1.93 53.22 53.22 0 0 1 6-1.17 79.78 79.78 0 0 1 10.44-.61c2.33 0 4.71.06 7.7.2 2.42.11 4.83.25 7.24.42 2 .14 3.94.29 5.92.33h1.78c2.28 6.66 4.91 13.92 8 22.18q2.11 5.63 4.29 11.23l1.46 3.78.41 1.06.55 1.43c.56 1.44 1.12 2.87 1.66 4.31l.8 2.14c.62 1.67 1.24 3.33 1.91 5a22.7 22.7 0 0 0 2.69 5.07 8.8 8.8 0 0 0 1.55 1.64 6.93 6.93 0 0 0 2.07 1.15 6.58 6.58 0 0 0 2.24.38 11 11 0 0 0 2.89-.4 18.09 18.09 0 0 0 2.65-.9 36.07 36.07 0 0 0 3.35-1.59c.9-.48 1.8-1 2.69-1.5l1.34-.76c1.4-.79 2.78-1.58 4.17-2.39 2.25-1.32 5.33-3.12 8.19-5 1.3-.88 2.57-1.81 3.78-2.76a42 42 0 0 0 3.58-3.09l2.41 2.19.76.69.55.5c1.8 1.64 3.61 3.27 5.45 4.86 2.17 1.86 4.17 3.47 6.1 4.9a39.49 39.49 0 0 0 6 3.79 14 14 0 0 0 5.47 1.66h.42"/><path d="m269.23 204.34c-.4 0-.81 0-1.21 0a37.48 37.48 0 0 0 -9.09 1.41 31.52 31.52 0 0 0 -7.54 3.19.79.79 0 0 0 .39 1.47.76.76 0 0 0 .37-.1 33.74 33.74 0 0 1 3.93-1.84 40.28 40.28 0 0 1 5.41-1.61 16.38 16.38 0 0 0 -.3 3.57 19.79 19.79 0 0 0 .5 4.45 9.57 9.57 0 0 0 1.6 3.66 4.5 4.5 0 0 0 .65.7 4.66 4.66 0 0 0 .73.53 4.19 4.19 0 0 0 1.55.5h.54a5 5 0 0 0 1.6-.26 5.6 5.6 0 0 0 1.81-.91 7.65 7.65 0 0 0 2.44-3.82 17.58 17.58 0 0 0 .76-5.17 17.8 17.8 0 0 0 -.42-4.15l2.06.28a24.17 24.17 0 0 1 5.57 1.64 18.2 18.2 0 0 1 3.42 2.12.5.5 0 0 0 .31.1.68.68 0 0 0 .56-.31.62.62 0 0 0 .08-.48.72.72 0 0 0 -.29-.4 21.32 21.32 0 0 0 -7.68-3.64 31.56 31.56 0 0 0 -7.81-1m-3.35 1.8h.45.46a14.15 14.15 0 0 1 -.08 2 6.73 6.73 0 0 1 -.36 1.33 4.11 4.11 0 0 1 -.36.62l-.22.22-.23.12-.2-.09-.18-.06a2.19 2.19 0 0 0 -.11-.27 4.56 4.56 0 0 1 -.22-.85 8.39 8.39 0 0 1 0-1.84c0-.19.09-.54.16-.91a5.41 5.41 0 0 1 .87-.16z"/><path d="m185.75 205a31.9 31.9 0 0 0 -7.81 1 21.37 21.37 0 0 0 -7.68 3.64.76.76 0 0 0 -.29.4.63.63 0 0 0 .08.48.67.67 0 0 0 .56.31.5.5 0 0 0 .32-.11 18.69 18.69 0 0 1 3.39-2 24.69 24.69 0 0 1 5.68-1.72h-.18.18c.69-.1 1.38-.19 2.08-.26a15.93 15.93 0 0 0 -.45 4.12 17.4 17.4 0 0 0 .76 5.17 7.63 7.63 0 0 0 2.44 3.82 5.55 5.55 0 0 0 1.81.91 5.06 5.06 0 0 0 1.6.26h.54a4.14 4.14 0 0 0 1.55-.5 4.85 4.85 0 0 0 .67-.52 4.39 4.39 0 0 0 .65-.7 9.48 9.48 0 0 0 1.6-3.66 19.92 19.92 0 0 0 .5-4.44 19.1 19.1 0 0 0 -.27-3.61 45.83 45.83 0 0 1 5.58 1.72 31.05 31.05 0 0 1 3.73 1.75.76.76 0 0 0 .38.1.79.79 0 0 0 .39-1.47 31.59 31.59 0 0 0 -7.54-3.2 37.68 37.68 0 0 0 -9.09-1.41h-1.21m-.5 4.54s0 0 0 0 0 0 0-.06a8.31 8.31 0 0 1 0-1.52c.06-.43.16-.85.26-1.26a5.29 5.29 0 0 1 .93-.07h.93c0 .42-.05.86-.09 1.3a9.27 9.27 0 0 1 -.42 1.71 4.08 4.08 0 0 1 -.37.66 3 3 0 0 1 -.29.3l-.27.12h-.24a1.75 1.75 0 0 1 -.28-.41 4.63 4.63 0 0 1 -.19-.72"/><path d="m197.41 173.28c-1.07 0-2.13 0-3.18.12a59.25 59.25 0 0 0 -6.08.74 77.51 77.51 0 0 0 -11.15 2.75c-1.57.51-2.93 1-4.15 1.56-.57.26-1.13.53-1.7.82-1 .51-2.06 1-3.06 1.6a19.26 19.26 0 0 0 -2.83 1.93 8.37 8.37 0 0 0 -2.12 2.47 4.3 4.3 0 0 0 -.45 1.33 7.2 7.2 0 0 0 -.23 1.7 5.37 5.37 0 0 0 .23 1.66 3.69 3.69 0 0 0 .19.54 2.91 2.91 0 0 0 .34.61c.2.28.27.33.37.38a.75.75 0 0 0 .61.3.94.94 0 0 0 .44-.12l1.18-.66 1.18-.66c.82-.44 1.66-.85 2.51-1.26a57.48 57.48 0 0 1 6.75-2.61 54.29 54.29 0 0 1 7.07-1.69 71 71 0 0 1 11.55-.9c5.51.38 10.9.79 16.17 1.59a.61.61 0 0 0 .55-.3.89.89 0 0 0 .34-.51 14.57 14.57 0 0 0 .06-2.53 9 9 0 0 0 -.52-2.35 7.9 7.9 0 0 0 -2.46-3.42 11.7 11.7 0 0 0 -4-2.06 22.38 22.38 0 0 0 -5.08-.9c-.87-.08-1.74-.1-2.61-.1"/><path d="m257.53 172.09c1.06-.12 2.12-.19 3.18-.22a58.89 58.89 0 0 1 6.13.07 76.91 76.91 0 0 1 11.36 1.51c1.62.34 3 .7 4.29 1.09.6.19 1.19.41 1.78.63 1.08.4 2.16.81 3.21 1.26a18.84 18.84 0 0 1 3 1.61 8.39 8.39 0 0 1 2.38 2.22 4.26 4.26 0 0 1 .59 1.28 7.14 7.14 0 0 1 .41 1.66 5.32 5.32 0 0 1 0 1.67 3.48 3.48 0 0 1 -.13.55 3.17 3.17 0 0 1 -.27.64c-.16.3-.24.36-.33.42a.74.74 0 0 1 -.57.36.9.9 0 0 1 -.45-.07l-1.25-.53-1.25-.53c-.87-.35-1.75-.67-2.63-1a56.92 56.92 0 0 0 -7-1.85 54.63 54.63 0 0 0 -7.22-.9 71 71 0 0 0 -11.58.36c-5.44 1-10.75 2-15.9 3.35a.62.62 0 0 1 -.59-.25.87.87 0 0 1 -.39-.47 14.16 14.16 0 0 1 -.34-2.51 9.05 9.05 0 0 1 .25-2.39 7.93 7.93 0 0 1 2.07-3.67 11.7 11.7 0 0 1 3.74-2.49 22.73 22.73 0 0 1 4.94-1.44c.85-.17 1.72-.3 2.59-.39"/><path d="m162 195.19a2 2 0 0 0 -2 2c0 .93 0 1.86.08 2.78 0 1.28.07 2.54.1 3.82q.1 4.1.15 8.18c.06 4.2.07 8.4.07 12.6v4.05a1.64 1.64 0 0 0 1.62 1.62h25.89c4 0 8.09 0 12.13.07h13.51a1.72 1.72 0 0 0 1.71-1.71q0-7.49-.06-15c0-2.74-.07-5.5 0-8.24s.07-5.48.07-8.22a1.71 1.71 0 0 0 -1.7-1.7c-2.11 0-4.23 0-6.34 0h-6.09c-4.56 0-9.12 0-13.67-.08-4.36 0-8.72 0-13.08-.08-2.32 0-4.64-.1-7-.12-1.41 0-2.82-.06-4.23-.06h-1.16m5 4c2.28 0 4.54-.07 6.82-.12 4.52-.1 9 0 13.56-.09s8.85-.06 13.28-.08h11.13c0 2 0 4 .06 6.07.07 2.76 0 5.53 0 8.31 0 2.38-.06 4.77-.06 7.16q0 3.24 0 6.5-5.7 0-11.38 0c-4.18 0-8.36.06-12.55.06h-24.26c0-.67 0-1.35 0-2q0-6.49.07-13c0-2.6.09-5.19.14-7.79 0-1.3.07-2.58.1-3.88 0-.37 0-.75 0-1.11h3.1"/><path d="m243.49 194.48a2.19 2.19 0 0 0 -2.17 2.16v3.83s.08 2.4.12 3.6q.13 3 .22 6v1.76c0 5.43-.07 10.86-.2 16.29a2 2 0 0 0 2 2c.85 0 1.7 0 2.56.06h3l6.65-.1c4.43-.07 8.87-.09 13.3-.13 4.64 0 9.29-.14 13.93-.13h12.06a1.77 1.77 0 0 0 1.76-1.75c0-.4 0-.79 0-1.18a2.12 2.12 0 0 0 .32-.67 4.51 4.51 0 0 0 .1-1.07c0-.58 0-1.15 0-1.72 0-1.17.09-2.33.11-3.5 0-1.44 0-2.87 0-4.31s0-2.9.06-4.35c0-2.61 0-5.22 0-7.83 0-1.31 0-2.63 0-3.94 0-.55 0-1.11 0-1.67 0-.31 0-.62 0-.93a3.25 3.25 0 0 0 -.42-1.38 2.07 2.07 0 0 0 -.79-.8h-.2c-1.19 0-2.39 0-3.57 0-.28 0-.55 0-.83 0l-1.41.08h-.81-1.42c-2.11 0-4.2-.06-6.31-.06-3 0-6 0-9 .06h-1.92l-13.79-.1c-2.29 0-4.57-.07-6.87-.1-1.09 0-2.18 0-3.28 0h-3.28m48.55.43h.14-.1m-9.48 3.74c1.67 0 3.33 0 5-.05h1.84.43c.9 0 1.82.08 2.72.15h.1v.37 4q0 4.09 0 8.16c0 2.74.06 5.5.08 8.24 0 1.2 0 2.4.1 3.6v1.76a5.91 5.91 0 0 0 .1 1.36v.1c-3.19 0-6.38 0-9.58 0-4.63 0-9.26-.08-13.9-.13-4.45 0-8.9-.07-13.35-.12l-6.66-.1c-1 0-2.09 0-3.12 0h-.9c-.1-4.75-.15-9.48-.15-14.22 0-.69 0-1.38 0-2.08.06-1.79.12-3.58.21-5.37.06-1.14.08-2.29.12-3.44 0-.68 0-1.38 0-2.08h4l6.86-.1c4.58-.07 9.16-.08 13.76-.1h2.83c2.69 0 5.38.05 8.08.06z"/><path d="m294 194.85a1.87 1.87 0 0 0 -1.11 2.73 1.81 1.81 0 0 0 .19.26v7.06 8.39s.06 5.55.1 8.34v2.79.12c0 .5 0 1-.06 1.5-1 0-2.07 0-3.11 0-1.58 0-3.15-.05-4.73 0-4.44.11-8.87.16-13.32.14s-9 .07-13.44.12c-1.85 0-3.69.06-5.53.13l-2.75.09h-1.25-.46-.3a1.06 1.06 0 0 0 -.44.06 1.41 1.41 0 0 0 -.54.3l-.1.09a1.54 1.54 0 0 0 -.45 1.08 1.57 1.57 0 0 0 .45 1.1 1.49 1.49 0 0 0 .24.19 1.38 1.38 0 0 0 .25.14 1.2 1.2 0 0 0 .6.12h.2.32 1.14l2.78.1c1.8.05 3.6.11 5.4.13q6.74.1 13.49.12h6.31c2.36 0 4.72.08 7.08.14h4.79c1.78-.06 3.56 0 5.33 0a2.09 2.09 0 0 0 2.08-2.08 4.34 4.34 0 0 0 -.08-.72c-.06-.83-.06-1.66-.09-2.49 0-.18 0-.36 0-.55.05-2.66.09-5.32.12-8 0-3.27 0-6.54 0-9.82 0-1.66 0-3.32 0-5s0-3.26 0-4.89a2 2 0 0 0 -2-2 3 3 0 0 0 -1 .15"/><path d="m213.37 209.47a1.85 1.85 0 0 0 -.49 2.55 1.87 1.87 0 0 0 2.56.49c.38-.24.77-.46 1.17-.67a21.86 21.86 0 0 1 4.45-1.53 34.84 34.84 0 0 1 8.69-.6 43.87 43.87 0 0 1 10.87 2.14l1.74.56a1.33 1.33 0 0 0 1.12-2.31 15.78 15.78 0 0 0 -3-1.75 24.75 24.75 0 0 0 -3.59-1.28 35.18 35.18 0 0 0 -8.2-1.26c-.47 0-1 0-1.43 0a26 26 0 0 0 -13.86 3.71"/><path d="m295.09 224.62c-.09 1.08-.14 2.16-.16 3.23a.56.56 0 0 0 .22.41.58.58 0 0 0 .45.13.56.56 0 0 0 .41-.22.62.62 0 0 0 .13-.45c0-.14 0-.29 0-.44v.16c0-.89.08-1.76.14-2.64a.62.62 0 0 0 -.51-.7h-.09a.61.61 0 0 0 -.61.51"/><path d="m295.84 224.65a.64.64 0 0 0 -.41.22.69.69 0 0 0 -.13.45v.46a.89.89 0 0 1 0-.16c0 .3 0 .6-.07.9a8.65 8.65 0 0 1 -.16.87.6.6 0 0 0 .51.7.61.61 0 0 0 .7-.51c0-.14.07-.3.1-.44a7 7 0 0 0 .11-.9 7.67 7.67 0 0 0 0-1 .61.61 0 0 0 -.62-.56"/><path d="m295.9 224.54a.62.62 0 0 0 -.41.22.59.59 0 0 0 -.13.45v.84a18 18 0 0 1 -.18 1.94.61.61 0 1 0 1.2.19c.09-.55.13-1.1.17-1.66s0-.94 0-1.41a.6.6 0 0 0 -.61-.55h-.05"/><path d="m296.06 224.43a.57.57 0 0 0 -.41.22.62.62 0 0 0 -.13.45v.44s0-.07 0-.11c0 .43 0 .85-.08 1.28s-.12.89-.21 1.31a.61.61 0 1 0 1.21.19c.1-.58.19-1.16.25-1.75s0-1 0-1.49a.61.61 0 0 0 -.6-.55h-.07"/><path d="m296.29 224.34a.62.62 0 0 0 -.54.67v.78a.33.33 0 0 1 0-.07v.12c0 .4-.07.79-.12 1.18a11.72 11.72 0 0 1 -.3 1.28.57.57 0 0 0 .1.45.61.61 0 0 0 .4.25.57.57 0 0 0 .45-.1.65.65 0 0 0 .25-.4c.09-.29.16-.56.23-.85s.1-.57.14-.86a11.6 11.6 0 0 0 .07-1.91.62.62 0 0 0 -.61-.55h-.06m-.53 1.51a.34.34 0 0 1 0 0 .43.43 0 0 0 0 .06"/><path d="m296.23 224.35a.62.62 0 0 0 -.54.66v1.33a.9.9 0 0 1 0-.16v.89c0 .45-.1.88-.16 1.31a.62.62 0 0 0 .5.71.61.61 0 0 0 .7-.51c.1-.58.15-1.16.19-1.75a18.53 18.53 0 0 0 0-1.92.61.61 0 0 0 -.62-.55"/><path d="m296.35 224.25a.63.63 0 0 0 -.54.67v1.27c0 .24 0 .48-.06.72a9.25 9.25 0 0 1 -.22 1.25.61.61 0 0 0 .51.7.62.62 0 0 0 .7-.5 14 14 0 0 0 .27-1.68 13.29 13.29 0 0 0 0-1.85.63.63 0 0 0 -.62-.56h-.05"/><path d="m296.44 224a.62.62 0 0 0 -.56.67v1.73a.91.91 0 0 1 0-.11c0 .28 0 .55-.06.82a11.65 11.65 0 0 1 -.2 1.29.61.61 0 0 0 1.21.19q.09-.43.14-.86a11.66 11.66 0 0 0 .1-1.3 17.15 17.15 0 0 0 0-1.88.6.6 0 0 0 -.6-.55h-.06"/><path d="m296.4 224.51a.62.62 0 0 0 -.41.22.64.64 0 0 0 -.13.45v.75c0 .76-.08 1.51-.15 2.27a.61.61 0 0 0 1.2.19 27.91 27.91 0 0 0 .16-3.33.6.6 0 0 0 -.61-.55h-.05"/><path d="m306.68 204.77c-.89.64-1.76 1.31-2.64 2q-1.69 1.25-3.41 2.45c-1.27.89-2.56 1.79-3.87 2.63a.83.83 0 0 0 -.3 1.09.81.81 0 0 0 1.1.3c.79-.49 1.59-1 2.39-1.46s1.84-1.17 2.74-1.77c1.76-1.16 3.53-2.33 5.19-3.64a1 1 0 0 0 .17-1.21 1.06 1.06 0 0 0 -.59-.48 1.18 1.18 0 0 0 -.3 0 .81.81 0 0 0 -.48.14m-2.65 2h-.05z"/><path d="m305.75 204c-.71.55-1.4 1.1-2.11 1.64-2.46 1.83-5 3.51-7.54 5.26a1.09 1.09 0 0 0 -.47.59 1 1 0 0 0 .09.77 1 1 0 0 0 1.36.38c1.72-1.18 3.47-2.32 5.2-3.49s3.35-2.3 4.92-3.57a1.07 1.07 0 0 0 -.72-1.84 1.13 1.13 0 0 0 -.74.3"/><path d="m306.26 203.5c-3.13 2.11-6.35 4.1-9.53 6.16a.81.81 0 0 0 -.3 1.08.8.8 0 0 0 1.08.3c3.18-2 6.43-4 9.54-6.15a.86.86 0 0 0 .38-.46.82.82 0 0 0 -.08-.62.84.84 0 0 0 -.72-.42.66.66 0 0 0 -.38.11"/><path d="m305.5 203.61c-1.43.81-2.89 1.55-4.36 2.29s-3.19 1.63-4.72 2.59a.63.63 0 0 0 -.24.86.64.64 0 0 0 .87.24c1.39-.88 2.85-1.64 4.32-2.38s3.21-1.6 4.76-2.51a.63.63 0 0 0 -.31-1.18.63.63 0 0 0 -.31.08"/><path d="m306.18 202.9a67.71 67.71 0 0 1 -10.21 5 .67.67 0 0 0 -.32.75.67.67 0 0 0 .82.5c1.75-.69 3.49-1.39 5.22-2.17s3.55-1.71 5.27-2.7a.81.81 0 0 0 .3-1.09.85.85 0 0 0 -.71-.41.74.74 0 0 0 -.37.1"/><path d="m307.18 202.4a95.69 95.69 0 0 1 -8.85 4.37l-1.71.64a.78.78 0 0 0 -.46.33.74.74 0 0 0 -.09.56.76.76 0 0 0 .9.54 49.14 49.14 0 0 0 5.21-2.21c1.91-.92 3.78-2 5.63-3a.7.7 0 0 0 -.69-1.22m-8.86 4.37-.13.05z"/><path d="m155.44 207.75a.85.85 0 0 0 .07 1.19 28.63 28.63 0 0 0 5 3.67.9.9 0 0 0 1.22-.39.91.91 0 0 0 -.39-1.21c-.74-.44-1.47-.89-2.2-1.36-.88-.62-1.73-1.28-2.55-2a.9.9 0 0 0 -.58-.21.83.83 0 0 0 -.62.28m3.75 1.91.18.13z"/><path d="m156.23 208.1a.66.66 0 0 0 -.47.22.68.68 0 0 0 0 .95 19.09 19.09 0 0 0 2.31 1.51 22.37 22.37 0 0 0 2.75 1.24.66.66 0 0 0 .5 0 .63.63 0 0 0 .39-.32.67.67 0 0 0 -.29-.9c-.67-.28-1.32-.56-2-.86a17.3 17.3 0 0 1 -2.18-1.24 7.27 7.27 0 0 1 -.62-.45.75.75 0 0 0 -.45-.17z"/><path d="m155.61 209.5a.62.62 0 0 0 .27.82 42.55 42.55 0 0 0 4.8 2.16.73.73 0 0 0 .47 0 .58.58 0 0 0 .35-.3.57.57 0 0 0 0-.47.55.55 0 0 0 -.3-.35 41 41 0 0 1 -4.8-2.16.56.56 0 0 0 -.27-.07.63.63 0 0 0 -.56.33"/><path d="m155.52 204.16a.59.59 0 0 0 -.43.2.6.6 0 0 0 0 .86c2 1.51 3.92 3.2 5.81 4.87a.62.62 0 0 0 .87 0 .61.61 0 0 0 0-.85c-1.91-1.67-3.77-3.37-5.81-4.87a.68.68 0 0 0 -.4-.15"/><path d="m155.39 207a.62.62 0 0 0 .25.83 32.19 32.19 0 0 0 5.39 2.47.7.7 0 0 0 .48-1.31c-.81-.36-1.65-.66-2.47-1-1-.38-1.91-.8-2.84-1.26a.58.58 0 0 0 -.28-.07.6.6 0 0 0 -.54.32"/><path d="m155.26 207a.91.91 0 0 0 .39 1.21c.9.49 1.81 1 2.72 1.42a18.53 18.53 0 0 0 3 1.31.86.86 0 0 0 .94-.45.87.87 0 0 0 -.36-1.16 11.41 11.41 0 0 0 -1.17-.6c-.53-.25-1.07-.48-1.6-.74-.92-.44-1.84-.9-2.74-1.39a.89.89 0 0 0 -.4-.1.91.91 0 0 0 -.81.49"/><path d="m156.42 207.29a.61.61 0 0 0 0 .86c.71.51 1.42 1 2.16 1.44a19.71 19.71 0 0 0 2.57 1.24.7.7 0 0 0 .46 0 .61.61 0 0 0 .1-1.12c-.63-.26-1.24-.53-1.85-.85a19.87 19.87 0 0 1 -2-1.22l-.59-.43a.67.67 0 0 0 -.44-.16.63.63 0 0 0 -.43.21"/><path d="m155 205.56a.69.69 0 0 0 .3.9c1.82.81 3.61 1.69 5.48 2.38a.76.76 0 0 0 .52 0 .68.68 0 0 0 .39-.33.69.69 0 0 0 0-.51.66.66 0 0 0 -.34-.4c-1.87-.7-3.67-1.56-5.49-2.36a.74.74 0 0 0 -.31-.07.66.66 0 0 0 -.6.35"/><path d="m154.55 204.19a.8.8 0 0 0 .35 1.07 61.34 61.34 0 0 0 6.12 2.62.81.81 0 0 0 .4 0 .77.77 0 0 0 .46-.39.78.78 0 0 0 -.33-1.05c-2-.78-4-1.64-5.92-2.57a.82.82 0 0 0 -.36-.08.81.81 0 0 0 -.71.43"/><path d="m154.66 204.42a.87.87 0 0 0 .36 1.14q1.36.74 2.76 1.37c.94.42 1.91.79 2.87 1.15a.81.81 0 0 0 .58 0 .73.73 0 0 0 .45-.37.78.78 0 0 0 -.32-1c-1.9-.81-3.76-1.67-5.56-2.66a.78.78 0 0 0 -.37-.1.87.87 0 0 0 -.76.46"/><path d="m280.42 195a.66.66 0 0 0 -.43.18.58.58 0 0 0 -.17.44.6.6 0 0 0 .61.6c.92-.09 1.86-.12 2.78-.14s1.86 0 2.78.09c1.85.09 3.7.24 5.55.3a.61.61 0 0 0 0-1.22c-1.86-.06-3.71-.21-5.56-.3-.87 0-1.75-.08-2.63-.08s-1.95 0-2.92.13"/><path d="m282.84 195.22a.74.74 0 0 0 -.43.18.58.58 0 0 0 -.17.44.56.56 0 0 0 .17.42.54.54 0 0 0 .44.18 83.15 83.15 0 0 1 10.3-.59.61.61 0 0 0 .6-.62.6.6 0 0 0 -.42-.57h-1a78.71 78.71 0 0 0 -9.51.58"/><path d="m129.34 391a15.5 15.5 0 0 0 -1.19 1.63 7.45 7.45 0 0 0 -.73 1.58 4.19 4.19 0 0 0 -.19 1.18 2.9 2.9 0 0 0 .28 1.17 1.94 1.94 0 0 0 .54.7l.15.12a2.76 2.76 0 0 0 .5.89 2.1 2.1 0 0 0 1.47.68h.08a1.23 1.23 0 0 0 1.68-.44v-.08a4 4 0 0 0 1.34-1.27 3.15 3.15 0 0 0 .43-.93 2.21 2.21 0 0 0 .31-.79c.28-1.56-.86-2.74-2.12-3.58a11.87 11.87 0 0 0 -1.61-1 .87.87 0 0 0 -.42-.11.7.7 0 0 0 -.54.23"/><path d="m162.77 351.53h-.2a2.76 2.76 0 0 0 -1 .29 1.74 1.74 0 0 0 -.58.47 3.1 3.1 0 0 0 -.6 1 3.92 3.92 0 0 0 -.17.93 5.29 5.29 0 0 0 0 .87 15.78 15.78 0 0 0 .51 3 10 10 0 0 0 .67 1.92 6.51 6.51 0 0 0 .9 1.36 3.16 3.16 0 0 0 1.29.85l.17.06.26.12a4.34 4.34 0 0 0 1.16.23 4.94 4.94 0 0 0 2.08-.17 2.85 2.85 0 0 0 1.88-1.8 3.72 3.72 0 0 0 .18-.9 4.59 4.59 0 0 0 -.18-1.57 7.91 7.91 0 0 0 -.66-1.66c-.09-.36-.22-.71-.34-1.05a10.18 10.18 0 0 0 -.9-1.77 5.55 5.55 0 0 0 -2.2-2.11 2.8 2.8 0 0 0 -1.2-.28 2.72 2.72 0 0 0 -1 .2"/><path d="m155.42 381.6a2.11 2.11 0 0 0 -1 .84 2.82 2.82 0 0 0 -.39 1.32 6.17 6.17 0 0 0 .13 1.72 11.28 11.28 0 0 0 .58 2.09 4.88 4.88 0 0 0 1.24 2 2.75 2.75 0 0 0 1.46.7c.18.14.36.28.55.41a2 2 0 0 0 1.51.44 4.35 4.35 0 0 0 .89-.4 3.48 3.48 0 0 0 .74-.6 3 3 0 0 0 .8-1.81 5.63 5.63 0 0 0 -1.21-3.64 9.55 9.55 0 0 0 -2-2.1 4.71 4.71 0 0 0 -2.34-1h-.25a1.78 1.78 0 0 0 -.65.12"/><path d="m132.91 358.94a4.74 4.74 0 0 0 -1.69.69 6.32 6.32 0 0 0 -1.8 1.61 3.47 3.47 0 0 0 -.42.7c-.07.16-.13.32-.19.49a3.16 3.16 0 0 0 -.12.67 3.54 3.54 0 0 0 1.12 2.88 4.72 4.72 0 0 0 1.1 2 2.48 2.48 0 0 0 1.67.82 2.4 2.4 0 0 0 1.71-.65 4.52 4.52 0 0 0 1-1.34 6.42 6.42 0 0 0 .3-.62 4.69 4.69 0 0 0 .32-.45 4.15 4.15 0 0 0 .53-2 6.59 6.59 0 0 0 -.1-1.28c0-.14 0-.28-.08-.42s0-.3-.06-.46a3 3 0 0 0 -1.58-2.34 2.2 2.2 0 0 0 -.64-.22 3.47 3.47 0 0 0 -.52 0 3.36 3.36 0 0 0 -.57.05"/><path d="m108 372.9a3.72 3.72 0 0 0 -1.23 1.32 4.75 4.75 0 0 0 -.55 1.51 6.16 6.16 0 0 0 -.1 1 6.87 6.87 0 0 0 .1 1.08 4.75 4.75 0 0 0 .64 1.66 5.26 5.26 0 0 0 1.62 1.62 1.55 1.55 0 0 0 1.2.16h.1.19a2.34 2.34 0 0 0 1.88-.75 4 4 0 0 0 1.26-2.51 5.28 5.28 0 0 0 0-.8c0-.06 0-.12 0-.18a4.22 4.22 0 0 0 -.79-2.82 5.11 5.11 0 0 0 -1.36-1.35 2.94 2.94 0 0 0 -.68-.3 3.42 3.42 0 0 0 -.88-.13h-.07a2.78 2.78 0 0 0 -1.4.45"/><path d="m160.06 417.71h-.1a1.65 1.65 0 0 0 -.78 0 1.75 1.75 0 0 0 -.77.45 1.66 1.66 0 0 0 -.44.76c-.07.48-.13.94-.15 1.42a7.39 7.39 0 0 0 .14 1.3 4.26 4.26 0 0 0 1.06 2 3.25 3.25 0 0 0 .89.68 2.82 2.82 0 0 0 .53.25l.05.07a6.94 6.94 0 0 0 1.17 1.13 5.85 5.85 0 0 0 1.4.8 2.67 2.67 0 0 0 2.44-.23 3.18 3.18 0 0 0 .93-1 2.71 2.71 0 0 0 .39-1.24 2.49 2.49 0 0 0 -.05-.66v-.18-.16-.05a5.85 5.85 0 0 0 -.45-1.11 9.57 9.57 0 0 0 -1.78-2.36 8.13 8.13 0 0 0 -2.12-1.55 5.16 5.16 0 0 0 -1.06-.37 2.87 2.87 0 0 0 -.56-.05 3.64 3.64 0 0 0 -.66.06"/><path d="m179 391.95a4.08 4.08 0 0 0 -1.49 3.43 8.24 8.24 0 0 0 .23 2 5.52 5.52 0 0 0 .78 1.86 3.41 3.41 0 0 0 1.4 1.28 3.47 3.47 0 0 0 .57.21 3.57 3.57 0 0 0 .63.09 1.54 1.54 0 0 0 .36 0 4.3 4.3 0 0 0 .79-.16 3.11 3.11 0 0 0 1.71-1.16 3 3 0 0 0 .35-1.3 3 3 0 0 0 .25-.57 3.2 3.2 0 0 0 -.18-2.06l-.11-.26c0-.26-.08-.51-.14-.76a3.22 3.22 0 0 0 -.77-1.51 1.84 1.84 0 0 0 -1.27-.57 4.37 4.37 0 0 0 -1.23-.7 1.81 1.81 0 0 0 -.68-.12 2.26 2.26 0 0 0 -1.21.35"/><path d="m231.18 394.85a5.24 5.24 0 0 0 -1.76 1.4 6.87 6.87 0 0 0 -1.33 2.75 6.45 6.45 0 0 0 -.08 2.83 1.34 1.34 0 0 0 .12.32 2.61 2.61 0 0 0 .3.61 2.13 2.13 0 0 0 .44.48 3.72 3.72 0 0 0 2.08 1.59 3.08 3.08 0 0 0 2.19-.31 4.37 4.37 0 0 0 1-.78 6.63 6.63 0 0 0 1.09-1.48 14.2 14.2 0 0 0 .85-1.81 7.51 7.51 0 0 0 .45-1.75 4.14 4.14 0 0 0 -.54-2.81 3.36 3.36 0 0 0 -2-1.4 3.24 3.24 0 0 0 -.86-.11 4.61 4.61 0 0 0 -1.94.46"/><path d="m273.34 422.72a2.66 2.66 0 0 0 -1.79 1.5 5.75 5.75 0 0 0 -.52 1.35c0 .15-.09.31-.12.47a6.61 6.61 0 0 0 -.15 1.9 3.48 3.48 0 0 0 1 2.28 2.92 2.92 0 0 0 2.28.71l.43-.07a1.57 1.57 0 0 0 .41 0 1.24 1.24 0 0 0 .57-.17 2.28 2.28 0 0 0 .42-.35 1.5 1.5 0 0 0 .2-.29l.17-.14a3.76 3.76 0 0 0 .76-1 4.29 4.29 0 0 0 .48-1.64 5.38 5.38 0 0 0 -.62-3.1 3.36 3.36 0 0 0 -1-1 2.13 2.13 0 0 0 -.6-.28 4 4 0 0 0 -.82-.13h-.28a2 2 0 0 0 -.53-.07 1.89 1.89 0 0 0 -.34 0"/><path d="m303.28 388.66-.25.13h-.08l-.41-.18a.77.77 0 0 0 -.86.35l-.05.1a.61.61 0 0 0 -.87.55c0 .21 0 .42-.05.63l-.37.4a6.77 6.77 0 0 0 -.69.88 2.33 2.33 0 0 0 -.35 1.32 3.19 3.19 0 0 0 1.07 2.13l.3.25a3 3 0 0 0 1.39.85 5.31 5.31 0 0 0 1.14.16h.62a1.93 1.93 0 0 0 .79-.22 2.11 2.11 0 0 0 .71-.71 2 2 0 0 0 .19-.35 4.29 4.29 0 0 0 .79-2.07c.09-.4.14-.81.19-1.21a4.26 4.26 0 0 0 -.25-2.3 1.85 1.85 0 0 0 -1.2-1 1.63 1.63 0 0 0 -.47-.07 3 3 0 0 0 -1.28.36"/><path d="m311 354.67-.34.13a3 3 0 0 0 -2.15 1.46 3.48 3.48 0 0 0 -.39 1.75 5.07 5.07 0 0 0 .25 1.46 8.18 8.18 0 0 0 .14 1 3.78 3.78 0 0 0 2.17 3 2.06 2.06 0 0 0 1.62-.26 5.27 5.27 0 0 0 1.74-2.12 4.77 4.77 0 0 0 .26-4.61 3.3 3.3 0 0 0 -.28-.41 1.82 1.82 0 0 0 -.89-1.38 1.79 1.79 0 0 0 -.92-.22 4.28 4.28 0 0 0 -1.22.21m1.62 2.69-.06.08.07-.08v.21c-.07.26-.16.52-.26.77s-.23.5-.36.75a1.9 1.9 0 0 1 -.06-.25s0-.1 0-.15a3.43 3.43 0 0 1 .11-.4 5.62 5.62 0 0 1 .5-.8l.08-.1m-1.74.55a2.76 2.76 0 0 0 -.14.54 2.17 2.17 0 0 0 .07.92 4.8 4.8 0 0 0 .33.7.54.54 0 0 0 .15.18l-.14.19.06-.07c-.14.16-.28.32-.43.47h-.11-.1c0-.17-.09-.35-.13-.53a4.85 4.85 0 0 1 0-1.05 5.34 5.34 0 0 1 .35-1.17zm1.05.7a.42.42 0 0 1 0 0 .21.21 0 0 0 0 0m0 .06a.57.57 0 0 1 0 .08zm.43 2.59a3.23 3.23 0 0 0 .4-.44c-.14.24-.29.47-.45.7a3.92 3.92 0 0 1 -.54.55l-.27.17-.24.07h-.23-.1a3.53 3.53 0 0 0 .46-.35 3.2 3.2 0 0 0 1-.66m0 .19v.06zm-.83.78h-.09z"/><path d="m301.84 389a2.82 2.82 0 0 0 -.88 1.62v.23c0 .17 0 .35.08.52a2.9 2.9 0 0 0 .19.48c0 .11.09.22.14.33a1.79 1.79 0 0 1 .06.19s0 .06 0 .08a1.22 1.22 0 0 0 .33.81 1.27 1.27 0 0 0 .21.17 1.29 1.29 0 0 0 .09.2 3.72 3.72 0 0 0 .66 1 .92.92 0 0 0 .92.25 1 1 0 0 0 .67-.67 9.68 9.68 0 0 0 .43-1.62 2.8 2.8 0 0 0 0-1.12 2.91 2.91 0 0 0 -.25-.68l.06-.18a.91.91 0 0 0 -.63-1.11.83.83 0 0 0 -.24 0l-.12-.22a1.1 1.1 0 0 0 -1-.53 1 1 0 0 0 -.73.31"/><path d="m311.82 355-.59.46a4.73 4.73 0 0 0 -.7.75 4.63 4.63 0 0 0 -.65 1.32 3.59 3.59 0 0 0 -.1.53 7.83 7.83 0 0 0 -.09 1v.56s0 .18-.05.27a1.55 1.55 0 0 0 .06.89 1.44 1.44 0 0 0 .69 1.14 4.24 4.24 0 0 0 .39.87.71.71 0 0 0 .62.35.68.68 0 0 0 .43-.15 1.13 1.13 0 0 0 .64-.48 7.22 7.22 0 0 0 1.29-2.73l.12-.18a3.19 3.19 0 0 0 .35-1.54 5 5 0 0 0 0-.75c0-.47-.12-.93-.2-1.4a1.47 1.47 0 0 0 -2.16-.89"/><path d="m302.81 388.35a2.55 2.55 0 0 0 -1.21.82 2.88 2.88 0 0 0 -1.16 1.08 3.54 3.54 0 0 0 -.46 1.55 4.61 4.61 0 0 0 .16 1.65 4 4 0 0 0 1.71 2.51 2.19 2.19 0 0 0 1.51.24 2.88 2.88 0 0 0 1.54-1 7.07 7.07 0 0 0 1.21-2.18 4.47 4.47 0 0 0 .25-2.12 3.1 3.1 0 0 0 -.71-1.71 2.91 2.91 0 0 0 -1.31-.85 2.12 2.12 0 0 0 -.71-.11 2.78 2.78 0 0 0 -.84.13m1 2.06h.14l.12.07.12.12.11.18a3.73 3.73 0 0 1 .1.36 4.71 4.71 0 0 1 0 .58 6.61 6.61 0 0 1 -.34 1.17c-.09.19-.18.37-.27.54a8.6 8.6 0 0 1 -.51-1.71 4.88 4.88 0 0 1 0-.65 3.24 3.24 0 0 1 .09-.35l.1-.17.1-.09h.07.09zm.63 1.15q0 .09 0 .19c0-.06 0-.13 0-.19"/><path d="m249.75 413.53a3.48 3.48 0 0 0 -.68.43 1.15 1.15 0 0 0 -1.26.52 5.5 5.5 0 0 0 -1.09 3.94 3.78 3.78 0 0 0 .14.52 6.15 6.15 0 0 0 .16 1.86 3 3 0 0 0 .78 1.4 2.21 2.21 0 0 0 1.62.58 3.11 3.11 0 0 0 1.81-.65 3.79 3.79 0 0 0 1.18-1.74 6.12 6.12 0 0 0 .31-2.15 6.91 6.91 0 0 0 -.37-2.14 4.77 4.77 0 0 0 -.43-.93 1.48 1.48 0 0 0 -.2-.75 1.54 1.54 0 0 0 -.89-.69 1.42 1.42 0 0 0 -.28 0 .6.6 0 0 0 -.48-.22.75.75 0 0 0 -.33.08m-1.1 7.64.31.21h-.07l-.11-.07-.12-.12"/><path d="m249.44 413.73a1.59 1.59 0 0 0 -.35.29.7.7 0 0 0 -1 0 9.58 9.58 0 0 0 -2.44 2.81 2.61 2.61 0 0 0 -.14 2.29 2.86 2.86 0 0 0 1.58 1.34 5.71 5.71 0 0 0 2.4.35 7.48 7.48 0 0 0 1.22-.16 5.81 5.81 0 0 0 1.25-.42 3.3 3.3 0 0 0 1.63-1.47 2.67 2.67 0 0 0 .29-1.18 3.08 3.08 0 0 0 -.36-1.39 4.71 4.71 0 0 0 -1-1.31 9.21 9.21 0 0 0 -1.72-1.36 1.2 1.2 0 0 0 -.59-.16 1.25 1.25 0 0 0 -.83.35m-1.25 2.29-.08.16a1.11 1.11 0 1 0 1.91 1.12 6.75 6.75 0 0 0 .5-1.11 7.11 7.11 0 0 1 .91.89 3.93 3.93 0 0 1 .25.42l.05.18a1 1 0 0 1 0 .12v.07l-.1.16a2.71 2.71 0 0 1 -.27.25 4.3 4.3 0 0 1 -.58.32 6.13 6.13 0 0 1 -1.37.36 7.05 7.05 0 0 1 -1.21 0 4 4 0 0 1 -.71-.18l-.28-.16-.14-.13v-.08a1.48 1.48 0 0 1 -.06-.19 1.55 1.55 0 0 1 0-.21 3.15 3.15 0 0 1 .13-.48 5.54 5.54 0 0 1 .52-.87c.18-.23.37-.45.57-.66m-.48.54-.08.11zm4 1.34v.05zm-.21.3-.08.05z"/><path d="m203.1 411.81a6.2 6.2 0 0 0 -3.08 2.71 5.25 5.25 0 0 0 -.59 4.18 5.89 5.89 0 0 0 3.72 3.42 3.9 3.9 0 0 0 2 .25 2.73 2.73 0 0 0 1.54-.83 4.75 4.75 0 0 0 1-3.48 9 9 0 0 0 -.15-1.26 11.17 11.17 0 0 0 -.17-2.12 5.19 5.19 0 0 0 -.35-1.17 4.11 4.11 0 0 0 -.62-1 2.62 2.62 0 0 0 -1.46-.87 2.67 2.67 0 0 0 -.61-.07 3.66 3.66 0 0 0 -1.25.24"/><path d="m339.38 404.61a2.48 2.48 0 0 0 -1.84 1 3.34 3.34 0 0 0 -.48 2.09 5.42 5.42 0 0 0 .19 1.12v.76a8.78 8.78 0 0 0 .13 1.58 1.71 1.71 0 0 0 .79 1.06 2.18 2.18 0 0 0 1 .25 1.48 1.48 0 0 0 .49-.07 1.67 1.67 0 0 0 .55.1 1.75 1.75 0 0 0 .85-.22 1.7 1.7 0 0 0 .59-.6c.14-.31.28-.63.39-1a4.67 4.67 0 0 0 1.37-3.76 2.6 2.6 0 0 0 -.34-.87 3.12 3.12 0 0 0 -.94-.92 4.08 4.08 0 0 0 -1.12-.45 4.22 4.22 0 0 0 -1.16-.16h-.39"/><path d="m336.56 366.6a5.88 5.88 0 0 0 -2.39 1.59 3.9 3.9 0 0 0 -.67 1.12 4 4 0 0 0 -.22 1 1.45 1.45 0 0 0 0 .29 6.08 6.08 0 0 0 -.29.66 4.38 4.38 0 0 0 .57 3.93 6.41 6.41 0 0 0 1.77 1.69 3.17 3.17 0 0 0 2.21.47 3.05 3.05 0 0 0 1.59-.9 5.9 5.9 0 0 0 1.14-2 9.55 9.55 0 0 0 .5-2.2 9.23 9.23 0 0 0 0-2.46 3.82 3.82 0 0 0 -2.22-3.31 2.64 2.64 0 0 0 -.85-.14 3.13 3.13 0 0 0 -1.11.21m-1.36 7.45-.05-.07"/><path d="m248.84 414.79a.61.61 0 1 0 .61-.61.61.61 0 0 0 -.61.61"/><path d="m250.74 412.78a3.83 3.83 0 0 0 -.89.3 4.81 4.81 0 0 0 -1.34 1l-.2.19a4.76 4.76 0 0 0 -2.56 2.41 3.18 3.18 0 0 0 .07 2.36c0 .21-.06.43-.07.64a3.41 3.41 0 0 0 .15 1.24 2.46 2.46 0 0 0 1.86 1.65 4.48 4.48 0 0 0 2.18-.21 4 4 0 0 0 2.94-.37 3.15 3.15 0 0 0 1.19-1.35 5.66 5.66 0 0 0 .47-2.48 13.33 13.33 0 0 0 -.39-2.71 4.5 4.5 0 0 0 -1-1.89 2.45 2.45 0 0 0 -1.39-.75 3.47 3.47 0 0 0 -.48 0 3.23 3.23 0 0 0 -.53 0m.63 2.3h.08.07l.17.17a3.59 3.59 0 0 1 .36.63 8.91 8.91 0 0 1 .5 2 7 7 0 0 1 0 1.25 3.8 3.8 0 0 1 -.17.66 3 3 0 0 1 -.24.4l-.17.17-.15.09a1.08 1.08 0 0 0 -.49-.59 1 1 0 0 0 -.84-.11 8.35 8.35 0 0 1 -1.46.49 6.86 6.86 0 0 1 -.89-.54c0-.06 0-.13 0-.19a7.06 7.06 0 0 1 .37-1.26 9.66 9.66 0 0 1 1.13-1.89 7 7 0 0 1 .94-.95 3.58 3.58 0 0 1 .47-.28l.21-.06zm.2.1.08.05-.07-.05m.87 4.47-.06.14zm-3.11.75h.06"/><path d="m238.08 435.37a3.93 3.93 0 0 0 -1.36.78 4.24 4.24 0 0 0 -.94 1.19 5.44 5.44 0 0 0 -.62 2 1 1 0 0 0 .1.69.89.89 0 0 0 .53.41.83.83 0 0 0 .54 0 1.52 1.52 0 0 0 .78.05 1.58 1.58 0 0 0 .2.59 1.69 1.69 0 0 0 1 .76 1.66 1.66 0 0 0 1.28-.17 1.48 1.48 0 0 0 .56-.56 1 1 0 0 0 .55-.48l.08-.16a1.51 1.51 0 0 0 .47-.33 1.8 1.8 0 0 0 .49-1.79 1.73 1.73 0 0 0 -.29-.57 3.38 3.38 0 0 0 -.14-.8 2.37 2.37 0 0 0 -2-1.65h-.29a3.51 3.51 0 0 0 -.9.13"/><path d="m238.58 435.73a2.78 2.78 0 0 0 -1 .46 4.88 4.88 0 0 0 -1 1 5.85 5.85 0 0 0 -.64 1.24 6.18 6.18 0 0 0 -.41 1.81.64.64 0 0 0 .65.65.66.66 0 0 0 .47-.19.73.73 0 0 0 .19-.46 1.21 1.21 0 0 1 0-.16.17.17 0 0 0 0 0 6.42 6.42 0 0 1 .27-1 5.09 5.09 0 0 1 .48-.85 4.62 4.62 0 0 1 .54-.54l.36-.21a3 3 0 0 1 .43-.12h.08l.29.07.14.08a2.26 2.26 0 0 1 .24.24 4 4 0 0 1 .31.56 8.51 8.51 0 0 1 .37 1.49.86.86 0 0 0 .24.41.94.94 0 0 0 .66.28 1 1 0 0 0 .67-.28.87.87 0 0 0 .28-.67c0-.31-.09-.62-.14-.93a4.75 4.75 0 0 0 -.26-.85 4 4 0 0 0 -.87-1.37 2.9 2.9 0 0 0 -1-.62 2 2 0 0 0 -.57-.1h-.1a4.15 4.15 0 0 0 -.64.06"/><path d="m292.31 344.76a1.45 1.45 0 0 0 -.6.2 1.51 1.51 0 0 0 -.48.47 3.6 3.6 0 0 0 -.52 1.51 14.4 14.4 0 0 0 -.14 2.93 5.09 5.09 0 0 0 .3 1.64 1.8 1.8 0 0 0 .79 1 1.49 1.49 0 0 0 1.22.08 2.81 2.81 0 0 0 .65-.37 1.36 1.36 0 0 0 .58 0 1.3 1.3 0 0 0 .92-.92c0-.17.07-.34.11-.51l.2-.28c.17-.12.33-.25.49-.39a1.54 1.54 0 0 0 .35-.35.69.69 0 0 0 -.08-.8l.06.08-.13-.21.26-.47c.12-.23.25-.48.38-.7a1.17 1.17 0 0 0 -.18-1.43 1.87 1.87 0 0 0 -1.54-.34 6.31 6.31 0 0 0 -.72.08 4.46 4.46 0 0 0 -.9-.86 1.59 1.59 0 0 0 -.89-.29h-.13m-.02 1.63h.12z"/><path d="m293.19 344.19a2.27 2.27 0 0 0 -.34.1 2.51 2.51 0 0 0 -1.28 1 3.39 3.39 0 0 0 -.38.9v.17a6.47 6.47 0 0 0 -.15 5.3 3.56 3.56 0 0 0 .9 1.29 2.49 2.49 0 0 0 1.63.6 3.07 3.07 0 0 0 1.68-.6 5.68 5.68 0 0 0 1.66-1.81 5 5 0 0 0 -1.78-6.64 3 3 0 0 0 -1.28-.39.86.86 0 0 0 -.28 0 .73.73 0 0 0 -.33.08m.43 2.23h.07.17l.34.2a4.22 4.22 0 0 1 .47.47 5.46 5.46 0 0 1 .4.7 4.48 4.48 0 0 1 .21.76 4.53 4.53 0 0 1 0 .7 4.72 4.72 0 0 1 -.21.75 5.37 5.37 0 0 1 -.44.74 6.19 6.19 0 0 1 -.66.66l-.34.2-.21.05-.19-.06-.12-.07-.22-.23a3.42 3.42 0 0 1 -.33-.58 6 6 0 0 1 -.22-.82 1.07 1.07 0 0 0 .85-1 11 11 0 0 1 0-1.4 4.47 4.47 0 0 1 .17-.71 2.64 2.64 0 0 1 .17-.3m-.3.42v.08zm-.21 4.75.07.06z"/><path d="m286.44 374.54a3.13 3.13 0 0 0 -1 .29 3.44 3.44 0 0 0 -.91.65 4.23 4.23 0 0 0 -.83 1.15 4.86 4.86 0 0 0 -.43 2.74 6.14 6.14 0 0 0 .47 1.71 4.64 4.64 0 0 0 1 1.48 2.74 2.74 0 0 0 1.06.61 2.38 2.38 0 0 0 1.15 0 2.1 2.1 0 0 0 .54-.2 3.39 3.39 0 0 0 .5-.3 4.43 4.43 0 0 0 1-1.13 4.62 4.62 0 0 0 .54-1.32 5 5 0 0 0 .14-1.55 4.7 4.7 0 0 0 -.32-1.54 5.54 5.54 0 0 0 -.25-.82 3.62 3.62 0 0 0 -.63-1 2.47 2.47 0 0 0 -1-.67 1.89 1.89 0 0 0 -.71-.12h-.29m.92 5.83a2.29 2.29 0 0 0 .39-.68l.07-.15a5.21 5.21 0 0 1 -.2.78 5.14 5.14 0 0 1 -.37.67 4 4 0 0 1 -.31.32.94.94 0 0 0 .33-.5l.1-.44z"/><path d="m285.7 377.1c0 .44-.09.88-.12 1.31a3.36 3.36 0 0 0 0 1 1.8 1.8 0 0 0 .12.5c.06.13.11.27.18.39a3.11 3.11 0 0 0 .26.36 3 3 0 0 0 .48.47.71.71 0 0 0 .47.19.7.7 0 0 0 .46-.19l.21-.17.31-.18h.1a.63.63 0 0 0 .34-.09.75.75 0 0 0 .33-.43.73.73 0 0 0 -.7-.9 1.24 1.24 0 0 0 -.46.1 2.25 2.25 0 0 0 -.6.36 1.59 1.59 0 0 1 -.2-.35 1.81 1.81 0 0 1 -.07-.28 14.7 14.7 0 0 1 .13-2.07.61.61 0 0 0 -.61-.61.62.62 0 0 0 -.61.61m1.08 2s0 .06 0 .1zm0 .1s0 0 0 .07 0 0 0-.07m.08.31v.09zm.94 1.37-.11.09z"/><path d="m304.76 413.1a.61.61 0 1 0 .61-.61.61.61 0 0 0 -.61.61"/><path d="m304.26 408.76a1 1 0 0 0 -.54.42 8.45 8.45 0 0 0 -.6.91c-.15.28-.26.58-.38.87l-.05.13a2.39 2.39 0 0 0 -.23.28 4.74 4.74 0 0 0 -.19 4.49 4.23 4.23 0 0 0 1.22 1.74 3 3 0 0 0 .87.49 2.25 2.25 0 0 0 1.15 0 2.38 2.38 0 0 0 .82-.34 4 4 0 0 0 .93-.86 4.24 4.24 0 0 0 .9-2.86 4.39 4.39 0 0 0 -.11-.84 4 4 0 0 0 .1-.67 2.14 2.14 0 0 0 -.33-1.23 2.08 2.08 0 0 0 -1-.78 6.52 6.52 0 0 0 -1.85-1.69.85.85 0 0 0 -.45-.12.93.93 0 0 0 -.26 0m1.86 4 .06.13a8 8 0 0 1 .25.89l-.19.35a6.27 6.27 0 0 0 -.12-1.36"/><path d="m302.86 408.8c-1 .89-.83 2.33-.66 3.51v.26a6.84 6.84 0 0 0 -.3 1 3.8 3.8 0 0 0 1.1 3.83 3.46 3.46 0 0 0 2 .64 2.68 2.68 0 0 0 1-.17 3.18 3.18 0 0 0 .94-.56 3.32 3.32 0 0 0 .6-.71 4.34 4.34 0 0 0 .51-1.1 6.52 6.52 0 0 0 .3-2.42 6.73 6.73 0 0 0 -.44-2.15 4.28 4.28 0 0 0 -1.17-1.76 4 4 0 0 0 -2-.81 3.22 3.22 0 0 0 -.45 0 2.09 2.09 0 0 0 -1.46.52m3.56 5.16a3.19 3.19 0 0 0 .08-1.47 6.58 6.58 0 0 0 -.69-1.81l.15.17a4.8 4.8 0 0 1 .35.62 6.83 6.83 0 0 1 .38 1.43 7.55 7.55 0 0 1 0 1.57 5.46 5.46 0 0 1 -.28 1 3.57 3.57 0 0 1 -.32.54 2.49 2.49 0 0 1 -.25.25 2.72 2.72 0 0 1 -.3.19 1.9 1.9 0 0 1 -.4.11h-.47l-.4-.09a1.14 1.14 0 0 0 .76-.55 1.31 1.31 0 0 0 .89-.14 1.3 1.3 0 0 0 .47-1.72l.06-.16m-.57-3.27.06.08zm.55 4.84v.1z"/><path d="m326 339.62a6.79 6.79 0 0 0 .17 2.1 3.62 3.62 0 0 0 .6 1.77 3.9 3.9 0 0 0 .44.6 6.72 6.72 0 0 0 1.69 1.74 2.74 2.74 0 0 0 1.12.48 2 2 0 0 0 .67 0 2.07 2.07 0 0 0 .51-.18 1.75 1.75 0 0 0 .77-1 4.13 4.13 0 0 0 .17-1.6 7.11 7.11 0 0 0 -.47-2.23 4 4 0 0 0 -1-1.51 2.89 2.89 0 0 0 -2.88-.58 3 3 0 0 0 -.39.19.71.71 0 0 0 -1.4.18"/><path d="m133.4 338.35a1.86 1.86 0 0 0 -.74.22 1.56 1.56 0 0 0 -.5.44 3 3 0 0 0 -.42.71 5.59 5.59 0 0 0 -.32 1.73v.4c0-.16-.08-.32-.11-.49a.67.67 0 0 0 -.82-.47.68.68 0 0 0 -.47.83 7.32 7.32 0 0 0 .88 2.37 4.89 4.89 0 0 0 1.37 1.43 3.73 3.73 0 0 0 1.63.64 3.77 3.77 0 0 0 1.78-.14 3.25 3.25 0 0 0 1.29-.83 2.76 2.76 0 0 0 .72-1.56c.2-1.56-.82-3-1.84-4a7.15 7.15 0 0 0 -.92-.78 3 3 0 0 0 -.8-.4 1.51 1.51 0 0 0 -.55-.09h-.17"/><path d="m131.38 340.24a.65.65 0 0 0 -.1.79l.18.24a2.87 2.87 0 0 1 .19.28.76.76 0 0 0 -.43.9 1 1 0 0 0 .22.39 1.78 1.78 0 0 0 .21.16.73.73 0 0 0 .38.1 1.07 1.07 0 0 0 .85-.34.81.81 0 0 0 .16-.21.61.61 0 0 0 .82-.9 2.9 2.9 0 0 0 -.53-.5c-.13-.11-.28-.22-.42-.32l.14.1a3.21 3.21 0 0 1 -.3-.23 3 3 0 0 0 -.5-.55.68.68 0 0 0 -.47-.19.64.64 0 0 0 -.46.19"/><path d="m119 411.28a4.87 4.87 0 0 0 -3.31 1.9.69.69 0 0 0 .48 1.18 1.59 1.59 0 0 0 .56.62c.56.39 1.13.76 1.71 1.13a17.25 17.25 0 0 0 2.18 1.1 1.21 1.21 0 0 0 .65.18h.2c.48.49 1 1 1.4 1.51a.93.93 0 0 0 1.54-.41 7.71 7.71 0 0 0 .18-1.74 5.18 5.18 0 0 0 -.22-1.3 1.1 1.1 0 0 0 -.18-.57v-.05a5.85 5.85 0 0 0 -2.06-2.61 6.06 6.06 0 0 0 -1.35-.7 3.83 3.83 0 0 0 -1.36-.22h-.42"/><path d="m303.28 387a6.14 6.14 0 0 0 -4 4.66 4.18 4.18 0 0 0 .19 1.88 5.29 5.29 0 0 0 1.09 1.85 4.42 4.42 0 0 0 1.45 1.08 3.74 3.74 0 0 0 2.13.32 3.48 3.48 0 0 0 1.85-1 4.65 4.65 0 0 0 .71-.9 6.34 6.34 0 0 0 .63-1.47 7.31 7.31 0 0 0 .36-2.68 4.59 4.59 0 0 0 -.7-2.22 3.51 3.51 0 0 0 -.63-.71 3.72 3.72 0 0 0 -1.08-.66 3.53 3.53 0 0 0 -1.32-.24 5 5 0 0 0 -.68.05m.72 2.5.34.09.27.16.2.2c.06.09.11.19.16.28a4.54 4.54 0 0 1 .15.55 6.53 6.53 0 0 1 0 1.12 8.16 8.16 0 0 1 -.4 1.5 4.17 4.17 0 0 1 -.37.65l-.22.23-.26.15-.21.06h-.27a3.67 3.67 0 0 1 -.45-.12 4 4 0 0 1 -.53-.32l-.32-.31a9.9 9.9 0 0 1 -.25-1 6.3 6.3 0 0 1 0-1.12 4.76 4.76 0 0 1 .19-.72c.06-.13.12-.24.19-.36l.25-.22a8.75 8.75 0 0 1 .85-.5.94.94 0 0 0 .3-.25h.38m.66.24.05.07v-.07m.05.08.06.08zm-2.87 3s0 .06 0 .09z"/><path d="m339.2 404.67a4.47 4.47 0 0 0 -3.11 3 4.09 4.09 0 0 0 .22 2.54 9.09 9.09 0 0 0 2.08 2.93.69.69 0 0 0 1 0 .7.7 0 0 0 0-1 11 11 0 0 1 -.86-1 7.66 7.66 0 0 1 -.65-1.1 5.09 5.09 0 0 1 -.25-.87 3.72 3.72 0 0 1 0-.67 3.4 3.4 0 0 1 .13-.47 3.14 3.14 0 0 1 .25-.43 2.49 2.49 0 0 1 1-.75 3.07 3.07 0 0 1 1.54-.24 3.43 3.43 0 0 1 .53.14l.3.17.17.16.12.21a2.54 2.54 0 0 1 .09.33 5.51 5.51 0 0 1 0 .77 12.07 12.07 0 0 1 -.65 2.16 1.25 1.25 0 0 0 0 .65 1.21 1.21 0 0 0 2.21.29 9.11 9.11 0 0 0 .68-1.49 5.84 5.84 0 0 0 .34-1.67 4 4 0 0 0 -.16-1.39 3.24 3.24 0 0 0 -.68-1.25 3.6 3.6 0 0 0 -2.85-1.22 5.08 5.08 0 0 0 -1.47.22m-.09 2.21h-.08zm-1.22.85-.05.07zm-.07 2.25v.11zm0 .11v.06zm.66 1.11.07.1z"/><path d="m305.18 407.63a3.47 3.47 0 0 0 -1.81.7 6.58 6.58 0 0 0 -1.63 1.9.92.92 0 0 0 -.1.76 5.57 5.57 0 0 0 -.44 1.63 6.42 6.42 0 0 0 .92 4.12 4 4 0 0 0 3.06 2 3.71 3.71 0 0 0 .9 0 4.77 4.77 0 0 0 1.12-.39 4 4 0 0 0 .9-.6 4.27 4.27 0 0 0 .83-.88 5.57 5.57 0 0 0 .89-3.7 7.27 7.27 0 0 0 -1.5-3.92 3.85 3.85 0 0 0 -3-1.58h-.19m.21 2.26.21.05a3.91 3.91 0 0 1 .39.23 4.58 4.58 0 0 1 .41.42 6.68 6.68 0 0 1 .6 1 8.09 8.09 0 0 1 .4 1.44 6.92 6.92 0 0 1 0 1.26 4.51 4.51 0 0 1 -.21.8 4.05 4.05 0 0 1 -.3.51 4.36 4.36 0 0 1 -.48.45 5.42 5.42 0 0 1 -.5.3l-.4.11h-.36l-.3-.09a3.46 3.46 0 0 1 -.43-.25 4 4 0 0 1 -.43-.45 6.09 6.09 0 0 1 -.42-.71 6.23 6.23 0 0 1 -.32-1.13 6 6 0 0 1 0-1.14 5.86 5.86 0 0 1 .25-.93 5.21 5.21 0 0 1 .42-.71 4.91 4.91 0 0 1 .77-.73.83.83 0 0 0 .24-.39l.22-.06h.23m1.48 5.8-.09.12z"/><path d="m237.86 434.71a5.4 5.4 0 0 0 -2.55 1.8 7.22 7.22 0 0 0 -1.47 3.15.87.87 0 0 0 1.69.47 7.55 7.55 0 0 1 .31-1.09 6.5 6.5 0 0 1 .63-1.08 7.29 7.29 0 0 1 .7-.69 5.63 5.63 0 0 1 .89-.52 4.77 4.77 0 0 1 .67-.18 4.69 4.69 0 0 1 .71 0 4.58 4.58 0 0 1 .5.13 5.66 5.66 0 0 1 .66.39 6.32 6.32 0 0 1 .74.77l.25.36a1 1 0 1 0 1.71-1 4.92 4.92 0 0 0 -2.45-2.4 4.09 4.09 0 0 0 -1.59-.31 4.88 4.88 0 0 0 -1.39.21m1 1.83h-.08zm.91.1h.06zm-1.82.15h-.07z"/><path d="m241 435.58a1.1 1.1 0 0 0 -.5.65 1.16 1.16 0 0 0 .1.83l.13.29a11.2 11.2 0 0 1 .55 2.08c0 .21.05.42.08.62a1.11 1.11 0 0 0 .3.73 1 1 0 0 0 .73.3 1 1 0 0 0 1-1 3.54 3.54 0 0 0 0-.81 7.37 7.37 0 0 0 -.17-1.1 9.69 9.69 0 0 0 -.79-2.19 1 1 0 0 0 -.92-.52 1.11 1.11 0 0 0 -.55.14m.27 3.67v.18s0-.12 0-.18m0 .19v.1z"/><path d="m250.77 412.83a6.21 6.21 0 0 0 -1 .13 4.74 4.74 0 0 0 -1.13.41 6.09 6.09 0 0 0 -2 1.52 7.59 7.59 0 0 0 -1.23 2 7.41 7.41 0 0 0 -.6 2.34 4.94 4.94 0 0 0 .24 2.07 3.79 3.79 0 0 0 1.25 1.7 4.4 4.4 0 0 0 2.31.9 5.75 5.75 0 0 0 2.6-.27 5 5 0 0 0 2.91-3 7 7 0 0 0 .21-4.33 4.88 4.88 0 0 0 -.79-1.63 3.5 3.5 0 0 0 -1.52-1.2 3.1 3.1 0 0 0 -.64-.16.6.6 0 0 0 -.57-.53m.1 2.13h.12zm.17 0 .32.08a3.24 3.24 0 0 1 .38.23 2.88 2.88 0 0 1 .31.31 4.5 4.5 0 0 1 .37.63 5.84 5.84 0 0 1 .33 1.19 7 7 0 0 1 0 1.48 6.43 6.43 0 0 1 -.39 1.42 5.44 5.44 0 0 1 -.48.8 4.58 4.58 0 0 1 -.56.56 5.5 5.5 0 0 1 -.68.39 4.41 4.41 0 0 1 -.87.23 6 6 0 0 1 -1.24 0 5.36 5.36 0 0 1 -.82-.23 4.41 4.41 0 0 1 -.48-.27 4.1 4.1 0 0 1 -.43-.41 3.64 3.64 0 0 1 -.33-.58 3.87 3.87 0 0 1 -.2-.72 6.05 6.05 0 0 1 0-1.26 6.37 6.37 0 0 1 1.26-3l-.1.12.2-.24a.74.74 0 0 0 1 .21 8.71 8.71 0 0 1 1.23-.75 3.86 3.86 0 0 1 .7-.2 3.64 3.64 0 0 1 .48 0m1.05.69.07.09zm-.23 5.49v.06zm-5.12.14.06.07zm.35.39.09.06zm.47.31h.12z"/><path d="m311.5 354.29a3.34 3.34 0 0 0 -1.39.46 3.25 3.25 0 0 0 -1.11 1.25 4.46 4.46 0 0 0 -.4 1.45l-.08.13a4.19 4.19 0 0 0 -.39 1 3.78 3.78 0 0 0 -.08 1.27 4.32 4.32 0 0 0 2.18 3.45 2.92 2.92 0 0 0 1.88.31 3.78 3.78 0 0 0 2.08-1.22 7.19 7.19 0 0 0 .76-1.07 5 5 0 0 0 .49-1 5.17 5.17 0 0 0 .36-2.08 4.24 4.24 0 0 0 -1.45-3 3.94 3.94 0 0 0 -2.55-1h-.3m.5 1.76h.11zm.14 0a3.18 3.18 0 0 1 .44.12 4.06 4.06 0 0 1 .59.34 3.9 3.9 0 0 1 .4.39 3.58 3.58 0 0 1 .35.59 4.12 4.12 0 0 1 .19.69 4.16 4.16 0 0 1 0 .77 6.15 6.15 0 0 1 -.3 1 7.59 7.59 0 0 1 -.7 1.2 5.61 5.61 0 0 1 -.55.57 2.94 2.94 0 0 1 -.4.24 2.83 2.83 0 0 1 -.4.1h-.31l-.36-.1a3.37 3.37 0 0 1 -.49-.29l-.26-.25a.91.91 0 0 0 .39-1 12.07 12.07 0 0 1 -.31-1.41 7.12 7.12 0 0 1 0-1.4l.25-.21a3.58 3.58 0 0 1 .38-.24.75.75 0 0 0 .26-1l.32-.09a3.64 3.64 0 0 1 .51 0m1.1 5-.12.15zm-2.14 1 .11.05z"/><path d="m326.57 339.2a6.26 6.26 0 0 0 -.73 1.91 5.44 5.44 0 0 0 .06 2.12 5.23 5.23 0 0 0 .69 1.66 5.3 5.3 0 0 0 1.34 1.48 4.67 4.67 0 0 0 3.33 1 4.12 4.12 0 0 0 1.59-.53 4.64 4.64 0 0 0 .81-.63 5.54 5.54 0 0 0 .7-.87.92.92 0 0 0 -.55-1.35 10.75 10.75 0 0 1 -1-.32 11.78 11.78 0 0 1 -1.47-.87c-.35-.24-.71-.48-1.07-.7a6.22 6.22 0 0 0 -.67-.38.83.83 0 1 0 -.85 1.43c.34.18.66.38 1 .59.49.42 1 .88 1.46 1.29a.82.82 0 0 0 .55.23h.08l-.14.07a4.28 4.28 0 0 1 -.51.12h-.46a4 4 0 0 1 -.74-.2 5.25 5.25 0 0 1 -.72-.43 5.49 5.49 0 0 1 -.64-.63 5.85 5.85 0 0 1 -.55-.94 6.38 6.38 0 0 1 -.21-.76 5.34 5.34 0 0 1 0-1 5.43 5.43 0 0 1 .28-.91 3.39 3.39 0 0 1 .23-.42 1 1 0 0 0 -.36-1.38 1 1 0 0 0 -.5-.13 1 1 0 0 0 -.87.49m6.2 4.52.16.07zm-3.06 1.5.15.06z"/><path d="m155.48 380.75a4.44 4.44 0 0 0 -2 4 4.91 4.91 0 0 0 .59 2c.08.23.17.45.27.67a5.87 5.87 0 0 0 1.39 1.85 6.06 6.06 0 0 0 2 1.23 4.16 4.16 0 0 0 3.89-.25 3.61 3.61 0 0 0 .83-.83 4.2 4.2 0 0 0 .5-1 5 5 0 0 0 .24-1.24 6.7 6.7 0 0 0 -.09-1.74 6.6 6.6 0 0 0 -3-4.94 4.23 4.23 0 0 0 -2.05-.52 4.66 4.66 0 0 0 -2.57.78m2.81 1.88a3.69 3.69 0 0 1 .47.13 4.37 4.37 0 0 1 .42.25 6.05 6.05 0 0 1 .45.44 6.72 6.72 0 0 1 .57 1 9.41 9.41 0 0 1 .48 1.83 6.53 6.53 0 0 1 0 1.1c0 .15-.07.31-.12.46a2.63 2.63 0 0 1 -.2.33l-.13.13-.22.13a2.47 2.47 0 0 1 -.37.11 4.69 4.69 0 0 1 -.58 0h-.13a1.29 1.29 0 0 0 -.5-.62l-.41-.3.09.06a9.14 9.14 0 0 1 -1.39-1.34 5.44 5.44 0 0 1 -.5-.84 5.13 5.13 0 0 1 -.19-.68 3.85 3.85 0 0 1 0-.47 3.61 3.61 0 0 1 .12-.46 3.1 3.1 0 0 1 .26-.44 4.48 4.48 0 0 1 .38-.38 3.83 3.83 0 0 1 .44-.26 4.39 4.39 0 0 1 .55-.15 4.25 4.25 0 0 1 .5 0m-1.14.18h-.09zm-.2.1-.08.06zm2.3.15.15.11zm-3.18 1a1.23 1.23 0 0 1 0 .13v-.23m4 .14v.1z"/><path d="m157.74 382.12a.61.61 0 0 0 -.22.83l.64 1a7 7 0 0 1 .59 1.05 2.42 2.42 0 0 1 .14.48 2.86 2.86 0 0 1 0 .48v.26c0 .1-.05.21-.08.31h-.09l-.25-.07.12.06a1.71 1.71 0 0 1 -.31-.17l-.52-.48a4.68 4.68 0 0 0 -.83-.63.61.61 0 0 0 -.84.22.61.61 0 0 0 .22.83l.26.17c.18.15.35.3.51.45a3.43 3.43 0 0 0 .5.43 2.08 2.08 0 0 0 .57.3 2.11 2.11 0 0 0 .42.1 2.53 2.53 0 0 0 .66 0 .64.64 0 0 0 .59-.45 4 4 0 0 0 .33-1.24 2.68 2.68 0 0 0 0-.62 2.42 2.42 0 0 0 -.08-.46 3.44 3.44 0 0 0 -.16-.44 4.33 4.33 0 0 0 -.27-.56c-.11-.2-.23-.39-.35-.58l-.65-1a.64.64 0 0 0 -.52-.3.58.58 0 0 0 -.3.09m1.14 3.76v.06a.46.46 0 0 1 0-.08"/><path d="m129 389.42a2.3 2.3 0 0 0 -1.11.63 3.46 3.46 0 0 0 -.82 2.21 6.76 6.76 0 0 0 0 1.16c0 .45.12.91.21 1.35a4.08 4.08 0 0 0 .85 2.82l.17.22a5.11 5.11 0 0 0 .32.58 2.33 2.33 0 0 0 1.18 1 2.11 2.11 0 0 0 1.11 0 1.41 1.41 0 0 0 .4-.14 4 4 0 0 0 1.84-.5 3.08 3.08 0 0 0 1.41-2.25 7 7 0 0 0 -1.88-5.52 5.64 5.64 0 0 0 -1.15-.92 5 5 0 0 0 -1.29-.6 2.31 2.31 0 0 0 -.72-.11 2.52 2.52 0 0 0 -.56.06m2.08 7.44.08.05z"/><path d="m128.13 389.74a8.1 8.1 0 0 0 -.64.87 6.05 6.05 0 0 0 -.53 1.19 5.8 5.8 0 0 0 -.29 2.22 6.35 6.35 0 0 0 .49 2.1 6.6 6.6 0 0 0 1.07 1.75 4.12 4.12 0 0 0 1.42 1.1 2.91 2.91 0 0 0 3.36-.53 4.08 4.08 0 0 0 .72-.91 7.3 7.3 0 0 0 .58-1.28 1 1 0 0 0 -.44-1.09 1 1 0 0 0 -.74-.1 1 1 0 0 0 -.57.44 6.31 6.31 0 0 1 -.6 1.13 4.46 4.46 0 0 1 -.41.42l-.23.14-.25.07h-.2l-.32-.09a3.79 3.79 0 0 1 -.41-.24 4.55 4.55 0 0 1 -.63-.62 6.33 6.33 0 0 1 -.56-1 6.71 6.71 0 0 1 -.35-1.3 5.87 5.87 0 0 1 0-1.12 6.28 6.28 0 0 1 .25-.92 5 5 0 0 1 .54-.91 1 1 0 0 0 .28-.66.93.93 0 0 0 -.28-.66.9.9 0 0 0 -.65-.28.87.87 0 0 0 -.66.28m.82 2.07-.07.17zm-.09 3.33v.09zm.5 1 .07.09zm1.61 1.15h-.08z"/><path d="m179.49 392.12a3.13 3.13 0 0 0 -.94.43c-.15.1-.3.22-.44.33a3.18 3.18 0 0 0 -.4.42 1.11 1.11 0 0 0 -.3.75 1.07 1.07 0 0 0 .3.75l.07.06a3.37 3.37 0 0 0 -.1 1.21 4.32 4.32 0 0 0 .44 1.49 4.75 4.75 0 0 0 .8 1.14 5.28 5.28 0 0 0 1.07.89 4.34 4.34 0 0 0 1.19.54 3 3 0 0 0 1.42.07 2.45 2.45 0 0 0 1.46-.89 3.26 3.26 0 0 0 .47-.81 4.79 4.79 0 0 0 .37-1.93 5 5 0 0 0 -.59-2.11 3.89 3.89 0 0 0 -.45-.67 5.25 5.25 0 0 0 -.73-.77 4.48 4.48 0 0 0 -1.84-.94 3.19 3.19 0 0 0 -.78-.09 4.71 4.71 0 0 0 -1 .12m1.16 2.06a3.76 3.76 0 0 1 .61.17c.17.09.34.19.5.3a4.83 4.83 0 0 1 .56.54 5.91 5.91 0 0 1 .43.72 5.52 5.52 0 0 1 .19.72 5.31 5.31 0 0 1 0 .73 6.16 6.16 0 0 1 -.2.72l-.15.26-.16.17-.12.07-.24.07h-.41a4.41 4.41 0 0 1 -.63-.19 5.55 5.55 0 0 1 -.76-.45 5.36 5.36 0 0 1 -.71-.72 4.54 4.54 0 0 1 -.39-.68 4.22 4.22 0 0 1 -.19-.6 4 4 0 0 1 0-.63 3.85 3.85 0 0 1 .11-.42l.11-.1c.09-.1.18-.19.28-.27a4.46 4.46 0 0 1 .44-.26l.29-.08h.44m-1.67 1.76a1 1 0 0 1 0 .11s0-.08 0-.11m4 .71v.15a1.52 1.52 0 0 1 0-.15"/><path d="m177.92 390.75a1.43 1.43 0 0 0 0 .73 6 6 0 0 0 -.45.87 9.08 9.08 0 0 0 -.69 3.4c0 1.94.73 4.4 2.87 4.87a4.25 4.25 0 0 0 3.2-.79 3.74 3.74 0 0 0 1.11-1.15 1.29 1.29 0 0 0 .63-.36 1.47 1.47 0 0 0 .41-1c0-.34 0-.69 0-1a8 8 0 0 0 -.16-1.34 6.47 6.47 0 0 0 -1-2.31 7.23 7.23 0 0 0 -4.2-2.93 1.44 1.44 0 0 0 -.38 0 1.46 1.46 0 0 0 -1.41 1.06m1.58 2.11.21.15a9.42 9.42 0 0 1 1.14 1.15 8 8 0 0 1 .83 1.39 5.28 5.28 0 0 1 .25.9 4.3 4.3 0 0 1 0 .53 2.89 2.89 0 0 1 -.08.3 2.48 2.48 0 0 1 -.19.32l-.21.22a5.66 5.66 0 0 1 -.64.39 3.38 3.38 0 0 1 -.51.15h-.23-.16l-.15-.09-.22-.22a3.85 3.85 0 0 1 -.29-.5 6.89 6.89 0 0 1 -.29-1.07 8.24 8.24 0 0 1 0-1.75 7.69 7.69 0 0 1 .42-1.6l.1-.21m1.41 1.38.09.11zm-1.82 2.12v.16zm.29 1.05a1.69 1.69 0 0 1 .07.17z"/><path d="m179 389.75a5.76 5.76 0 0 0 -1.68 1.28 5.57 5.57 0 0 0 -1.12 2 6.4 6.4 0 0 0 -.32 2 7.25 7.25 0 0 0 .35 2.21 6.26 6.26 0 0 0 .89 1.74 5.34 5.34 0 0 0 1.56 1.47 4.89 4.89 0 0 0 2.07.64 4.28 4.28 0 0 0 1.15-.08 6 6 0 0 0 1.22-.36 1 1 0 0 0 .56-.43.94.94 0 0 0 -1.06-1.36 6.73 6.73 0 0 1 -1 .27 4.72 4.72 0 0 1 -.78 0 4.54 4.54 0 0 1 -.69-.18 3.1 3.1 0 0 1 -1.28-1 6.74 6.74 0 0 1 -.55-1 7 7 0 0 1 -.34-1.26 6.92 6.92 0 0 1 0-1.18 5.62 5.62 0 0 1 .33-1.25 6.14 6.14 0 0 1 .43-.72 5.5 5.5 0 0 1 .56-.57 5.72 5.72 0 0 1 .75-.45 1 1 0 0 0 .36-1.38 1 1 0 0 0 -.86-.49 1.15 1.15 0 0 0 -.52.13m.35 8.68.11.08zm1.51.66h.13z"/><path d="m160.35 416.84a5.22 5.22 0 0 0 -1 .16 4.21 4.21 0 0 0 -1.66 1 1 1 0 0 0 0 1.45 1 1 0 0 0 .37.23 8.38 8.38 0 0 0 .13 2.08 8.51 8.51 0 0 0 .6 1.91 9.39 9.39 0 0 0 1 1.73 4.53 4.53 0 0 0 2.64 1.91 2.89 2.89 0 0 0 1.58-.14 4.06 4.06 0 0 0 1.52-1.09 5.41 5.41 0 0 0 1.09-1.85 3.52 3.52 0 0 0 .19-1 5.12 5.12 0 0 0 0-1 6.17 6.17 0 0 0 -1.88-3.51 7.32 7.32 0 0 0 -1.69-1.2 5.75 5.75 0 0 0 -1.89-.6 5.61 5.61 0 0 0 -.82-.06h-.17m.55 2.2a5.87 5.87 0 0 1 .88.24 7.43 7.43 0 0 1 1.23.7 7.33 7.33 0 0 1 1 1 6.31 6.31 0 0 1 .57 1 4.83 4.83 0 0 1 .18.7 2.38 2.38 0 0 1 -.18 1.37 6.19 6.19 0 0 1 -.49.79 4.52 4.52 0 0 1 -.49.49l-.3.17-.25.07h-.28a2.51 2.51 0 0 1 -.39-.1 4.52 4.52 0 0 1 -.56-.35 5.94 5.94 0 0 1 -.78-.79v.06l-.05-.07-.07-.09v.05a9.31 9.31 0 0 1 -.87-1.54v.09-.1-.09.08a9.35 9.35 0 0 1 -.51-1.86s0 .1 0 .14a6.77 6.77 0 0 1 0-1.52c0-.1 0-.2.07-.3a3.75 3.75 0 0 1 .46-.12 4.49 4.49 0 0 1 .78 0m-1.12 0-.12.06.12-.05m2.06.21h.07zm2.34 5.37-.1.13zm-3.14-.39v-.05"/><path d="m158.06 417.32a10 10 0 0 0 -.57 1.46 6.76 6.76 0 0 0 -.23 1.45 5.6 5.6 0 0 0 .12 1.37 5.36 5.36 0 0 0 .44 1.24 5 5 0 0 0 .74 1.07 4.71 4.71 0 0 0 1 .84 5.61 5.61 0 0 0 1.26.59 6.89 6.89 0 0 0 1.82.32.66.66 0 0 0 .66-.67.67.67 0 0 0 -.19-.47.71.71 0 0 0 -.47-.19h-.21a7.09 7.09 0 0 1 -1.22-.32l-.41-.2a4.7 4.7 0 0 1 -.57-.37 6 6 0 0 1 -.57-.56 3.59 3.59 0 0 1 -.76-1.82 7 7 0 0 1 0-1 7.49 7.49 0 0 1 .35-1.34c.07-.16.15-.33.23-.49a.87.87 0 0 0 .08-.64.82.82 0 0 0 -.37-.48.8.8 0 0 0 -.42-.11.77.77 0 0 0 -.71.41m1.18 1.38v.08zm.45 4.18.08.1zm1.53 1.11.14.06z"/><path d="m193.22 433.92a1.92 1.92 0 0 0 -1.46 1.64 5.33 5.33 0 0 0 1.29 3.42.69.69 0 0 0 .93.24.7.7 0 0 0 .34-.6l.05.05a3.14 3.14 0 0 0 1.08.63 3.08 3.08 0 0 0 .58.1 2.19 2.19 0 0 0 .71-.08 1.93 1.93 0 0 0 .5-.2 2.63 2.63 0 0 0 .44-.3 2.51 2.51 0 0 0 .6-.71 2.34 2.34 0 0 0 .1-2.17 3.62 3.62 0 0 0 -2.07-1.61 5.8 5.8 0 0 0 -2.24-.51 4 4 0 0 0 -.85.09"/></g></svg>