<svg viewBox="0 0 566.93 566.93" xmlns="http://www.w3.org/2000/svg"><path d="m19.65 0h527.57a19.73 19.73 0 0 1 19.71 19.65v527.57a19.74 19.74 0 0 1 -19.71 19.71h-527.57a19.73 19.73 0 0 1 -19.65-19.71v-527.57a19.72 19.72 0 0 1 19.65-19.65z" fill="#1f5173"/><path d="m566.93 335.89v211.33a19.74 19.74 0 0 1 -19.71 19.71h-415.76l156.11-191 143.59-175.7c8.79-10.52 17.12-10.63 24.88 0z" fill="#5dbe8e"/><path d="m132.21 566.93h-112.56a19.73 19.73 0 0 1 -19.65-19.71v-52.34l119.8-146.63c8.27-10.11 16.6-10.06 24.88 0l83.14 101.7z" fill="#2f9c9b"/><path d="m86.65 388.81 33.15-40.56c8.27-10.11 16.6-10.06 24.88 0l.52.63 82.62 101.07-45.62 55.78z" fill="#89ca8d"/><path d="m216.84 81.19a97.13 97.13 0 1 1 -97.16 97.1 97.14 97.14 0 0 1 97.16-97.1z" fill="#cfe7ce"/><path d="m216.84 81.19a97.13 97.13 0 1 1 0 194.26 98.27 98.27 0 0 1 -29.53-4.54 97.17 97.17 0 0 0 0-185.18 98.34 98.34 0 0 1 29.53-4.54z" fill="#89ca8d"/><path d="m566.93 447.48v-111.59l-110.93-135.65c-7.75-10.63-16.09-10.52-24.88 0l-33.12 40.56z" fill="#2f9c9b"/></svg>