<svg viewBox="0 0 453.54 453.54" xmlns="http://www.w3.org/2000/svg" xmlns:xlink="http://www.w3.org/1999/xlink"><linearGradient id="a" gradientUnits="userSpaceOnUse" x1="14.17" x2="439.37" y1="226.77" y2="226.77"><stop offset="0" stop-color="#2f9c9b"/><stop offset="1" stop-color="#5dbe8e"/></linearGradient><clipPath id="b"><circle cx="226.77" cy="226.77" r="212.6"/></clipPath><circle cx="226.77" cy="226.77" fill="url(#a)" r="212.6"/><g clip-path="url(#b)"><path d="m263.58 366.26c19.42-7.51 26.74-17.54 29.42-23.16l-2.85.1c-15.94.63-23.44-3.44-27.81-12.81s1.88-20.31 1.88-20.31c.47-.47 54.38 2.19 54.38 2.19l10.34-10.27 16.88-83.44-18.75-90h-193.45v152.87c25.73 31.93 54 66.86 60 73.72 11.64 13.2 41.57 22.12 69.96 11.11z" fill="#cfe7ce"/><path d="m293 343.1c-2.72 5.62-10.07 15.65-29.45 23.16-28.4 11-58.33 2.09-69.93-11.11-6-6.87-34.3-41.79-60-73.72v137.72c36.56 17.5 65.94 20.94 121.88 20.31s85.31-24.37 85.31-24.37 3.75-30.94-5.94-51.87c-9.11-19.72-26.53-20.6-41.87-20.12z" fill="#1f5173"/><path d="m241 262.57a9.26 9.26 0 0 0 -4 1.18 21.71 21.71 0 0 0 -3 1.87 14.52 14.52 0 0 0 -1.53 1.34l-.31.29a1.33 1.33 0 0 1 -1.31.41 11.49 11.49 0 0 1 -2.22-.25 12.9 12.9 0 0 1 -2.14-1 20.71 20.71 0 0 0 -2.23-1.19 5.65 5.65 0 0 0 -2.22-.49 6.06 6.06 0 0 0 -1.36.14 7.78 7.78 0 0 0 -1.17.38 10.32 10.32 0 0 0 -1.79 1 21.91 21.91 0 0 0 -2 1.49l-.31.26a24.34 24.34 0 0 1 -3.36 2.45 8.64 8.64 0 0 1 -1.52.6 6.08 6.08 0 0 1 -1.29.15 9 9 0 0 1 -1.24-.2 9.52 9.52 0 0 1 -2-.88l-.29-.16a4.49 4.49 0 0 0 -.4-.49.6.6 0 0 0 -.41-.15.76.76 0 0 0 -.53.23 3.13 3.13 0 0 0 -.5.61 4 4 0 0 0 -.45.84.67.67 0 0 0 .32.89.64.64 0 0 0 .29.07.65.65 0 0 0 .6-.38 3.17 3.17 0 0 1 .28-.57 9.64 9.64 0 0 0 2 1.08 6.66 6.66 0 0 0 2.14.46h.31a5.81 5.81 0 0 0 1-.08.63.63 0 0 0 .08.61 35.27 35.27 0 0 0 9.35 9.66 23 23 0 0 0 11.45 4.19h.92c.63 0 1.26 0 1.89-.09a17 17 0 0 0 2.77-.54 17.26 17.26 0 0 0 5.68-2.85 23 23 0 0 0 4.89-5.08 26.35 26.35 0 0 0 2.11-3.43 24.27 24.27 0 0 0 1.76-4.41c1.31-.32 2.63-.71 3.94-1.11a.58.58 0 0 0 .23-.15 8.37 8.37 0 0 0 1-.39 11.08 11.08 0 0 0 1.87-1.06l.21.15a7.32 7.32 0 0 1 .91.75.76.76 0 0 0 .53.2.89.89 0 0 0 .51-.15.86.86 0 0 0 .34-.55.82.82 0 0 0 -.14-.63l-.31-.3a3.59 3.59 0 0 0 -.47-.45 5.53 5.53 0 0 0 -1.3-.78.86.86 0 0 0 -.37-.08.92.92 0 0 0 -.81.51.84.84 0 0 0 -.08.35l-.32.16a11.62 11.62 0 0 1 -1.21.61 9.66 9.66 0 0 1 -1.45.46c-.44.08-.81.14-1.21.19h-.54c-.32-.11-.48-.19-.71-.24l-.41-.1a14.92 14.92 0 0 1 -3.23-1.4c-.76-.48-1.48-1-2.2-1.57l-1.09-.81a10.24 10.24 0 0 0 -1.64-1 5.66 5.66 0 0 0 -1.8-.51 5.1 5.1 0 0 0 -.59 0"/><path d="m235.44 265.48c-2.34 1.35-4.7 2.69-7 4.1a.64.64 0 0 0 -.18.89.65.65 0 0 0 .9.17c2.3-1.41 4.66-2.75 7-4.1a.63.63 0 0 0 .18-.89.62.62 0 0 0 -.52-.29.71.71 0 0 0 -.37.11"/><path d="m236 264.82a40.86 40.86 0 0 0 -3.87 2.31c-1.39.9-2.75 1.84-4.17 2.69a.65.65 0 0 0 -.18.9.66.66 0 0 0 .89.18c1.29-.78 2.54-1.62 3.78-2.46a48.27 48.27 0 0 1 4.26-2.56.6.6 0 0 0 .27-.4.64.64 0 0 0 -.09-.5.73.73 0 0 0 -.4-.27h-.12a.73.73 0 0 0 -.37.12"/><path d="m236.06 265a43.76 43.76 0 0 0 -4.09 2.32c-1.33.84-2.63 1.73-3.93 2.61a.64.64 0 0 0 -.18.88.65.65 0 0 0 .9.18c1.31-.88 2.61-1.75 3.93-2.61a43.66 43.66 0 0 1 4.09-2.33.59.59 0 0 0 .27-.4.63.63 0 0 0 -.09-.5.74.74 0 0 0 -.41-.27h-.11a.93.93 0 0 0 -.38.11"/><path d="m278.22 205.57c-.66 0-1.34 0-2 .09a20 20 0 0 0 -10.09 3.76 17.65 17.65 0 0 0 -3.74 3.81 20 20 0 0 0 -2.58 5 1.24 1.24 0 0 0 .75 1.55 1.17 1.17 0 0 0 .38.06 1.25 1.25 0 0 0 1.17-.83 17.88 17.88 0 0 1 .82-2 15.79 15.79 0 0 1 2-3 16.55 16.55 0 0 1 2.78-2.47 17.81 17.81 0 0 1 3.18-1.69 15.16 15.16 0 0 0 -.52 3.21 20.49 20.49 0 0 0 .31 5.5 9.57 9.57 0 0 0 2.14 4.61 6.89 6.89 0 0 0 1 .89 4.81 4.81 0 0 0 .93.52 6.2 6.2 0 0 0 2.21.47 8.1 8.1 0 0 0 1.57-.14 5.05 5.05 0 0 0 1.08-.34 5.68 5.68 0 0 0 1.9-1.37 9 9 0 0 0 2-4.43 19.57 19.57 0 0 0 .17-5.48 21 21 0 0 0 -.72-3.74c.78.28 1.58.6 2.35.95a20.36 20.36 0 0 1 4 2.65 17.45 17.45 0 0 1 1.76 1.8c.53.63 1 1.31 1.48 2a1.37 1.37 0 0 0 .54.53.94.94 0 0 0 .79.58 8.75 8.75 0 0 0 1.56-.14c.37-.09.72-.18 1.09-.3a12.52 12.52 0 0 0 2.35-1 34.06 34.06 0 0 0 4.09-2.89.82.82 0 0 0 .29-.57.89.89 0 0 0 -.21-.66.84.84 0 0 0 -.64-.29 1 1 0 0 0 -.6.21c-.51.4-1 .79-1.56 1.16a19.85 19.85 0 0 1 -2.22 1.3c-.62.29-1.24.55-1.87.77l-.63.18a.88.88 0 0 0 -.12-.45l-.22-.36a8 8 0 0 0 .9-.47 10.28 10.28 0 0 0 1.13-.75 13.32 13.32 0 0 0 1.19-1.06.68.68 0 0 0 .05-.94.68.68 0 0 0 -.51-.23.59.59 0 0 0 -.43.17c-.28.28-.56.56-.87.81s-.33.26-.5.38a10.58 10.58 0 0 1 -1.33.78l-.32.17c-.27-.39-.54-.77-.84-1.15a15.71 15.71 0 0 0 -2-2.09 18.94 18.94 0 0 0 -2.35-1.83 20.14 20.14 0 0 0 -2.36-1.3 20.9 20.9 0 0 0 -8.82-1.93m-.56 7.33a13.64 13.64 0 0 1 0-3.32c0-.28.08-.56.13-.84.75.05 1.5.12 2.27.23a18.25 18.25 0 0 1 .06 3.92 7.43 7.43 0 0 1 -.39 1.54 4.53 4.53 0 0 1 -.31.55l-.21.22-.34.11-.2-.06v-.06a2.09 2.09 0 0 1 -.24-.25 5 5 0 0 1 -.36-.62 8.23 8.23 0 0 1 -.37-1.42"/><path d="m180.58 207.82a21 21 0 0 0 -8.83 1.93 20.74 20.74 0 0 0 -2.36 1.3 19.27 19.27 0 0 0 -2.35 1.83 15.88 15.88 0 0 0 -2 2.08c-.29.37-.56.76-.84 1.15l-.31-.13a9.79 9.79 0 0 1 -1.32-.78l-.51-.38c-.31-.25-.59-.53-.87-.81a.58.58 0 0 0 -.42-.17.72.72 0 0 0 -.52.23.67.67 0 0 0 .05.94 13 13 0 0 0 1.19 1.06 9.53 9.53 0 0 0 1 .69 8.68 8.68 0 0 0 1 .53l-.2.37a1.5 1.5 0 0 0 -.15.46l-.48-.16a18.84 18.84 0 0 1 -2-.81 17.76 17.76 0 0 1 -2.09-1.22c-.63-.44-1.18-.83-1.69-1.25a1 1 0 0 0 -.6-.21.85.85 0 0 0 -.64.29.9.9 0 0 0 -.21.66.82.82 0 0 0 .29.57 34.14 34.14 0 0 0 4.09 2.89 12.44 12.44 0 0 0 2.35 1c.36.12.71.21 1.09.3a7.89 7.89 0 0 0 1.39.14 1 1 0 0 0 .95-.58 1.15 1.15 0 0 0 .38-.33c.61-.87 1.09-1.55 1.62-2.18a18.47 18.47 0 0 1 1.77-1.8 20.37 20.37 0 0 1 4-2.65 21.12 21.12 0 0 1 2.38-.92 17.54 17.54 0 0 0 -.75 3.71 19.39 19.39 0 0 0 .17 5.48 9.06 9.06 0 0 0 2 4.43 5.77 5.77 0 0 0 1.9 1.36 5.06 5.06 0 0 0 1.09.34 8.07 8.07 0 0 0 1.56.14 6.23 6.23 0 0 0 2.21-.47 5 5 0 0 0 .93-.52 7 7 0 0 0 1-.89 9.57 9.57 0 0 0 2.14-4.61 20.59 20.59 0 0 0 .31-5.5 18.27 18.27 0 0 0 -.48-3.23 21 21 0 0 1 3.15 1.71 16.43 16.43 0 0 1 2.78 2.47 15.74 15.74 0 0 1 2 3 18 18 0 0 1 .82 2 1.25 1.25 0 0 0 1.17.83 1.23 1.23 0 0 0 .38-.06 1.24 1.24 0 0 0 .75-1.55 20 20 0 0 0 -2.58-5 17.48 17.48 0 0 0 -3.74-3.81 20 20 0 0 0 -10.09-3.76c-.67-.06-1.33-.09-2-.09m2.54 7.87a8.1 8.1 0 0 1 .05-2 17.56 17.56 0 0 1 .64-2.51l1.52.28a16 16 0 0 1 0 2.74v.15a9.23 9.23 0 0 1 -.39 1.4 3.94 3.94 0 0 1 -.4.74 2.36 2.36 0 0 1 -.31.31l-.33.18-.37-.2a2.47 2.47 0 0 1 -.2-.37 3.75 3.75 0 0 1 -.17-.66"/><path d="m240.76 66a105.26 105.26 0 0 0 -25.18 3.34 151.6 151.6 0 0 0 -25.38 8.8 174.83 174.83 0 0 0 -22.5 12.11c-4 2.55-7.89 5.27-11.51 8.1a130.52 130.52 0 0 0 -10.49 9.13 115.65 115.65 0 0 0 -27.92 42.68c-5.5 14.5-8.54 30.78-9.3 49.76a253.45 253.45 0 0 0 .39 26.54c.25 4.21.63 8.68 1.14 13.66.4 4.08.9 8.14 1.42 12.21l.24 2a150.85 150.85 0 0 1 1 20.31c-.12 5.41-.51 11-1.17 16.66-.58 4.85-1.44 10.26-2.62 16.55-2 10.08-4.46 20.26-6.66 29.24l-.12.48-1 3.9c-.67 2.71-1.31 5.4-1.87 8.12s-1.06 5.51-1.54 8.84a125.23 125.23 0 0 0 -1.34 16.83 114.43 114.43 0 0 0 1 17.19 97.91 97.91 0 0 0 3.65 16.35 56.85 56.85 0 0 0 4.51 10.81 45.94 45.94 0 0 0 3.37 5.32 38.51 38.51 0 0 0 4 4.47 1.32 1.32 0 0 0 .89.34 1.35 1.35 0 0 0 .59-.14 1.48 1.48 0 0 0 .87-.19 1.33 1.33 0 0 0 .51-.82 12.23 12.23 0 0 0 .24-1.39 10.71 10.71 0 0 0 0-1.67 3.26 3.26 0 0 0 0-.33l.15.37.44.28a19.45 19.45 0 0 0 3.18 1.81 13.41 13.41 0 0 0 3.09 1 10.44 10.44 0 0 0 2.11.21c.57 0 1.16 0 1.74-.09l.28-.15a22.64 22.64 0 0 0 3.43 2.55 25.14 25.14 0 0 0 4.61 2.25 22.61 22.61 0 0 0 4.93 1.25 1.18 1.18 0 0 0 .89-.32 1.24 1.24 0 0 0 .31-.84c-.2-3.42-.57-6.92-1-10.52v-.37a143.65 143.65 0 0 0 19.28 7.62 207.52 207.52 0 0 0 22.58 5.88c7.18 1.44 14.82 2.59 22.72 3.39 7.48.72 15.06 1 20.83 1.24s10.82.26 15.36.26c8.71 0 17.07-.29 25.52-.9a201.22 201.22 0 0 0 40.82-6.9 118.91 118.91 0 0 0 16.66-6.08c2.44-1.09 5-2.38 8.13-4.1q2.36-1.28 4.63-2.71c1.08-.67 2.68-1.7 4.16-2.8.29-.28.29-.29.29-.33l.36-.57.45-1.76.34-1.41c.45-3.24.78-6.39 1-9.35a79.2 79.2 0 0 0 -.05-12.07c-.13-1.58-.35-3.16-.57-4.74s-.44-2.9-.71-4.34c-.46-2.51-1.08-5.18-1.83-8a56.23 56.23 0 0 0 -5.85-13.83 41.08 41.08 0 0 0 -4.15-5.76 34.64 34.64 0 0 0 -14.4-9.86 47.47 47.47 0 0 0 -10.88-2.66 26.42 26.42 0 0 0 4-2.9 121.31 121.31 0 0 0 14.52-14.58 162.06 162.06 0 0 0 22.17-34.94c1.35-2.8 2.72-5.85 4.19-9.34 1.66-4 3-7.55 4.1-10.85a128.23 128.23 0 0 0 5.1-23.6c1.73-14.25 1.14-29.81-1.81-47.56-2.78-16.69-7.42-33.21-11.6-47.17l-1-3.28-.26-.86c-.54-1.79-1.09-3.59-1.59-5.39s-1-3.5-1.51-5.26l-.85-3c-1.51-5.18-3.18-10.71-5.21-16-3.3-8.53-7-14.87-11.72-19.94a39.19 39.19 0 0 0 -9.22-7.18 40.24 40.24 0 0 0 -10.8-4.2l1-.76a35.13 35.13 0 0 0 3.7-4.57 16 16 0 0 0 2.42-4.62 5.77 5.77 0 0 0 .23-2 3.79 3.79 0 0 0 -.27-1.08 5 5 0 0 0 -.56-.86 3 3 0 0 0 -.54-.46 4.59 4.59 0 0 0 -1.24-.56 2.25 2.25 0 0 0 -.87-.16 3.61 3.61 0 0 0 -1.18.22 5.71 5.71 0 0 0 -2 1.13 17.59 17.59 0 0 0 -2.22 2.13 50.1 50.1 0 0 0 -3.91 5.38l-.78 1.2-.78 1.2v-1c-.29-1.89-.65-4.13-1.16-6.37a26.27 26.27 0 0 0 -1.9-5.62 8.53 8.53 0 0 0 -1.41-2 3.69 3.69 0 0 0 -1.8-1 2.39 2.39 0 0 0 -.66-.11 3.47 3.47 0 0 0 -1.23.33 2.73 2.73 0 0 0 -.75.58 4 4 0 0 0 -.57.89 6.87 6.87 0 0 0 -.66 2.12 19.56 19.56 0 0 0 -.34 2.9 53.87 53.87 0 0 0 0 6.2l.06 1.26.06 1.25a46.43 46.43 0 0 0 -8.59-6.71 62.05 62.05 0 0 0 -11.46-5.51 69 69 0 0 0 -11.93-3.2 84 84 0 0 0 -12.54-1zm-42.93 106.41 4.32-1.67c3.76-1.42 6.64-2.6 9.06-3.7 3-1.32 5.79-2.7 8.32-4.08a103.28 103.28 0 0 0 14.73-9.65 110.07 110.07 0 0 0 12.65-11.85 136.11 136.11 0 0 0 8.82-10.8l-.89 1.22-.64 1c-1 1.52-1.94 3-2.92 4.46a138.4 138.4 0 0 1 -9.29 12.1c-3.54 4.18-7 8-10.26 11.5l-1.81 2-1 1.07-.69.73-1.74 1.87-2.74 3-2.75 3a1 1 0 0 0 -.27.93 1 1 0 0 0 .88.78 21.37 21.37 0 0 0 6.44-1.22 34.48 34.48 0 0 0 6.67-3 57.73 57.73 0 0 0 6.73-4.46c2-1.48 4.14-3.31 6.62-5.59a112.24 112.24 0 0 0 11.93-13.05c1.75-2.22 3.38-4.49 4.84-6.72s2.74-4.3 3.8-6.28c.29-.54.57-1.1.84-1.65a42 42 0 0 0 1 7.47 84.73 84.73 0 0 0 2.47 9.41 78.1 78.1 0 0 0 7.84 17.09 4.78 4.78 0 0 0 -1.72-.83 35.85 35.85 0 0 0 -4.24-1.14 44 44 0 0 0 -8.16-.88h-.67c-1.14 0-2.27.07-3.4.16a42.54 42.54 0 0 0 -4.28.67 32.19 32.19 0 0 0 -8.16 2.92 1.34 1.34 0 0 0 -.55 1.59 1.37 1.37 0 0 0 1.31 1 1 1 0 0 0 .42-.1c1.79-.58 3.58-1.17 5.4-1.68s3.35-.82 5.23-1.19l.32-.1a45.62 45.62 0 0 1 8-.72c.71 0 1.41 0 2.12.06a25.55 25.55 0 0 1 3.68.46 31.75 31.75 0 0 1 4.18 1.07c.48.17 1 .36 1.47.58a83.86 83.86 0 0 0 11.16 13.16 89.66 89.66 0 0 0 8.14 6.85 79.91 79.91 0 0 0 8.91 5.92l1.45.8-1-.25h-1.55-.63l-5.08-.11h-2.32-1l-1.93-.05q-3.86-.11-7.75-.1c-3.69 0-7.4.06-11.1.14l-5.79.11h-2.81-2.71-6.73-8.3-.82-2.4-1.08a1.72 1.72 0 0 0 -.46-.11 1.1 1.1 0 0 0 -1.09.87 54.55 54.55 0 0 0 -1.25 10.8v1.08a15.62 15.62 0 0 0 -5.17-2.14 33.2 33.2 0 0 0 -7.84-1h-.84a52.94 52.94 0 0 0 -7.11.56h-.33l-.32.05a67.46 67.46 0 0 0 -.34-8.49.83.83 0 0 0 -.81-.81.91.91 0 0 0 -.58.28.62.62 0 0 0 -.18.53c.27 3.16.43 6.15.46 8.88a27.4 27.4 0 0 0 -4.92 1.11 44.91 44.91 0 0 0 -1.06-9.65 1.17 1.17 0 0 0 -1.14-.85.65.65 0 0 0 -.29.07h-1.26-2.38-.82-8.3-6.75-2.71-2.81l-5.79-.11c-3.7-.08-7.41-.14-11.1-.14q-3.88 0-7.75.1c-.72 0-1.33.05-1.93.05h-1.38c1.76-1.82 3.6-3.62 5.49-5.33a101.74 101.74 0 0 1 10.07-8c2.24-1.56 4.6-3.08 7-4.53l.33-.19c2-.56 3.88-1.06 5.74-1.48a61.6 61.6 0 0 1 6.69-1 40.27 40.27 0 0 1 4.49-.21c.92 0 1.83 0 2.75.07 1.55.1 3.1.25 4.65.44a1.52 1.52 0 0 0 1-.23 1.22 1.22 0 0 0 .52-.83 1.26 1.26 0 0 0 -.24-1 1.17 1.17 0 0 0 -.78-.5 21.89 21.89 0 0 0 -3.4-.77 24.42 24.42 0 0 0 -3.17-.2h-.64a31.66 31.66 0 0 0 -5.47.61zm82 78.53a32.81 32.81 0 0 1 -7.25-2 37.82 37.82 0 0 1 -7.5-4.45l-.29-.18c-1.08-.93-2.64-2.34-4-3.79-.69-.74-1.36-1.48-2-2.25l-.75-.95a50.38 50.38 0 0 1 -5.3-9.42l-.21-.2c-1-2.82-1.66-4.93-2.14-6.83-.13-.52-.26-1-.38-1.56l-.08-.34-.07-.34-.1-.48-.09-.46a8.21 8.21 0 0 1 -.22-1.15v-.29l-.08-.49-.1-.64c-.17-1.29-.29-2.59-.38-3.87v-.32c-.07-.89-.13-1.81-.13-2.7 0-1.45 0-2.66.07-3.87a5 5 0 0 1 0-.63c.06-1 .15-1.81.26-2.64.09-.61.15-1.06.2-1.47l.13-.81.13-.81a31.85 31.85 0 0 0 3.81.15h4.24 9.65 4.08 2.09l4.13.07 2 .05c3.27.07 6.54.13 9.8.13h.53c1.58 0 3.13 0 4.69-.06h1.27 2.53 2.22 2.21 1.17.93c1.27 0 2.54-.05 3.8-.05h1.5.93 1.85 3.91.57.7v.31l.26 1.28.1.63c.06.42.11.85.15 1.27.2 2.25.31 4.11.34 5.82v.32.57q0 2-.18 4c-.05.65-.12 1.31-.2 2a63.38 63.38 0 0 1 -3.5 13.41 48.5 48.5 0 0 1 -2.46 5 42.07 42.07 0 0 1 -3.22 4.84 40.88 40.88 0 0 1 -6.89 7l-.24.22a39.84 39.84 0 0 1 -7.32 4.04 32.53 32.53 0 0 1 -7.31 2 27 27 0 0 1 -3.81.23 28.12 28.12 0 0 1 -4.08-.26m41.55-52.35a7.11 7.11 0 0 0 2 .64 6.59 6.59 0 0 0 -1.82 1.58c-.05-.74-.12-1.49-.22-2.23m4.44 1.66a12.35 12.35 0 0 1 1.91-1.18 7.46 7.46 0 0 1 1.25-.39h1a4.86 4.86 0 0 1 .82.17 7 7 0 0 1 1.08.61 8 8 0 0 1 1.36 1.4 18.86 18.86 0 0 1 2.19 3.72 22 22 0 0 1 1.4 4.76 23.64 23.64 0 0 1 -1.4 12.39 20.66 20.66 0 0 1 -2.58 4.57 18.85 18.85 0 0 1 -2.84 2.95 21.52 21.52 0 0 1 -2.51 1.58 14.76 14.76 0 0 0 -3.73-1.78c-.78 0-1.13.37-1.19.69a1 1 0 0 0 0 .23c.72.32 1.44.65 2.12 1s1.49.89 2.2 1.38a16.43 16.43 0 0 1 1.83 1.43q.4.36.77.74l.1.09a.83.83 0 0 1 .11.13c.44.45.86.88 1.23 1.32l.29.34a19.89 19.89 0 0 1 2.53 4.08l.25.58.25.64a11.45 11.45 0 0 1 .38 1.18l.08.26.08.31.08.31c.1.41.18.82.25 1.22a25.12 25.12 0 0 1 .27 3.74v.38l-.06.6v.63a23 23 0 0 1 -.52 2.71c-.18.71-.43 1.41-.68 2.1a20.74 20.74 0 0 1 -2.18 4 19.63 19.63 0 0 1 -1.52 1.78c-.5.52-1 1-1.6 1.48s-1.31 1-2 1.38a14.9 14.9 0 0 1 -1.76.93 21.68 21.68 0 0 1 -5.13 1.55l-.33.13c-1.09.08-1.88.13-2.71.13-.47 0-.79 0-1.11 0h-.28-.56c-.38-.05-.79-.11-1.21-.18h-.34l-.33-.06-.49-.1-.6-.12a12.68 12.68 0 0 1 -1.53-.44l-.5-.21-.33-.14-.28-.12-.76-.35.69-1.38.2-.42.36.19.39.14.4.17a12.82 12.82 0 0 0 1.23.41l.26.08h.25l.33.08.33.08c.36.08.72.15 1.09.2l.67.09a19 19 0 0 0 2 .11 18 18 0 0 0 3.31-.34 15.7 15.7 0 0 0 3.31-1.06l.35-.15a13.22 13.22 0 0 0 1.59-.83 14.9 14.9 0 0 0 2-1.4 16.54 16.54 0 0 0 2.34-2.31 17.28 17.28 0 0 0 2.05-3.06 19.49 19.49 0 0 0 1.12-2.84 16.09 16.09 0 0 0 .64-3.51 16.64 16.64 0 0 0 -.06-3.16l-.12-.88a16.55 16.55 0 0 0 -1.81-5.29 3.93 3.93 0 0 0 -.3-.51 15.62 15.62 0 0 0 -1.84-2.55 17.72 17.72 0 0 0 -1.3-1.33l-.06-.05c-.45-.36-.91-.7-1.38-1l.14.09a36.57 36.57 0 0 0 -4-2.35h-.26-.37a.7.7 0 0 0 -.42.32.72.72 0 0 0 -.09.35h-1.46a20.32 20.32 0 0 0 .86-3.62c0-.67.07-1.32.09-2a4.64 4.64 0 0 0 .91-.46 7.33 7.33 0 0 0 1-.81 8.48 8.48 0 0 0 1.69-1.95 9.81 9.81 0 0 0 1.13-2.21 12.32 12.32 0 0 0 .61-2.54 17.41 17.41 0 0 0 -1.58-9.47c.29-.59.44-.9.6-1.2a5.61 5.61 0 0 1 .74-1.11c.2-.23.4-.45.61-.67s.43-.4.66-.58c.45-.32.63-.45.83-.57s.42-.24.63-.35.31-.15.31-.19l.38-.09.4-.14a3.48 3.48 0 0 1 .37-.09c.82-.18 1-.28 1.15-.49a.86.86 0 0 0 .11-.64.83.83 0 0 0 -.39-.46.74.74 0 0 0 -.39-.13 8.51 8.51 0 0 0 -2.48.69 10.45 10.45 0 0 0 -1.22.68 7.51 7.51 0 0 0 -.76.57 10.47 10.47 0 0 0 -1.74 1.87 10.61 10.61 0 0 0 -1.09 2.06.82.82 0 0 0 -.33 1.1c.15.3.29.59.42.89a18.24 18.24 0 0 1 1.08 3.95 19.56 19.56 0 0 1 0 3.32c-.09.59-.18 1.06-.3 1.55a10.43 10.43 0 0 1 -.44 1.36c-.17.37-.34.73-.53 1.09a7.83 7.83 0 0 1 -.79 1.15 11.74 11.74 0 0 1 -1.68 1.73c0-.06 0-.24 0-.49-.07-1.09-.15-2-.24-3 .12-.9.26-1.72.4-2.52l.26-1.55c.23-1.55.45-3.07.57-4.64.09-1.33.13-2.66.14-4v-.81c0-1.29-.08-2.48-.17-3.68a27.83 27.83 0 0 1 3.78-3.86l.16-.21a.22.22 0 0 0 0 .05s0 0 0 0zm-129.59-.9h9.66 4.23 3.95l.11.82v.26l.25 1.61.11.28.08 1.2.11 1.26v.61c.07 1.39.1 2.6.08 3.8 0 .9-.06 1.63-.11 2.35v.3.31.31c-.09 1.29-.21 2.59-.38 3.87l-.06.39-.12.73v.29c-.1.55-.14.85-.22 1.12l-.1.49-.09.52-.08.3-.07.34c-.12.52-.25 1-.38 1.56a58.67 58.67 0 0 1 -2.23 6.77l-.12.25a50.5 50.5 0 0 1 -5.35 9.47l-.75.91c-.62.76-1.28 1.49-1.94 2.21a43.33 43.33 0 0 1 -4.1 3.85l-.19.21a41.24 41.24 0 0 1 -7.41 4.35 33.06 33.06 0 0 1 -7.37 2 28.16 28.16 0 0 1 -4.11.26 26.5 26.5 0 0 1 -3.77-.23 33.2 33.2 0 0 1 -7.36-2 36.35 36.35 0 0 1 -7.24-4.21l-.31-.11a47.07 47.07 0 0 1 -6.86-7.1 51.45 51.45 0 0 1 -3.21-4.83 48.21 48.21 0 0 1 -2.47-5.1 61 61 0 0 1 -2.58-8.49c1.87-3.79 3.67-7.11 5.51-10.13a94.52 94.52 0 0 1 7.73-10.86h.48 1.2 2.22l2.2.05h2.77 1.13c1.53 0 3.07.06 4.6.06h.52c3.26 0 6.53-.06 9.8-.13l2-.05 4.07-.07h2.15zm23.53 39.71.4-1.28.21-.68c.25-.79.5-1.59.73-2.39.43-1.66.73-3.21 1.19-5.56s.71-4.29 1-6.51a130.65 130.65 0 0 0 .91-13.4c0-.37 0-.74 0-1.12l1.13-.11c1.15-.14 2.22-.27 3.24-.36 1.29-.11 2.5-.16 3.71-.16h1.14a26.69 26.69 0 0 1 3.74.47 34.49 34.49 0 0 1 8.42 2.63l.27.11a40.55 40.55 0 0 0 .74 6.24l.23 1.32a6.93 6.93 0 0 0 .1.69l.09.47.08.37.14.67.15.68c.21.9.43 1.79.7 2.67a49.67 49.67 0 0 0 2.23 6.22 46.6 46.6 0 0 0 5.06 8.84c.54.78 1.11 1.54 1.71 2.28.86 1 1.66 2 2.45 2.75a40.45 40.45 0 0 0 6.54 5.28 33 33 0 0 0 7.08 3.53 31.29 31.29 0 0 0 4.94 1.4 35.55 35.55 0 0 0 4.81.56h1.11a36.07 36.07 0 0 0 4.08-.25 33.61 33.61 0 0 0 13.83-5.06 40.56 40.56 0 0 0 7.69-6.55 47.39 47.39 0 0 0 9.47-16l-.68 2-.43 1.83c-.73 3.12-1.67 6.54-2.89 10.45-1 3-2 6.08-3.15 9.06s-2.44 6.09-4 9.58a158.58 158.58 0 0 1 -9.1 17 102.21 102.21 0 0 1 -16.12 20.09 75.78 75.78 0 0 1 -15.39 11.15 71 71 0 0 1 -8 3.57 75.57 75.57 0 0 1 -9.13 2.7c-2.34.5-4.72.9-7.08 1.17a.78.78 0 0 0 -.68.85.77.77 0 0 0 .73.72 83.8 83.8 0 0 0 9.36-1.63 66.28 66.28 0 0 0 8.79-2.67c-1.51 6.28-1.57 11.73-.2 16.64a20.44 20.44 0 0 0 4.18 7.9 19.49 19.49 0 0 0 3.13 2.81 18.32 18.32 0 0 0 3.75 2.08 30.53 30.53 0 0 0 8.46 2.13 74.76 74.76 0 0 0 8.14.4h1.09 2.47a67.52 67.52 0 0 1 -9.24 10.26 62.1 62.1 0 0 1 -12.24 8.36 66.35 66.35 0 0 1 -7.11 3.07 61.19 61.19 0 0 1 -7.73 2.19 89.76 89.76 0 0 1 -18.68 1.92c-1.55 0-3.1 0-4.64-.12a78 78 0 0 1 -19.7-3.51 54.51 54.51 0 0 1 -12.32-5.89 41.05 41.05 0 0 1 -6.86-5.71 41.38 41.38 0 0 0 3.55-4.19 78.2 78.2 0 0 0 5.44-8.18 62.85 62.85 0 0 0 4.24-8.73 47.44 47.44 0 0 0 3-20.63 73.51 73.51 0 0 0 14.23 2.91.84.84 0 0 0 .91-.6.82.82 0 0 0 -.16-.64.74.74 0 0 0 -.45-.3 77.47 77.47 0 0 1 -16.33-3.68 81.17 81.17 0 0 1 -18.47-9.38 82.43 82.43 0 0 1 -15.9-14.37 98.83 98.83 0 0 1 -13.67-21.47c-.83-1.8-1.62-3.63-2.36-5.46a76.72 76.72 0 0 1 -2.68-7.58 110.81 110.81 0 0 1 -2.95-11.35 9.07 9.07 0 0 0 1.81 2.59 41.25 41.25 0 0 0 7.74 6.55 33.43 33.43 0 0 0 13.81 5.06 35.12 35.12 0 0 0 4 .25h1.09a36.39 36.39 0 0 0 4.86-.56 32 32 0 0 0 4.9-1.4 34.65 34.65 0 0 0 7.12-3.53 39.27 39.27 0 0 0 6.42-5.28 31 31 0 0 0 2.44-2.75c.6-.74 1.17-1.52 1.72-2.32a45.61 45.61 0 0 0 5.09-8.79 61.05 61.05 0 0 0 2.24-6.22c.26-.89.48-1.78.7-2.68l.14-.68.15-.68.05-.32c.09-.4.17-.8.22-1.22l.08-.58.09-.56a58.51 58.51 0 0 0 1-8.67c1.85-.47 3.43-.86 4.89-1.15-.27 4.68-.64 9-1.13 12.73-.36 2.55-.8 5.09-1.26 7.37a65.92 65.92 0 0 1 -1.63 6.41c-.24.74-.5 1.48-.76 2.21l-.11.32-.18.53c-.19.54-.37 1.08-.53 1.61a12.15 12.15 0 0 0 -.68 4.18 6.25 6.25 0 0 0 1.37 3.58 12.29 12.29 0 0 0 4.45 3.06c.45.2.91.38 1.38.55a9.65 9.65 0 0 0 1.41.38 16.64 16.64 0 0 0 3.38.32 29.9 29.9 0 0 0 3.87-.3c1.15-.16 2.27-.37 3.39-.62a1.07 1.07 0 0 0 .74-1 1 1 0 0 0 -1-1l-1.41.03c-1.56.11-3.13.22-4.68.22a22.9 22.9 0 0 1 -2.92-.16l-1.41-.27a7 7 0 0 1 -1.43-.47 16.31 16.31 0 0 1 -3-1.65 7.92 7.92 0 0 1 -1.1-1.07 3.41 3.41 0 0 1 -.44-.78c-.08-.29-.16-.6-.23-.94a7.16 7.16 0 0 1 0-1.41v-.27s0 0 0 0c.24-1.11.56-2.19.86-3.13m-72.25-.67a15.19 15.19 0 0 1 -2.4-2.4 21.89 21.89 0 0 1 -2.54-4.24c-.11-.25-.22-.51-.31-.77a1.82 1.82 0 0 0 -.21-.34c.19-1 .38-2.14.6-3.29.35-.93.67-1.68 1-2.4a14.31 14.31 0 0 0 .56 2.09 47.29 47.29 0 0 0 3.12 7.43c.23 1.43.51 2.86.81 4.3-.21-.12-.4-.24-.58-.37m93.72 133.9c2.69-.08 5.63-.3 8.79-.66a72.75 72.75 0 0 0 8.77-1.62 55.74 55.74 0 0 0 28.52-16.88 62.73 62.73 0 0 0 6.56-8.66l1.59.05h2.55.65a56.28 56.28 0 0 1 6 .34c-1.36 2.47-2.65 4.65-3.83 6.46a57.76 57.76 0 0 1 -4.6 5.94 58.86 58.86 0 0 1 -5.43 5.48 67.13 67.13 0 0 1 -6.86 5.33 74.43 74.43 0 0 1 -7.53 4.47 82.09 82.09 0 0 1 -8.86 3.83 80.29 80.29 0 0 1 -9.18 2.63 98.26 98.26 0 0 1 -20.66 2.16c-1.58 0-3.17 0-4.75-.11a94 94 0 0 1 -11.47-1.3 79.84 79.84 0 0 1 -10.94-2.66c-2.91-1-5.58-2.06-8.18-3.25a62.5 62.5 0 0 1 -7.5-4.22 51.66 51.66 0 0 1 -8.37-6.85 72.64 72.64 0 0 0 6.36-6.45 32.81 32.81 0 0 0 5.68 5.07 47.75 47.75 0 0 0 7.42 4.38 55 55 0 0 0 8.25 3.17 70.59 70.59 0 0 0 8.93 2.14 90.28 90.28 0 0 0 15.24 1.25h2.86m64.9-27.37a5.79 5.79 0 0 0 1.26.29c.43.06.86.14 1.28.23l.39.05a48.05 48.05 0 0 1 4.73 1.28l-.77.36-.88.56-2 1.31a91.13 91.13 0 0 1 -9 4.9 62 62 0 0 0 5.07-9m-69.84 39.95a192.5 192.5 0 0 0 22.12-1.62c6.2-.85 12.58-2.05 18.95-3.58a183.54 183.54 0 0 0 18-5.28 134.89 134.89 0 0 0 17.81-7.47 82.75 82.75 0 0 0 8.35-4.8c1.25-.84 2.49-1.74 3.72-2.69.65-.51 1.29-1 1.91-1.59.35-.32.7-.64 1-1l.4-.39c.94 1.31 1.84 2.52 2.79 3.92a48 48 0 0 1 4.88 10.14 5 5 0 0 0 -1.35.75l-.83.58-1.12.77c-1.29.9-2.58 1.81-3.88 2.69s-2.64 1.7-4 2.5-2.51 1.38-3.79 2a174.07 174.07 0 0 1 -20.52 8.81 186.13 186.13 0 0 1 -21.76 6.17 210.49 210.49 0 0 1 -44.33 4.56c-3.93 0-7.87-.1-11.71-.3a260.48 260.48 0 0 1 -66.37-12.42l8.89-6.54 1.62-1.21c2.42-1.8 4.84-3.61 7.22-5.47a123.16 123.16 0 0 0 18.76 6.42 152 152 0 0 0 21.51 4 173 173 0 0 0 19.2 1h2.44m76.19 25.55c5.15-1.58 10.16-3.29 14.9-5.09a81.8 81.8 0 0 0 7.55-3.17c1.18-.56 2.33-1.17 3.47-1.82.65-.37 1.29-.78 1.92-1.21.25-.16.49-.34.73-.52l-.19.92v.66.5c-.09 1.36-.18 2.77-.3 4.2s-.29 3-.46 4.55l-.08.84-.1.89c-.15 1.39-.3 2.78-.41 4.19l-.48.2c-.42.24-.83.5-1.24.76-.79.49-1.56 1-2.32 1.51l-.53.35c-1.76 1.16-3.52 2.31-5.35 3.38-1.53.87-3.2 1.69-4.69 2.42s-3.08 1.43-4.63 2.08l.35.11a168 168 0 0 1 -39.9 10 297.48 297.48 0 0 1 -40 2.39h-1.58c-5.93 0-12.35-.17-19.63-.49-3.78-.14-7.15-.34-10.59-.62-3.24-.23-7-.61-11.41-1.19l-.64-.08-.62-.09a204.42 204.42 0 0 1 -51.37-13.6c-1.66-.69-3.32-1.43-5-2.18-.16-2.19-.35-4.69-.33-7.18l-.25.24a44.62 44.62 0 0 1 1.14-6.61c.12-.4.22-.7.32-1 25.56 10.63 54 16.37 84.56 17.09q3.06.08 6.13.07a272.5 272.5 0 0 0 81-12.43"/><path d="m323 229.27a.69.69 0 0 0 -.41.27 4.86 4.86 0 0 0 -.75 1 6 6 0 0 0 -.31.67 5.47 5.47 0 0 0 -.21.9.64.64 0 0 0 .14.46.69.69 0 0 0 .45.23.62.62 0 0 0 .45-.15.66.66 0 0 0 .23-.44c0-.12 0-.25.08-.37v.16c0-.11.07-.23.1-.35a4 4 0 0 1 .31-.67l-.08.15.2-.32a5.43 5.43 0 0 1 .47-.57.63.63 0 0 0 .11-.48.62.62 0 0 0 -.27-.41.61.61 0 0 0 -.37-.12h-.14"/></g></svg>