<svg viewBox="0 0 453.54 453.54" xmlns="http://www.w3.org/2000/svg" xmlns:xlink="http://www.w3.org/1999/xlink"><linearGradient id="a" gradientUnits="userSpaceOnUse" x1="14.17" x2="439.37" y1="226.77" y2="226.77"><stop offset="0" stop-color="#2f9c9b"/><stop offset="1" stop-color="#5dbe8e"/></linearGradient><clipPath id="b"><circle cx="226.77" cy="226.77" r="212.6"/></clipPath><circle cx="226.77" cy="226.77" fill="url(#a)" r="212.6"/><g clip-path="url(#b)"><path d="m140.6 243.52s-17.08-10.42-18.33 12.08 22.08 30.83 32.08 33.33c0 0 10.88 29.62 49 44.39 0 0 8.95 37.17-34.81 53.06 0 0 2.08 31.3 52.91 30.89s65-27.92 65-27.92-36.42-7.91-39-58.33c0 0 34.29-1.46 50-42.81 0 0 22.79 2.39 30.71-21.77s-5.4-25.64-9.57-22.61c0 0 35.41-152.39-84.59-152.39s-101.73 135-93.4 152.08z" fill="#cfe7ce"/><g fill="none"><path d="m170.72 388.53.58.44.82.62.8.59q-1.05-.84-2.07-1.71z"/><path d="m280.24 392.11c.71-.51 1.42-1.06 2.14-1.6s1.2-.87 1.8-1.35l-.22-.1q-2 1.75-4.11 3.37z"/><path d="m206.15 331.06a73.32 73.32 0 0 0 20.55 1.74 73.71 73.71 0 0 0 20.7-1.78c.48-.11.93-.26 1.4-.38l1.48-.4a67.34 67.34 0 0 0 28.2-16.24 96.16 96.16 0 0 0 18.91-25.77 1.43 1.43 0 0 1 1.11-.77 44.39 44.39 0 0 0 9-1.93 14.35 14.35 0 0 0 1.74-.71c13-6.58 20.7-18.64 19.68-30.72a18.32 18.32 0 0 0 -1.68-6.62 7.61 7.61 0 0 0 -2.17-2.82c-1.62-1.18-3.84-1.45-6.58-.81a13.81 13.81 0 0 0 -4.72 2.54 1.41 1.41 0 0 1 -1.5.11c-3.28 4.5-3.93 1.42-3.94 3.5.08-30.68 3.12-66-7.53-94.73-4.58-12.38-12.31-23.31-22.5-30.45-3.95-2.77-10.75-6.45-23.41-8.08 7.37 14 15.65 22.64 29.83 23.94-24.84 4.53-58.74 7.46-79.47-9 9 8.74 19.29 15.18 28.64 23.48-16.52 2.63-37.71-7.27-50-18.6a60.44 60.44 0 0 1 -8.3-10.13 63.62 63.62 0 0 0 -7.59 26.7 39 39 0 0 1 -6.22-23.31l-.23.23c-18.34 20.09-26 53.53-22 96.71.55 6.06 1.39 12.18 2.48 18.19a1.44 1.44 0 0 1 -2.27 1.41 13.83 13.83 0 0 0 -4.72-2.54c-2.75-.64-5-.36-6.58.81-.06 0-.1.11-.15.15-2 1.59-3.31 4.77-3.69 9.29-1 12.09 6.69 24.14 19.67 30.72a17.12 17.12 0 0 0 2.41.92 45.81 45.81 0 0 0 8.37 1.71 1.43 1.43 0 0 1 1.11.77c5.22 10.15 12.75 21.1 23.27 29.63a65.92 65.92 0 0 0 23.86 12.44l1.47.4c.44.14.89.29 1.37.4zm101-60.12a25.51 25.51 0 0 1 7.45-10.78 11.68 11.68 0 0 1 5.93-3 26.93 26.93 0 0 0 -4.33 4.54c-1.27 1.63-2.52 3.28-3.67 5s-2.22 3.41-3.36 5.22a27.35 27.35 0 0 1 -3.9 5.22 57.46 57.46 0 0 1 1.87-6.2zm-30.82-37.32a7.51 7.51 0 1 1 0-10.62 7.51 7.51 0 0 1 -.01 10.61zm-9.45-56.15a26.11 26.11 0 0 1 10.44.76 21.69 21.69 0 0 1 9.51 5.68 20.76 20.76 0 0 1 5.22 9.55 45 45 0 0 1 -10.07-2l-7.86-2.23a72.49 72.49 0 0 1 -8.36-2.83 45.61 45.61 0 0 1 -9-5 20.28 20.28 0 0 1 10.11-3.94zm-40.56 117.1a1.15 1.15 0 0 1 -.75-.48 1.5 1.5 0 0 1 -.22-1.32c.91-.77 1-1.07 1.3-1.06s.46.33 1 1.39c-.19 1.2-.8 1.49-1.34 1.46zm9.25-50.1a86.81 86.81 0 0 0 -3.15-10.47c-2.52-6.87-5.64-13.59-8.44-20.51a107.39 107.39 0 0 1 10.93 19.54 61 61 0 0 1 3.41 10.81 40 40 0 0 1 .85 11.4l-.05.68-.52.28a17.61 17.61 0 0 1 -4.26 1.71 12.74 12.74 0 0 1 -4.59.19 28.4 28.4 0 0 1 -8.29-2.83 36.36 36.36 0 0 0 8.39 1.34 12.47 12.47 0 0 0 6.95-2.08 48.86 48.86 0 0 0 -1.24-10.07zm-19.57 35.53a28.37 28.37 0 0 0 10.9 1.86 21.8 21.8 0 0 0 2.76-.21l1.38-.15 1.36-.33c.9-.22 1.83-.35 2.72-.65s1.76-.64 2.66-.94c1.8-.58 3.44-1.58 5.23-2.32s3.33-2 5.11-2.85c-1.37 1.4-2.85 2.72-4.35 4a38.84 38.84 0 0 1 -5.08 3.19 27.55 27.55 0 0 1 -11.69 3.09 25.57 25.57 0 0 1 -21-10.31 38.69 38.69 0 0 0 10 5.62zm-71.59-8c-1.14-1.81-2.15-3.56-3.36-5.22s-2.41-3.35-3.67-5a34.37 34.37 0 0 0 -3.38-3.78c-.32-.29-.64-.57-1-.84.23 0 .45.11.68.15a12.56 12.56 0 0 1 5.25 2.82 25.52 25.52 0 0 1 7.45 10.78 57.48 57.48 0 0 1 1.89 6.21 27.37 27.37 0 0 1 -3.88-5.19zm43.52-38.31a7.51 7.51 0 1 1 0-10.62 7.51 7.51 0 0 1 -.02 10.55zm-.13-47.19a72.48 72.48 0 0 1 -8.36 2.83l-7.86 2.23a45 45 0 0 1 -10.07 2 20.76 20.76 0 0 1 5.22-9.55 21.69 21.69 0 0 1 9.51-5.68 26.12 26.12 0 0 1 10.44-.76 20.28 20.28 0 0 1 10.11 3.93 45.61 45.61 0 0 1 -9.01 4.92z"/></g><path d="m186.1 379.52c16.78-12.52 19.9-32.66 20.07-45.52a76.08 76.08 0 0 0 20.53 1.66q2.18.11 4.32.11a75.15 75.15 0 0 0 16.35-1.77c.13 12.85 3.3 33 20.07 45.5a92.9 92.9 0 0 0 16.47 9.5q1.16-1 2.27-2.11a93.14 93.14 0 0 1 -17-9.71c-16.12-12-18.93-31.71-18.94-43.92 13.77-3.68 25.89-11.44 36-23.14 5.94-4.12 12.52-11.69 18.88-21a26.71 26.71 0 0 0 5.49-1.83c14-7.11 22.37-20.27 21.24-33.53-.37-4.27-1.45-7.53-3.21-9.76 3.52-9.27 5.92-17.89 6.61-24.64 3.89-38 1.66-50.26 0-63.42 1.88 4.42 3.59 9.36 5.29 13.71 4-8.15 4.17-22.4 1.22-31.12-3.69-10.94-12.94-16.27-18-25.47 5.64 2.32 12.41 2.82 18.22 0-13.15-10.76-15.66-11-29.25-16.61 12.25-4.2 25.79-19.15 24.61-34.64-8.21 10.84-21 15.34-35.31 16.38 3.52-5 6.21-10.68 6.64-16.82-6.09 4.32-14.67 10.25-21.17 9.63a41.64 41.64 0 0 0 8-19.55c-2.8 4.58-9.5 7.51-13.37 9.35-11.5 5.47-25 6-36.48 3.87a102.82 102.82 0 0 1 -29.16-10.1c-5.45-2.85-10.84-5.07-16.87-5.7-10.38-1.09-22 8.88-29.62 18.75a30.31 30.31 0 0 0 -4.66 9c-.18-4.43-.25-8.9-.08-13.32.21-5.62 2.5-10.42 3.08-15.9-4.5 5-13.58 21.86-8.31 28.67-4.32-3.84-6.3-12.93-6.54-19.67-3.62 8.87-2.1 18.75.79 27.18a31 31 0 0 0 -6.84 3.18c-11.59 7.71-20.27 20.08-26.55 32.94-8.71 17.86-17 52.13-5.36 70.69a26.54 26.54 0 0 0 1.84-6.93c-.41 14.31 1.42 34.21 5.41 46.56 1.37 4.23 2.86 8.23 4.42 12.12-.14.09-.3.14-.43.24-2.85 2.08-4.54 6-5 11.52-1.13 13.26 7.2 26.42 21.23 33.53a27.56 27.56 0 0 0 5.79 1.9 80.7 80.7 0 0 0 18.59 20.89c10.12 11.72 22.24 19.51 36 23.18 0 12.21-2.83 31.88-19 43.89a90.13 90.13 0 0 1 -15.86 9.17q1.13 1.06 2.32 2.08a90.14 90.14 0 0 0 15.26-9.02zm17.18-49.23a65.92 65.92 0 0 1 -23.86-12.44c-10.52-8.54-18-19.49-23.27-29.63a1.43 1.43 0 0 0 -1.11-.77 45.81 45.81 0 0 1 -8.37-1.71 17.12 17.12 0 0 1 -2.41-.92c-13-6.58-20.7-18.64-19.67-30.72.38-4.52 1.67-7.7 3.69-9.29.05 0 .09-.11.15-.15 1.62-1.18 3.83-1.45 6.58-.81a13.83 13.83 0 0 1 4.72 2.54 1.44 1.44 0 0 0 2.27-1.39c-1.1-6-1.93-12.13-2.48-18.19-3.93-43.18 3.69-76.63 22-96.71l.23-.23a39 39 0 0 0 6.25 23.26 63.62 63.62 0 0 1 7.63-26.77 60.44 60.44 0 0 0 8.3 10.13c12.3 11.33 33.49 21.23 50 18.6-9.35-8.3-19.6-14.74-28.64-23.48 20.73 16.49 54.63 13.56 79.47 9-14.18-1.3-22.47-9.94-29.83-23.94 12.66 1.63 19.46 5.31 23.41 8.08 10.19 7.14 17.92 18.07 22.5 30.45 10.65 28.76 7.6 64.05 7.53 94.73 0-2.08.66 1 3.94-3.5a1.41 1.41 0 0 0 1.5-.11 13.81 13.81 0 0 1 4.72-2.54c2.74-.64 5-.37 6.58.81a7.61 7.61 0 0 1 2.17 2.82 18.32 18.32 0 0 1 1.68 6.62c1 12.09-6.69 24.14-19.68 30.72a14.35 14.35 0 0 1 -1.74.71 44.39 44.39 0 0 1 -9 1.93 1.43 1.43 0 0 0 -1.11.77 96.16 96.16 0 0 1 -18.95 25.84 67.34 67.34 0 0 1 -28.21 16.27l-1.48.4c-.47.12-.92.26-1.4.38a73.71 73.71 0 0 1 -20.7 1.78 73.32 73.32 0 0 1 -20.55-1.74c-.48-.11-.93-.26-1.4-.38z"/><path d="m176.23 178.23a21.69 21.69 0 0 0 -9.51 5.68 20.76 20.76 0 0 0 -5.22 9.55 45 45 0 0 0 10.07-2l7.86-2.23a72.48 72.48 0 0 0 8.36-2.83 45.61 45.61 0 0 0 9-5 20.28 20.28 0 0 0 -10.11-3.93 26.12 26.12 0 0 0 -10.45.76z"/><path d="m227 284.69a27.55 27.55 0 0 0 11.72-3.09 38.84 38.84 0 0 0 5.08-3.19c1.5-1.32 3-2.64 4.35-4-1.78.89-3.4 2-5.11 2.85s-3.43 1.74-5.23 2.32c-.9.3-1.79.61-2.66.94s-1.82.43-2.72.65l-1.36.33-1.38.15a21.8 21.8 0 0 1 -2.76.21 28.37 28.37 0 0 1 -10.93-1.86 38.69 38.69 0 0 1 -10-5.58 25.57 25.57 0 0 0 21 10.27z"/><path d="m226.64 291.71c-.3 0-.39.28-1.3 1.06a1.5 1.5 0 0 0 .22 1.32 1.15 1.15 0 0 0 .75.48c.53 0 1.15-.26 1.37-1.46-.57-1.11-.77-1.33-1.04-1.4z"/><path d="m274.12 189.25 7.86 2.23a45 45 0 0 0 10.07 2 20.76 20.76 0 0 0 -5.22-9.55 21.69 21.69 0 0 0 -9.51-5.68 26.11 26.11 0 0 0 -10.44-.76 20.28 20.28 0 0 0 -10.11 3.93 45.61 45.61 0 0 0 9 5 72.49 72.49 0 0 0 8.35 2.83z"/><path d="m143.39 265.07a26.13 26.13 0 0 0 -4.43-4.91 12.56 12.56 0 0 0 -5.25-2.82c-.23 0-.45-.13-.68-.15.35.27.67.56 1 .84a34.37 34.37 0 0 1 3.35 3.69c1.27 1.63 2.52 3.28 3.67 5s2.22 3.41 3.36 5.22a27.37 27.37 0 0 0 3.9 5.22 57.48 57.48 0 0 0 -1.89-6.21 25.89 25.89 0 0 0 -3.03-5.88z"/><path d="m312.51 266.7c1.15-1.71 2.41-3.35 3.67-5a26.93 26.93 0 0 1 4.33-4.54 11.68 11.68 0 0 0 -5.93 3 25.51 25.51 0 0 0 -7.45 10.78 57.46 57.46 0 0 0 -1.89 6.21 27.35 27.35 0 0 0 3.9-5.22c1.15-1.81 2.16-3.56 3.37-5.23z"/><ellipse cx="182.6" cy="228.31" rx="7.51" ry="7.51" transform="matrix(.70710678 -.70710678 .70710678 .70710678 -107.96 195.99)"/><ellipse cx="271.01" cy="228.31" rx="7.51" ry="7.51" transform="matrix(.70710678 -.70710678 .70710678 .70710678 -82.06 258.51)"/><path d="m221.46 255.29a28.4 28.4 0 0 0 8.29 2.83 12.74 12.74 0 0 0 4.59-.19 17.61 17.61 0 0 0 4.26-1.71l.52-.28.05-.68a40 40 0 0 0 -.85-11.4 61 61 0 0 0 -3.41-10.81 107.39 107.39 0 0 0 -10.91-19.53c2.8 6.92 5.92 13.64 8.44 20.51a86.81 86.81 0 0 1 3.15 10.44 48.86 48.86 0 0 1 1.24 10.09 12.47 12.47 0 0 1 -6.95 2.08 36.36 36.36 0 0 1 -8.42-1.35z"/><path d="m348.38 446.57c-15.09-38.81-35.74-47.92-55.71-56.73-1.74-.77-3.48-1.53-5.2-2.32l-1.29-.59q-1.1 1.08-2.27 2.11l.22.1c-.6.47-1.2.89-1.8 1.35s-1.43 1.09-2.14 1.6l-.43.3a79.71 79.71 0 0 1 -13.65 8.32l-.4.21c-.93.46-1.85.87-2.77 1.29-.66.3-1.32.62-2 .9-1 .41-1.93.77-2.89 1.15-.6.23-1.2.49-1.8.7-1.21.43-2.4.81-3.6 1.18l-1.78.53c-1.26.36-2.52.7-3.77 1-.65.15-1.29.27-1.94.4-.85.18-1.71.37-2.56.52s-1.4.21-2.09.31-1.56.24-2.33.33-1.42.14-2.13.2-1.48.14-2.22.18-1.42.06-2.13.08-1.42.05-2.13.06-1.37 0-2 0h-.84c-17.18 0-38.44-7.32-53.85-19.6l-.8-.59-.82-.62-.58-.44.13-.06q-1.19-1-2.32-2.08l-1.13.53c-2.16 1-4.34 2-6.53 2.93-20 8.81-40.62 17.92-55.71 56.73l-.76 2h244.78z" fill="#1f5173"/></g></svg>