<svg viewBox="0 0 453.54 453.54" xmlns="http://www.w3.org/2000/svg" xmlns:xlink="http://www.w3.org/1999/xlink"><linearGradient id="a" gradientUnits="userSpaceOnUse" x1="14.17" x2="439.37" y1="226.77" y2="226.77"><stop offset="0" stop-color="#2f9c9b"/><stop offset="1" stop-color="#5dbe8e"/></linearGradient><clipPath id="b"><circle cx="226.77" cy="226.77" r="212.6"/></clipPath><circle cx="226.77" cy="226.77" fill="url(#a)" r="212.6"/><g clip-path="url(#b)"><path d="m342.27 233.52c0-56.61-49.81-102.52-111.27-102.52s-111.25 45.89-111.25 102.5c0 48.75 36.94 89.55 86.44 99.94a68.53 68.53 0 0 1 -5.19 27.56c-10 23.77-44 29.4-44 29.4 12.19 30.63 71.56 31.88 71.56 31.88s75-27.5 63.75-31.87-33.75-15.62-42.5-30.62c-3.69-6.33-4.71-15.76-4.66-24.57 54.75-6.4 97.12-49.49 97.12-101.7z" fill="#cfe7ce"/><path d="m162.79 389.77s26.25-11 30-17.19c0 0 9.48 13.54 31.56 11.67s35-10.62 35-10.62 20.42 14.58 28.44 15.31v22.06h-126.25s1.41-21.07 1.25-21.23z" fill="#89ca8d"/><path d="m382.95 244.33c-6.11-11.68-17.65-17.49-27-25.89-10.06-9-10.76-22.35-12.14-34.91-3-27.08-4.15-50.75-24-71.57-31.4-33-95.95-44.2-129.42-9-3.07.39-6.44-.06-9.46.36-10 1.36-21.41 3.91-30.28 8.67-20.44 11-33.51 26.22-37.39 49.25-1.86 11-1.15 22.65-1.06 33.8.07 8.16 1.9 16.25-1.6 24-7.33 16.15-32.05 21.05-32.29 41.3-.2 17.52 11.53 31.81 21.43 44.6-13.7 4-22.8 19.75-19.42 34.4 2.5 10.84 13.25 17 23.27 18.81a112.87 112.87 0 0 0 17.28 2.15c1.34 0 5.33-.75 6.5 0 1.82 1.2 2.29 5.55 3.49 7.48a43.75 43.75 0 0 0 9.08 9.75 52.9 52.9 0 0 0 22.59 10.63l-1.41.64c-15.92 7.29-32.5 17-44.82 48.72l-.69 1.76h220.64l-.69-1.76c-12.3-31.64-28.56-41.35-45.56-49.06 9.82-6.37 18.22-15.06 21.53-24.83 4.46 2.16 8.52 6.24 14 6.86 7.22.82 14.23-3.28 19.74-7.48 11.91-9.09 20.53-30.21 10.66-43.87 13.9-.13 23-20.83 27.81-30.82a49.44 49.44 0 0 0 -.79-43.99zm-96.25 145.95-.34.4c-.13.15 1.19 4.76.91 5s-1.55 1.44-1.85 1.7-4.83 4.34-5.18 4.55-.78.48-1.18.72-6.84 3.09-7.3 3.24-.79.25-1.19.36-2.24.55-2.65.63-3.75.5-4.28.53-11.39-1.65-11.69-1.72c-1-.24-1.92-.52-2.89-.85s-1.89-.69-2.86-1.09l-.91-.4c-.71-.31-1.43-.62-2.15-1-.12-.06-2.24.09-2.37 0-.92-.45-1.84-.94-2.76-1.46l-.43-.24q-1.36-.78-2.68-1.65l-.41-.28c-.88-.59-1.74-1.21-2.57-1.86l-.34-.28c-.84-.67-1.66-1.37-2.43-2.11-.07-.07 1.86-3.75 1.79-3.82a31.27 31.27 0 0 1 -2.26-2.4 25.65 25.65 0 0 1 -1.9-2.59l-.09-.14c.5 0 1-.11 1.5-.16.67-.06 1.34-.13 2-.21.89-.11 1.78-.25 2.67-.39.66-.11 1.31-.21 2-.33.92-.17 1.83-.38 2.74-.58.62-.14 1.25-.27 1.87-.43 1-.24 1.93-.53 2.89-.81.55-.16 1.1-.3 1.64-.47 1.19-.38 2.36-.79 3.53-1.23l.88-.31q2.16-.83 4.22-1.78c.42-.19.81-.41 1.23-.61.94-.46 1.88-.91 2.79-1.4.51-.28 1-.57 1.48-.86s1.26-.7 1.85-1.08c.91.81 1.78 1.52 2.64 2.17 6.9 5.14 14.43 8.46 21.72 11.68l2.66 1.18zm-123.58.45 3.88-1.73.53-.24c7.29-3.22 14.82-6.54 21.72-11.68a39.81 39.81 0 0 0 3.73-3.15c.28.32.59.6.88.91s.79.84 1.2 1.24 1 .89 1.47 1.32.84.73 1.28 1.07 1.07.77 1.61 1.14.89.62 1.36.9 1.17.65 1.76 1 .94.51 1.43.74 1.28.54 1.94.79c.5.19 1 .41 1.49.58.7.24 1.44.43 2.17.63.5.14 1 .29 1.49.41.83.19 1.69.33 2.56.47.45.07.88.18 1.34.24q2 .27 4.14.38c.91 0 1.86.07 2.84.06-.2.44-.39.87-.6 1.29-.31.62-.62 1.24-1 1.83s-.83 1.36-1.27 2c-.31.46-.62.93-1 1.37l-.16.23c-.47.62-1 1.18-1.49 1.75s-.82.93-1.26 1.36-1.14 1-1.73 1.5-.91.78-1.4 1.13c-.64.46-1.32.85-2 1.25-.5.3-1 .62-1.5.88-.74.38-1.54.69-2.32 1-.52.21-1 .45-1.55.63-.91.31-1.87.54-2.83.77-.47.12-.92.27-1.41.37a39.65 39.65 0 0 1 -4.6.65c-.8.07-1.61.11-2.45.14h-.92c-.54 0-1.08 0-1.62 0h-1.18-1.43l-1.3-.1-1.35-.11-1.34-.16-1.31-.17-1.33-.23-1.29-.23c-.44-.09-.88-.2-1.31-.3s-.84-.19-1.25-.29-.85-.24-1.27-.36-.81-.23-1.2-.36-.8-.29-1.2-.43-.77-.28-1.14-.43-.75-.33-1.11-.5-.72-.33-1.07-.51-.68-.38-1-.57-.66-.39-1-.59-.6-.43-.89-.64-.59-.44-.86-.68-.52-.47-.76-.72-.5-.5-.73-.76-.42-.52-.62-.79-.4-.56-.58-.85-.32-.57-.46-.87-.29-.62-.41-.94-.21-.62-.29-.95.01-.49-.04-.69zm93.55-16.9c-.54.31-1.07.62-1.62.91-.73.39-1.48.76-2.24 1.13-.56.27-1.11.55-1.68.8-.8.36-1.62.7-2.45 1-.56.23-1.11.47-1.68.68-.89.34-1.8.64-2.71.94-.53.18-1 .37-1.58.53-1.09.34-2.19.63-3.3.92-.37.1-.74.21-1.11.3q-2.23.54-4.48 1c-.36.06-.71.1-1.07.16-1.15.19-2.29.37-3.44.51-.54.06-1.08.09-1.62.14-.83.08-4.46.29-4.48.31h-.38c-1.25 0-2.47 0-3.62 0q-2-.1-3.88-.35c-.41-.05-.79-.15-1.19-.21-.83-.13-1.66-.26-2.45-.45-.46-.11-.89-.25-1.34-.37-.7-.19-1.4-.37-2.07-.6-.47-.16-.9-.35-1.36-.53-.62-.24-1.24-.47-1.84-.75s-.88-.46-1.32-.69-1.12-.58-1.65-.9-.84-.56-1.26-.84-1-.69-1.5-1.06-.79-.66-1.18-1-.93-.8-1.37-1.23-.74-.76-1.1-1.15-.58-.63-.86-1c10.41-11.23 12.54-26 12.61-36a67.34 67.34 0 0 0 14.55 1.62q1.92 0 3.88-.1a69.18 69.18 0 0 0 18.56-1.5c.05 10.25 2.29 25.65 13.56 37-.46.26-.89.53-1.34.79zm32.93-79.08c-7.68 14.93-20.9 31.81-42.48 37.91l-1.33.36c-.45.12-.88.25-1.33.36a66.32 66.32 0 0 1 -18.6 1.62 66.12 66.12 0 0 1 -18.46-1.55c-.46-.11-.89-.25-1.34-.36l-1.32-.36c-21.59-6.08-34.8-23-42.49-37.94a1.29 1.29 0 0 0 -1-.69 33.37 33.37 0 0 1 -9.72-2.38c-11.7-5.93-18.66-16.8-17.74-27.7.36-4.18 1.56-7.12 3.47-8.51a5.8 5.8 0 0 1 3.51-1 10.84 10.84 0 0 1 2.43.3 4.49 4.49 0 0 1 .48.15c2.87 3.25 5.64 5 8.46 5.44a1.28 1.28 0 0 0 1.38-.78 1.29 1.29 0 0 0 -.42-1.53c-3.16-2.35-5-38.78-4.42-48.83 0-.8.06-1.62.07-2.41 0-1.81.06-4.28.79-4.49 28-7.85 45.65-46.13 52.67-64.54 5.75 12.35 12.67 23.41 15.8 27.32 9.78 12.2 19.33 19.95 31 25.13 9.58 4.27 39.82 11.17 44.82 12.3 3.14 8.18 8.33 42.86 6.24 56.77a1.29 1.29 0 0 0 1.53 1.46c2.37-.47 4.75-2.44 7.26-6 2.39-.52 4.32-.26 5.74.78 1.91 1.39 3.11 4.33 3.46 8.51.93 10.9-6 21.77-17.74 27.7a33.37 33.37 0 0 1 -9.72 2.38 1.29 1.29 0 0 0 -1.01.59z"/><path d="m232.64 256.27c1.07.36 2.12 1.13 2.21 1.66a3.45 3.45 0 0 1 -.68 2.68 16.62 16.62 0 0 1 -2.25 2.91c-1.81 1.73-3.76 3.55-6.36 4.26a7.61 7.61 0 0 0 4.08-.64 16.25 16.25 0 0 0 3.62-2.11 14.52 14.52 0 0 0 3-3.11 4.73 4.73 0 0 0 -2.81-8 17.32 17.32 0 0 0 -4.19-.64c-2.72-.18-5.3.1-7.91-.61 2.2 1.72 5.14 2.08 7.67 2.61a22.26 22.26 0 0 1 3.62.99z"/><path d="m190.14 198a41.38 41.38 0 0 0 -8.71 1.38 25.55 25.55 0 0 0 -8 4 36.31 36.31 0 0 0 -6.35 6c2.56-1.42 5-3 7.43-4.35a36.56 36.56 0 0 1 7.65-3.17c2.65-.77 5.45-1.3 8.24-1.86s5.6-1 8.49-1.5a32.53 32.53 0 0 0 -8.75-.5z"/><path d="m235.83 286.9c-.81.27-1.61.55-2.4.85s-1.64.38-2.45.58l-1.22.29-1.24.13a19.74 19.74 0 0 1 -2.52.25 25.59 25.59 0 0 1 -9.83-1.68 34.89 34.89 0 0 1 -9-5 23.06 23.06 0 0 0 18.92 9.29 24.85 24.85 0 0 0 10.57-2.79 35 35 0 0 0 4.58-2.87c1.35-1.19 2.68-2.38 3.92-3.63-1.61.8-3.06 1.77-4.61 2.57s-3.09 1.49-4.72 2.01z"/><path d="m225.81 297.86c-.27 0-.36.25-1.17 1a1.35 1.35 0 0 0 .2 1.19 1 1 0 0 0 .68.43c.48 0 1-.24 1.23-1.31-.52-1.01-.75-1.25-.94-1.31z"/><circle cx="186.1" cy="240.71" r="6.77" transform="matrix(.70710678 -.70710678 .70710678 .70710678 -115.7 202.1)"/><path d="m278.42 203.29a25.55 25.55 0 0 0 -8-4 41.39 41.39 0 0 0 -8.72-1.29 32.54 32.54 0 0 0 -8.74.5c2.88.45 5.69 1 8.49 1.5s5.59 1.09 8.24 1.86a36.56 36.56 0 0 1 7.65 3.17c2.46 1.35 4.88 2.92 7.43 4.35a36.3 36.3 0 0 0 -6.35-6.09z"/><path d="m150.75 273.85a23.53 23.53 0 0 0 -4-4.43 10.53 10.53 0 0 0 -5.34-2.68 24.32 24.32 0 0 1 3.91 4.09c1.14 1.47 2.27 3 3.31 4.49s2 3.07 3 4.71a24.66 24.66 0 0 0 3.52 4.7 51.77 51.77 0 0 0 -1.7-5.59 23.31 23.31 0 0 0 -2.7-5.29z"/><circle cx="265.81" cy="240.71" r="6.77" transform="matrix(.70710678 -.70710678 .70710678 .70710678 -92.35 258.46)"/><path d="m306.53 270.83a24.3 24.3 0 0 1 3.91-4.09 10.53 10.53 0 0 0 -5.34 2.68 23 23 0 0 0 -6.72 9.72 51.77 51.77 0 0 0 -1.7 5.59 24.66 24.66 0 0 0 3.52-4.7c1-1.63 1.94-3.2 3-4.71s2.19-3.01 3.33-4.49z"/><path d="m320 408.52c-11.27-13.75-33-20.62-33-20.62l-1 3.1s-3.75 13.75-30 12.5c-19.75-.94-25.21-12.49-27.45-18.15a66.56 66.56 0 0 1 -7.77.4c-2.34 5.79-8 16.84-27.29 17.75-26.25 1.25-30-12.5-30-12.5l-1-3.12s-19 6.88-30.23 20.63c-10.49 12.85-16.26 30.49-16.26 30.49h220.23s-5.75-17.64-16.23-30.48z" fill="#1f5173"/></g></svg>