<svg viewBox="0 0 453.54 453.54" xmlns="http://www.w3.org/2000/svg" xmlns:xlink="http://www.w3.org/1999/xlink"><linearGradient id="a" gradientUnits="userSpaceOnUse" x1="14.17" x2="439.37" y1="226.77" y2="226.77"><stop offset="0" stop-color="#2f9c9b"/><stop offset="1" stop-color="#5dbe8e"/></linearGradient><clipPath id="b"><circle cx="226.77" cy="226.77" r="212.6"/></clipPath><circle cx="226.77" cy="226.77" fill="url(#a)" r="212.6"/><g clip-path="url(#b)"><path d="m177.27 334.77s35 51.25 52.5 46.25 46.25-16.25 60-48.75h17.5c3.73 0 23.73-1.27 33.73 11.25s15 35 12.5 66.25c0 0-73.75 35-145 25s-109.67-38.44-109.67-38.44.94-40.33 15.94-50.33 26.25-7.5 35-8.75 25 .02 27.5-2.48z" fill="#1f5173"/><path d="m149.77 247.27s-26.25-1.27-23.77-31.27 25-18.75 25-18.75-12.5-55 11.25-63.75 62.5-41.25 62.5-41.25l77.5 42.5 2.5 65s18.75-5 18.75 12.5-2.5 23.75-18.73 31.27c0 0-6.25 57.5-26.25 67.5 0 0-2.5 18.75 11.25 21.25 0 0-22.5 38.75-40 43.75s-32.5 7.5-52.5-13.75-22.92-28.33-22.92-28.33 12.92-.42 10.42-15.42-40-11.25-35-71.25z" fill="#cfe7ce"/><path d="m245.13 272.3q-2.11 1-4.3 1.86a64.54 64.54 0 0 1 -7.07 2.19 55.65 55.65 0 0 1 -7.57 1.3h.06a62.16 62.16 0 0 1 -7.52.26 61.36 61.36 0 0 1 -8.11-.77h.21a61 61 0 0 1 -10.74-2.8.67.67 0 0 0 -.84.44.69.69 0 0 0 .44.84c1.88.69 3.76 1.3 5.68 1.83a59.07 59.07 0 0 0 5.85 1.3c1.91.34 3.82.58 5.76.74a57.18 57.18 0 0 0 6 .17 54.61 54.61 0 0 0 11.68-1.47 43.23 43.23 0 0 0 5.69-1.77 41 41 0 0 0 5.61-2.66.88.88 0 0 0 .35-1.17.86.86 0 0 0 -.76-.44.94.94 0 0 0 -.42.1"/><path d="m245 271.6a1.26 1.26 0 0 0 .72 1.61 8.71 8.71 0 0 1 1.13.45c.32.18.62.37.92.57a1.16 1.16 0 0 0 1.56-1.68 7.47 7.47 0 0 0 -1.24-1 6.07 6.07 0 0 0 -1.48-.66 1.4 1.4 0 0 0 -.44-.07 1.23 1.23 0 0 0 -1.18.8"/><path d="m233.64 283.55c-1.47.5-3 .92-4.48 1.27a42.42 42.42 0 0 1 -4.92.79 49.34 49.34 0 0 1 -5.58.21 46.83 46.83 0 0 1 -6-.56h.17q-1.83-.3-3.65-.73a.64.64 0 1 0 -.37 1.23 52.79 52.79 0 0 0 6.13 1.06 45.67 45.67 0 0 0 6.5.23 43.8 43.8 0 0 0 6.18-.65 41.41 41.41 0 0 0 6.31-1.62.72.72 0 0 0 .39-.28.66.66 0 0 0 -.54-1h-.16"/><path d="m216.25 192.64a130.11 130.11 0 0 1 -1.18 13.43v-.18c-.58 4.12-1.36 8.2-2.33 12.25a73 73 0 0 1 -3.74 10.78c-1.46 3.55-3 7.08-4.1 10.76a33 33 0 0 0 -1.16 5 13.55 13.55 0 0 0 -.07 3.6 14 14 0 0 0 2.33 6.17 17.55 17.55 0 0 0 4.87 4.72 21.15 21.15 0 0 0 6.36 2.81 19.74 19.74 0 0 0 6.92.52 16.61 16.61 0 0 0 4.75-1.22 14.51 14.51 0 0 0 2.18-1.14 15 15 0 0 0 2.15-1.73.94.94 0 0 0 0-1.31 1 1 0 0 0 -1.32 0l-.5.41a16.25 16.25 0 0 1 -3.18 1.81 16.82 16.82 0 0 1 -3.33.88 19.12 19.12 0 0 1 -4.89 0h.06a21.84 21.84 0 0 1 -5.1-1.46l.3.12a20.58 20.58 0 0 1 -4.21-2.48 17.62 17.62 0 0 1 -3-3.05 14.46 14.46 0 0 1 -1.5-2.68 13.93 13.93 0 0 1 -.71-2.67 13.39 13.39 0 0 1 0-3 .49.49 0 0 1 0 .09c0-.06 0-.11 0-.17v-.12s0 .06 0 .09a58.83 58.83 0 0 1 3.47-11.92c1.58-4.16 3.32-8.26 4.5-12.55.6-2.18 1-4.41 1.43-6.63s.74-4.4 1-6.62a144.44 144.44 0 0 0 1.18-14.43.65.65 0 0 0 -.64-.64.66.66 0 0 0 -.64.64m-10.38 55.1a1.5 1.5 0 0 1 0 .15zm5.29 8.66.09.08zm17.2 2.84h-.09zm-8.24.9h.21zm-14.12-15.4s0 .05 0 .08 0-.07 0-.11a.08.08 0 0 1 0 0"/><path d="m241.36 67c-2.18 0-4.86.12-8.16.36a81.4 81.4 0 0 0 -31 9.14 64.32 64.32 0 0 0 -19.79 16.27 6.33 6.33 0 0 0 -2-1.8 17.05 17.05 0 0 0 -3.52-1.75 16 16 0 0 0 -6-1.15c-.27 0-.55 0-.82 0a22.83 22.83 0 0 0 -9.79 3.12 29.22 29.22 0 0 0 -11.85 13.81 24.94 24.94 0 0 0 -1.86 7 21 21 0 0 0 .25 7.06 16.36 16.36 0 0 0 1 3.37 35.62 35.62 0 0 0 -6 5.5 46 46 0 0 0 -4.85 6.86 50.17 50.17 0 0 0 -5.8 15.78 61 61 0 0 0 -1.16 8.7 69.21 69.21 0 0 0 -.17 8.77 97.54 97.54 0 0 0 2.14 17.8c.36 1.77.79 3.51 1.26 5.26a47.57 47.57 0 0 0 1.57 5.07h-.33a.27.27 0 0 0 -.15 0 12.18 12.18 0 0 0 -3.31 2.26 17.27 17.27 0 0 0 -2.64 3.4 20.18 20.18 0 0 0 -2 4.2 34.18 34.18 0 0 0 -1.89 10 38.13 38.13 0 0 0 .8 10.2 33 33 0 0 0 3.63 9.67 28.64 28.64 0 0 0 3 4.22 26.82 26.82 0 0 0 3.78 3.42 23.07 23.07 0 0 0 9.61 4.14 187.28 187.28 0 0 0 1.15 19.75c.28 3 .7 6.85 1.42 10.72a69.39 69.39 0 0 0 2.28 9.5 57 57 0 0 0 8.42 17.12 49 49 0 0 0 6.45 7 45.88 45.88 0 0 0 7.2 5.16 69.59 69.59 0 0 0 7.19 3.81c1.43.69 2.92 1.37 4.44 2l-.12.28v.41a16.45 16.45 0 0 1 -1 3.58 11.58 11.58 0 0 1 -1.32 2.18 11.39 11.39 0 0 1 -2 2 17.25 17.25 0 0 1 -3.25 1.82 29.84 29.84 0 0 1 -7.06 1.7 91.46 91.46 0 0 1 -11.71.56h-2.77a149.66 149.66 0 0 0 -15.83.65 70 70 0 0 0 -8.19 1.39 42.66 42.66 0 0 0 -7.61 2.48 35.35 35.35 0 0 0 -6.81 3.77 34 34 0 0 0 -6 5.49 39.09 39.09 0 0 0 -4.21 6.18 47.91 47.91 0 0 0 -3.22 7.19 85.3 85.3 0 0 0 -4 15.6 101.32 101.32 0 0 0 -1.5 16.95 65.56 65.56 0 0 0 .35 8.15 42.87 42.87 0 0 0 1.26 7.39 1.51 1.51 0 0 0 1 1.06 59.91 59.91 0 0 0 14.79 9.91 114 114 0 0 0 18.18 7c6.55 2 13.26 3.56 18.37 4.69 3.32.76 6.65 1.49 10 2.2s7.07 1.41 11.84 2.25a341.09 341.09 0 0 0 56.08 4.71 342.28 342.28 0 0 0 41.24-2.55c7.44-1 14.85-2.17 22-3.55 7.34-1.5 13.88-3.1 20-4.89a160.77 160.77 0 0 0 19.74-7 97.37 97.37 0 0 0 17.89-9.88c.75-.52 1.49-1.06 2.21-1.61.43-.33.85-.67 1.27-1l.21-.22a1.75 1.75 0 0 0 1.5-1.34 74.26 74.26 0 0 0 1.13-12.14c.08-3.52-.05-7.42-.41-12.27-.32-3.83-.73-7.55-1.34-12.06-.39-2.82-.94-5.77-1.63-8.76a54.93 54.93 0 0 0 -6.3-15.6 37.35 37.35 0 0 0 -4.95-6.53 35.11 35.11 0 0 0 -6.4-5.28 35.71 35.71 0 0 0 -6.6-3.35 30.31 30.31 0 0 0 -5.2-1.67 58.42 58.42 0 0 0 -9-.81c-2-.06-4.08-.08-6.12-.1a111.11 111.11 0 0 1 -14.37-.72 32.46 32.46 0 0 1 -7.53-1.8 15.83 15.83 0 0 1 -3.3-1.89 12.56 12.56 0 0 1 -1.78-1.78 9.7 9.7 0 0 1 -1.21-2.09 10.81 10.81 0 0 1 -.71-2.69 18.81 18.81 0 0 1 .07-4.82v-.39a19.51 19.51 0 0 0 2.64-1.77 42.54 42.54 0 0 0 4.74-3.64 47.69 47.69 0 0 0 6.43-7 58.24 58.24 0 0 0 8.5-17.12 91.61 91.61 0 0 0 2.28-9.5c.64-3.7 1.08-7.63 1.39-10.5.75-7.35 1.22-14.85 1.42-22.92a13 13 0 0 0 4.93-1.62 19.41 19.41 0 0 0 4.34-3.05 23.68 23.68 0 0 0 3.5-4.16 24.38 24.38 0 0 0 2.69-4.76 35 35 0 0 0 2.88-11 28.5 28.5 0 0 0 -.89-10.5 15.63 15.63 0 0 0 -6.8-9.24 7.7 7.7 0 0 0 -1.81-.85c.23-.09.41-.46.53-.76l.36-.89.32-.91.32-.9.1-.27c.55-1.55 1-3.11 1.48-4.67.83-3.07 1.57-6.3 2.18-9.58a126.75 126.75 0 0 0 2-20.09 104 104 0 0 0 -1.58-20 73 73 0 0 0 -5.74-18.15c-.31-.67-.65-1.32-1-2a1 1 0 0 0 -.59-.56 23.1 23.1 0 0 0 -1.88-9.11 46 46 0 0 0 -5.18-9.43 79.75 79.75 0 0 0 -6.65-8.47 76.08 76.08 0 0 0 -6.1-6.24 73.2 73.2 0 0 0 -28.48-15.42 89 89 0 0 0 -16.27-3.14c-3.33-.26-6-.39-8.25-.39m-46.58 84.74c2 0 4.3-.09 6.82-.26a86.28 86.28 0 0 0 15.59-2.78 66.08 66.08 0 0 0 22.07-10.47 52.84 52.84 0 0 0 8.66-8.06 42.1 42.1 0 0 0 3.53-4.84 32.82 32.82 0 0 0 2.37-4.14 19.72 19.72 0 0 0 4.47 6.94 23.41 23.41 0 0 0 8.07 5.47 18.79 18.79 0 0 0 7.15 1.41 23.18 23.18 0 0 0 2.33-.13 21.29 21.29 0 0 0 4.93-1.37c.5-.19 1-.42 1.48-.65l.29-.13.83-.38a20 20 0 0 1 2-.69 14.15 14.15 0 0 1 1.71-.17 8.68 8.68 0 0 1 1 .13 4.9 4.9 0 0 1 1 .43 18.73 18.73 0 0 1 3.05 2.59l.46.44.43.4.51.47.52.47 1.09 1 .3.22q.57.5 1.18 1l.14 1 .09.51q.36 4.51.75 9l.26 3 .26 2.93.06.75.1 1.19v.46l.19 2.19v.57c.56 6.52 1.19 13.84 1.69 20.89a408.45 408.45 0 0 1 .93 43.81c-.28 6.35-.83 12.74-1.63 19-.79 5.5-1.67 10.32-2.69 14.75-.55 2.29-1.17 4.64-1.86 7-.61 2.1-1.3 4.1-2.1 6.1a58.3 58.3 0 0 1 -7.75 13.09 60 60 0 0 1 -10 10.05 49.39 49.39 0 0 1 -9.83 5.88 34.49 34.49 0 0 1 -8.53 2.38 26.27 26.27 0 0 1 -3.88.25 26.76 26.76 0 0 1 -10.39-2c-1.21-.55-2.4-1.14-3.64-1.83s-2.6-1.57-3.85-2.4l-.34-.22a1.37 1.37 0 0 0 -.83-.26l-.44-.13-.4-.12c-.54-.17-.85-.26-1.16-.33a13.82 13.82 0 0 0 -1.38-.34c-.51-.08-1-.11-1.46-.14h-.67a13.93 13.93 0 0 0 -1.77-.1h-.48a20.07 20.07 0 0 0 -4.72.72 23.16 23.16 0 0 0 -4.29 1.37.63.63 0 0 0 -.29.14 1.18 1.18 0 0 0 -.62.32 19.94 19.94 0 0 1 -3.08 2.95 25.59 25.59 0 0 1 -4.89 3 19.91 19.91 0 0 1 -2.19.74c-.62.12-1.29.22-1.94.31a37.77 37.77 0 0 1 -4.76.31 31.28 31.28 0 0 1 -12-2.35 39.39 39.39 0 0 1 -7.71-4.6 52 52 0 0 1 -8.89-9 81.62 81.62 0 0 1 -9.95-17.4 96.08 96.08 0 0 1 -4.26-12.4c-.54-1.85-1-3.74-1.43-5.95s-.87-4.58-1.27-7.6l-.09-.4c-2.1-16.38-1.52-33.09-.68-47.27l.11-1.89c.18-2.91.36-5.81.44-8.74.08-2.74.11-5.47.14-8.22v-2a177.31 177.31 0 0 1 1.17-21.26 59.41 59.41 0 0 1 3.5-14.09 25.27 25.27 0 0 0 5.69 3.3 50.23 50.23 0 0 0 6.85 2.65 77.21 77.21 0 0 0 15 3.24c3.27.33 6.27.49 8.91.49m-49.75 93.32a35.41 35.41 0 0 1 -3.6-1.16 21.07 21.07 0 0 1 -4.14-2.44 20 20 0 0 1 -3.65-3.62 27.25 27.25 0 0 1 -3.36-5.77 36.19 36.19 0 0 1 -2.26-8.55 40.09 40.09 0 0 1 0-9.85 30 30 0 0 1 1.95-7.52 19.55 19.55 0 0 1 2.34-4.13 12.9 12.9 0 0 1 2.07-2.1 11.93 11.93 0 0 1 1.88-1.15 9.21 9.21 0 0 1 1.93-.46 9 9 0 0 1 1-.06c.41 0 .83 0 1.24.07a13.18 13.18 0 0 1 3 .8 25 25 0 0 1 2.41 1.19 1.55 1.55 0 0 0 .57.21 27.42 27.42 0 0 0 -.39 4l-.35 6.57c0-.42-.24-.82-.9-1.44a11.27 11.27 0 0 0 -1.56-1.18 11.57 11.57 0 0 0 -3.05-1.34 13.18 13.18 0 0 0 -3.83-.62 1.06 1.06 0 0 0 -1 1.09 1.11 1.11 0 0 0 1 1.09c.49 0 1 .06 1.47.12a10.9 10.9 0 0 1 2.34.6 14.65 14.65 0 0 1 2.33 1.36 12.75 12.75 0 0 1 1.82 1.94 15.17 15.17 0 0 1 1.23 1.82c0 .34-.06.75-.08 1.17v.61.93c-.37 9-.48 17.16-.32 25zm162.23-44.91a18.25 18.25 0 0 1 2.69-.19 15.1 15.1 0 0 1 1.88.11 10.93 10.93 0 0 1 2.68.66 13.89 13.89 0 0 1 2.37 1.37 13.2 13.2 0 0 1 1.94 2 16.48 16.48 0 0 1 1.76 3 23.5 23.5 0 0 1 1.4 5.21 34.49 34.49 0 0 1 -.07 7.88 33.7 33.7 0 0 1 -2.26 8.18 28.24 28.24 0 0 1 -3.21 5.49 20.75 20.75 0 0 1 -3.53 3.66 19.07 19.07 0 0 1 -3.62 2.17 13.56 13.56 0 0 1 -2.53.76c.32-6.26.28-14.38-.08-24.79l-.06-1.37-.07-1.67a6.82 6.82 0 0 1 .68-.94c.29-.36.59-.7.89-1a13.32 13.32 0 0 1 1.36-1.22l.23-.17.79-.56a11.36 11.36 0 0 1 1.53-.86c.33-.14.67-.27 1-.38a.88.88 0 0 0 .61-1 1 1 0 0 0 -.87-.64 18.27 18.27 0 0 0 -2.48 1 12.75 12.75 0 0 0 -2.3 1.51 14.36 14.36 0 0 0 -1.94 1.82 34.38 34.38 0 0 0 .06-5.95v-1.1l-.09-1.49-.08-1.48.25.08h.28l.83-.11s0 0 0 0m-84.18 130.18c1.6 0 3.21 0 4.81-.08a125.21 125.21 0 0 0 21.76-2.78 97.9 97.9 0 0 0 18.34-5.8 57.12 57.12 0 0 0 5.32-2.53c1.16-.6 2.23-1.18 3.24-1.77a5.32 5.32 0 0 0 -.22 2.68 14 14 0 0 0 1.39 5.28 13.73 13.73 0 0 0 7.2 6.39c-3.37 4.76-6.59 9-9.85 12.93a148.27 148.27 0 0 1 -10.26 11.39 88.85 88.85 0 0 1 -17.36 14 47.56 47.56 0 0 1 -10.41 4.5 28.94 28.94 0 0 1 -6.92.88 24.79 24.79 0 0 1 -5.72-.73 25.54 25.54 0 0 1 -5.34-2.29c-1.58-1-3.35-2.13-5.56-3.7-2-1.43-4-2.91-6-4.51a140.13 140.13 0 0 1 -11.51-10.44 120.07 120.07 0 0 1 -16.66-20.47 2.15 2.15 0 0 0 1-.5 12.7 12.7 0 0 0 3.66-4.29 14.16 14.16 0 0 0 1.53-5.45 7.32 7.32 0 0 0 2.26 1.16 81.32 81.32 0 0 0 8.79 2.9 47.15 47.15 0 0 0 6.61 1.38c1 .2 2 .38 3 .54a106.17 106.17 0 0 0 16.94 1.3m85.67 6.32s.07-.06.07-.06h.24l.35-.11c1.75-.55 3.37-1.08 5-1.63a61.6 61.6 0 0 1 6.65.51c.88.12 1.77.28 2.63.46a35.52 35.52 0 0 1 4.76 1.65c1.29.6 2.39 1.16 3.36 1.7l-.29.17a2 2 0 0 0 -.38.16l-.4.19-.29.17-.65.28-.64.3c-1.72.81-3.4 1.55-5.07 2.27-.24.09-.42.16-.61.25l-.29.12c-.62.27-1.21.51-1.8.74-2.15.88-4.29 1.7-6.45 2.49l-.33.12-.89.32-.86.3-.63.22c-2.92 1-6.05 2-9.31 3-6.45 1.88-13.07 3.53-19.7 4.9l-.41.13-1.34.25-3.8.71a40.23 40.23 0 0 0 4.28-4.23c2.74-3.06 5.13-5.9 7.11-8.42q.8-1 1.56-2.07c1.79-.41 3.64-.85 5.47-1.3l.73-.18 1.12-.29 1.08-.28.27-.09c2.38-.61 4.5-1.2 6.63-1.82l.39-.12.63-.19.28-.08.39-.12.31-.09.26-.08.36-.12.25-.1s0 0 0 0m-120.74 23.22c-1.74-.35-3.58-.58-5.36-.79h-.28l-1.95-.25-.43-.05-.45-.05c-4.07-.54-7.62-1.09-11.49-1.79-2.43-.42-4.73-.86-7-1.32-3.21-.64-6.45-1.36-9.64-2.13l-.29-.08-.28-.07-.32-.08-.32-.08-.83-.2-.41-.1c-2.93-.78-5.91-1.62-8.86-2.51l-.5-.15-1.05-.32c-2.64-.83-5.07-1.65-7.49-2.52-3.23-1.18-6.1-2.3-8.77-3.42l-.86-.36.73-.18.43-.2c.75-.37 1.52-.74 2.3-1.08a54 54 0 0 1 13.33-3.37c1.78-.26 3.69-.46 5.84-.59 2 .57 4.14 1.15 6.26 1.71 3.18.85 6.33 1.6 9.63 2.31l.74.17.92.21.61.14.48.1.33.05.41.09c2.47.52 4.68.94 6.92 1.33l.63.11.39.07 1.09.19.55.09.52.09.95.15.62.09.56.09c3.95 5.18 8 10 12.38 14.73m151.76-7 .32-.18.32-.18.64-.37.33-.19c.6-.35 1.15-.67 1.68-1l.5-.3c1.15 2.13 2.15 4.13 2.94 5.93l.16.32a63 63 0 0 1 2.15 6.35l-.29.06-.56.37-.34.24-1 .62c-1.44.91-2.89 1.79-4.35 2.64l-.25.16-.4.2-.59.33-.39.21-.24.13c-2.18 1.18-4.3 2.27-6.44 3.31-2.76 1.31-5.38 2.49-7.78 3.51-3.39 1.43-7 2.83-11.16 4.29-3.19 1.11-6.11 2.05-9.18 3a265.28 265.28 0 0 1 -39.64 8.31 316.31 316.31 0 0 1 -41.6 2.8h-1.37a308.26 308.26 0 0 1 -41.2-2.7 264.13 264.13 0 0 1 -28.74-5.44 201.12 201.12 0 0 1 -27.8-9.13 130.5 130.5 0 0 1 -19.79-10.33.63.63 0 0 0 -.76 0l.61-1.29c.62-1.61 1.16-3 1.68-4.2a45.16 45.16 0 0 1 2.47-4.88 128.84 128.84 0 0 0 19.83 9 198 198 0 0 0 22.44 6.76c7 1.74 14.76 3.26 23 4.51 6.76 1 14.19 1.84 22.06 2.46 3.78.26 7.9.49 12.26.67.86.6 1.78 1.23 2.72 1.83a46.41 46.41 0 0 0 4.94 2.78 37.3 37.3 0 0 0 9 3.14 30.43 30.43 0 0 0 5.68.56c.93 0 1.87-.05 2.81-.14a31.94 31.94 0 0 0 7.95-1.94 43.86 43.86 0 0 0 7.81-3.88 60.53 60.53 0 0 0 5.84-4.08 281.15 281.15 0 0 0 31.35-5.29 225 225 0 0 0 25.48-7.16c3.76-1.31 7.27-2.65 10.44-4l.49-.2q3.12-1.32 6.21-2.74l.33-.16.53-.25.72-.34.42-.21.42-.2.42-.2.26-.13c1.55-.77 3.07-1.56 4.57-2.38l.54-.29.24-.13.34-.19.33-.19.26-.16.32-.19zm10.71 28.38 1.51-1c.18 4.82.32 8.44.35 11.5v4.45l-.42.21-.34.22-.31.21-.36.24-.34.23-1.19.76c-1.44.92-2.89 1.79-4.35 2.63-.66.38-1.29.74-1.92 1.08-4.5 2.46-9.22 4.74-14 6.78a211.86 211.86 0 0 1 -29.77 9.82 272.89 272.89 0 0 1 -30.54 5.79 323.77 323.77 0 0 1 -42.11 2.78h-.82a306.06 306.06 0 0 1 -41.11-2.71 261.88 261.88 0 0 1 -28.9-5.46 193.1 193.1 0 0 1 -27.64-9.08c-4.92-2.11-9.44-4.29-13.43-6.49-2-1.13-4-2.35-6.18-3.71s-4.1-2.77-6.13-4.33l-.31-.25-.27-.21-.32-.21-.86-.73c.15-3.92.48-7.83 1-11.92v-.27-.28a91.39 91.39 0 0 0 17.42 10.42 164.65 164.65 0 0 0 21.36 8.33 219.15 219.15 0 0 0 22.46 5.9c6.64 1.38 13.92 2.59 21.64 3.6a318.13 318.13 0 0 0 39.52 2.29q2.66 0 5.3 0a324.47 324.47 0 0 0 45.88-4 248.07 248.07 0 0 0 42.15-10.63 171.6 171.6 0 0 0 16.62-6.81l.35-.19c2.69-1.26 5-2.43 7.23-3.69l.42-.22.31-.18.41-.22.31-.18c1.77-1 3.48-2 5.14-3l.22-.14.33-.21.25-.16.26-.17.27-.21.27-.16.41-.26.24-.19s-.07.05-.06.05"/><path d="m264.74 207.07h-.74a27.81 27.81 0 0 0 -5 .54 27.53 27.53 0 0 0 -4.61 1.4 22.35 22.35 0 0 0 -7.68 5.15.68.68 0 0 0 0 .95.68.68 0 0 0 .94 0 24.68 24.68 0 0 1 2.21-2 21.13 21.13 0 0 1 2.26-1.5 25.49 25.49 0 0 1 2.29-1.15 24.23 24.23 0 0 1 3.25-1.12c.52-.13 1-.25 1.56-.36a27.58 27.58 0 0 0 -.65 4.94 30.93 30.93 0 0 0 0 3.23 24.72 24.72 0 0 0 .33 3.11 14.43 14.43 0 0 0 .79 2.84 8.17 8.17 0 0 0 1.33 2.31 5.85 5.85 0 0 0 1.9 1.54 5.76 5.76 0 0 0 2.55.61 7.39 7.39 0 0 0 1.74-.18 5.49 5.49 0 0 0 1.23-.42 6.13 6.13 0 0 0 2-1.53 10.65 10.65 0 0 0 2.15-5.1 26.33 26.33 0 0 0 .27-6.35 36.44 36.44 0 0 0 -.55-4.46c1 .33 2.05.69 3.07 1.1a28.8 28.8 0 0 1 2.91 1.44c.82.5 1.62 1 2.39 1.59l.28.17a.75.75 0 0 0 .5.21.71.71 0 0 0 .72-.71.69.69 0 0 0 -.21-.52 25.23 25.23 0 0 0 -4.14-2.65 27 27 0 0 0 -4.31-1.75 29.32 29.32 0 0 0 -8.7-1.36m1.84 2.51c0-.24.07-.47.11-.7a.85.85 0 0 0 0-.35c.58.09 1.19.14 1.8.22s1 .17 1.55.28a16.71 16.71 0 0 1 -.05 3.19 8 8 0 0 1 -.42 1.63 4.69 4.69 0 0 1 -.51.9 2 2 0 0 1 -.24.24 1.54 1.54 0 0 1 -.35.24l-.43.09a1.42 1.42 0 0 1 -.47-.22 3.85 3.85 0 0 1 -.37-.4 4 4 0 0 1 -.33-.59 7.11 7.11 0 0 1 -.38-1.56 13.67 13.67 0 0 1 .06-3z"/><path d="m182.48 208.07a29.29 29.29 0 0 0 -8.7 1.36 26.88 26.88 0 0 0 -4.31 1.76 25.37 25.37 0 0 0 -4.14 2.65.7.7 0 0 0 -.21.52.71.71 0 0 0 .21.5.73.73 0 0 0 .51.21.74.74 0 0 0 .5-.21l.18-.18c.82-.6 1.62-1.14 2.44-1.62a26.32 26.32 0 0 1 6-2.52 28.19 28.19 0 0 0 -.58 4.43 26.33 26.33 0 0 0 .27 6.35 10.61 10.61 0 0 0 2.15 5.1 6.17 6.17 0 0 0 2 1.53 5.49 5.49 0 0 0 1.23.42 7.25 7.25 0 0 0 1.68.18 5.77 5.77 0 0 0 4.51-2.16 8.08 8.08 0 0 0 1.33-2.31 14.41 14.41 0 0 0 .79-2.84 24.68 24.68 0 0 0 .33-3.11 34 34 0 0 0 -.63-8.2c.5.13 1 .25 1.54.39a23.08 23.08 0 0 1 5.54 2.27 20.08 20.08 0 0 1 2.19 1.46 24.24 24.24 0 0 1 2.28 2 .67.67 0 0 0 .47.19.65.65 0 0 0 .46-.18.68.68 0 0 0 0-.95 22.39 22.39 0 0 0 -7.68-5.15 26.45 26.45 0 0 0 -9.63-1.94h-.75m1.3 7.95a1.68 1.68 0 0 1 -.37-.29 3.64 3.64 0 0 1 -.32-.52 7.38 7.38 0 0 1 -.45-1.74 19.77 19.77 0 0 1 0-4h.26c.84 0 1.68 0 2.53.12a16.85 16.85 0 0 1 0 3.29 8.14 8.14 0 0 1 -.54 2.07 4.18 4.18 0 0 1 -.36.6 1.72 1.72 0 0 1 -.27.29 1.43 1.43 0 0 1 -.22.14z"/><path d="m182.14 164a40.4 40.4 0 0 0 -11.22 1.5 29.5 29.5 0 0 0 -5.75 2.32 28.42 28.42 0 0 0 -2.53 1.55 28.9 28.9 0 0 0 -2.5 2 .73.73 0 0 0 -.24.53 1 1 0 0 0 -.18.44 17.91 17.91 0 0 0 -.52 4.41v.95a10.25 10.25 0 0 0 .21 1.39c.06.24.12.48.19.72l.16.42a1.77 1.77 0 0 0 .12.3 1.42 1.42 0 0 0 .05.29 1.17 1.17 0 0 0 .46.59.86.86 0 0 0 .54.19h.27a40.62 40.62 0 0 1 8.6-3.22 51.4 51.4 0 0 1 11.85-1.38c.82 0 1.64 0 2.46.05a60.53 60.53 0 0 1 8.28 1 61.45 61.45 0 0 1 8.45 2.27h-.07c1.74.62 3.52 1.33 5.28 2.11a1 1 0 0 0 .43.1 1 1 0 0 0 .88-.57.73.73 0 0 0 .2-.33 23.21 23.21 0 0 0 .94-5.07 23.82 23.82 0 0 0 -.29-5.65 1 1 0 0 0 -.31-.58.91.91 0 0 0 -.46-.39 60.46 60.46 0 0 0 -11.23-4.06 57.65 57.65 0 0 0 -12.88-1.79h-1.18"/><path d="m265 164.08a40.38 40.38 0 0 1 11.22 1.5 29.31 29.31 0 0 1 5.75 2.32c.87.47 1.7 1 2.53 1.55a29.51 29.51 0 0 1 2.5 2 .74.74 0 0 1 .24.53 1 1 0 0 1 .17.44 18 18 0 0 1 .53 4.41v.94a10.27 10.27 0 0 1 -.21 1.39c-.06.24-.11.48-.19.72l-.16.42a1.53 1.53 0 0 1 -.11.3 1.57 1.57 0 0 1 -.06.29 1.15 1.15 0 0 1 -.46.59.88.88 0 0 1 -.54.19h-.27a40.72 40.72 0 0 0 -8.6-3.22 51.55 51.55 0 0 0 -11.83-1.45c-.82 0-1.64 0-2.46.05a60.73 60.73 0 0 0 -8.29 1 61.52 61.52 0 0 0 -8.44 2.27h.07c-1.75.62-3.52 1.33-5.28 2.11a1 1 0 0 1 -.43.1 1 1 0 0 1 -.88-.57.69.69 0 0 1 -.19-.33 23.07 23.07 0 0 1 -.94-5.07 24.07 24.07 0 0 1 .29-5.65 1 1 0 0 1 .32-.58.87.87 0 0 1 .46-.39 60.38 60.38 0 0 1 11.26-4.05 57.71 57.71 0 0 1 12.88-1.78h1.18"/><path d="m256.33 186.82a30.21 30.21 0 0 0 -5.41 1.32 32.41 32.41 0 0 0 -5 2.24 31.49 31.49 0 0 0 -11.63 11.33 30.93 30.93 0 0 0 -3.88 10.5 31.74 31.74 0 0 0 -.46 4.94 32.86 32.86 0 0 0 .43 5.56 30.81 30.81 0 0 0 3.58 10 31.6 31.6 0 0 0 6.73 8.25 33.15 33.15 0 0 0 4 3 32.46 32.46 0 0 0 4.59 2.33 30.77 30.77 0 0 0 10.72 2.29 30.07 30.07 0 0 0 15.4-3.53 29.68 29.68 0 0 0 4.41-2.89 31.12 31.12 0 0 0 10.19-14.1 29.87 29.87 0 0 0 1.41-5.49 32.43 32.43 0 0 0 -.12-10.69 30.12 30.12 0 0 0 -3.82-10.13 31.06 31.06 0 0 0 -7-8.1 31.32 31.32 0 0 0 -19.47-7.16h-.54a27.82 27.82 0 0 0 -4.13.34m4.38 2.47a28 28 0 0 1 4.32.25 31 31 0 0 1 3.53.73 30.34 30.34 0 0 1 3.69 1.3q1.46.65 2.85 1.44a28.81 28.81 0 0 1 3.08 2 32.58 32.58 0 0 1 2.73 2.4 28.69 28.69 0 0 1 2.42 2.71l-.06-.09.11.15.09.11-.05-.06a34.53 34.53 0 0 1 2.1 3.14 28.83 28.83 0 0 1 1.57 3.14 35.59 35.59 0 0 1 1.29 3.74 30 30 0 0 1 .76 3.84 31.94 31.94 0 0 1 .22 3.53 31.29 31.29 0 0 1 -.29 4.11c-.17 1.05-.38 2.09-.65 3.13a29.84 29.84 0 0 1 -1.22 3.65 33.33 33.33 0 0 1 -1.69 3.39 30.92 30.92 0 0 1 -2.13 3.18c-.56.71-1.15 1.39-1.76 2a32.7 32.7 0 0 1 -3.12 2.91 36.09 36.09 0 0 1 -3.24 2.19 31.32 31.32 0 0 1 -3.35 1.68 35.57 35.57 0 0 1 -3.59 1.26 29.41 29.41 0 0 1 -4.06.82l.33-.05c-.6.08-1.21.14-1.82.18s-1.19.05-1.78.07a25.35 25.35 0 0 1 -4.28-.26l.32.05a35.16 35.16 0 0 1 -3.49-.68 28.3 28.3 0 0 1 -3.75-1.25l-.25-.1.19.07a34.24 34.24 0 0 1 -3.46-1.75 27.38 27.38 0 0 1 -3.06-2.08 31.82 31.82 0 0 1 -5.1-5.13 30.92 30.92 0 0 1 -3.63-6.23v.05-.09l-.07-.17v.1a32 32 0 0 1 -1.9-7 32.7 32.7 0 0 1 -.27-3.65 29.07 29.07 0 0 1 .23-4 33.36 33.36 0 0 1 .69-3.53 30.86 30.86 0 0 1 1.23-3.68 33.16 33.16 0 0 1 1.53-3.11 30.1 30.1 0 0 1 2.28-3.44 34.3 34.3 0 0 1 2.39-2.69 27 27 0 0 1 2.72-2.4 31 31 0 0 1 2.78-1.9 27.84 27.84 0 0 1 3.64-1.85 30.6 30.6 0 0 1 7.24-1.95 34.07 34.07 0 0 1 3.76-.26m-11.13 2.26h-.12zm-11.45 8.84-.12.15zm51 13.45s0 .09 0 .13 0-.09 0-.13m0 7.64s0 .08 0 .13a1 1 0 0 1 0-.13m-5.75 13.66-.16.21zm-18.72 10.93h-.11zm-14.89-2h-.06zm-15.33-15.25v-.11.07m49-28.51v-.05l-.05-.07.09.12"/><path d="m169 186.54a30.54 30.54 0 0 0 -9.48 4.74 31.36 31.36 0 0 0 -7.62 8.15 30.81 30.81 0 0 0 -4.14 9.83 32.12 32.12 0 0 0 -.74 5.71v2.73s.17 2.1.31 3.13a30.45 30.45 0 0 0 3.83 10.87 33.34 33.34 0 0 0 3 4.25 31.07 31.07 0 0 0 13.06 9.21 31 31 0 0 0 11.06 1.91h.39a33.36 33.36 0 0 0 4.83-.5 29.25 29.25 0 0 0 7-2.17 32.49 32.49 0 0 0 3.13-1.61 30.09 30.09 0 0 0 4.42-3.2 31.1 31.1 0 0 0 7-8.64 31.52 31.52 0 0 0 2-4.55 24.87 24.87 0 0 0 .81-2.69 31 31 0 0 0 .81-9.78 32.67 32.67 0 0 0 -.9-5.44 31.43 31.43 0 0 0 -8.25-14.39 29.59 29.59 0 0 0 -8.55-6 30.5 30.5 0 0 0 -4.92-1.79 31.29 31.29 0 0 0 -5.63-1q-1.24-.11-2.5-.11a31.76 31.76 0 0 0 -8.88 1.3m9 1.32a28.07 28.07 0 0 1 3.58.23h-.22.31a31.45 31.45 0 0 1 7.43 2.06 32.86 32.86 0 0 1 6.5 3.83 30.65 30.65 0 0 1 5.23 5.24c.68.93 1.32 1.88 1.92 2.87a31.52 31.52 0 0 1 1.68 3.38l-.07-.18.09.22a30.48 30.48 0 0 1 1.88 7q.16 1.34.21 2.67s0 .08 0 .11 0 .07 0 .1 0 .29 0 .43v1.92a.06.06 0 0 1 0 0v.25c0 .65-.1 1.31-.18 2s0 .07 0 .1a.1.1 0 0 1 0 0 .08.08 0 0 1 0 0 32.89 32.89 0 0 1 -.83 3.95 28.9 28.9 0 0 1 -1.27 3.6 32.7 32.7 0 0 1 -1.49 2.93 27.48 27.48 0 0 1 -2.2 3.3l-.07.08.07-.09q-.78 1-1.62 1.88a32 32 0 0 1 -2.92 2.75l-.65.51a31.32 31.32 0 0 1 -5.19 3.17l-1.11.51h.08-.07a34.52 34.52 0 0 1 -3.41 1.18 27.92 27.92 0 0 1 -4 .82h.27l-1.23.14a31.63 31.63 0 0 1 -7-.13 28.63 28.63 0 0 1 -13.17-5.53l-.15-.11.13.1a35.79 35.79 0 0 1 -2.85-2.49 30.29 30.29 0 0 1 -2.44-2.77v.05a32.93 32.93 0 0 1 -2-3 30.2 30.2 0 0 1 -1.8-3.57 35 35 0 0 1 -1.18-3.44 30.06 30.06 0 0 1 -.74-3.57v-.16.07c-.15-1.19-.24-2.38-.27-3.58 0-.58 0-1.18.06-1.76 0-.82.12-1.64.23-2.47v.31a31.71 31.71 0 0 1 .76-3.77 26.55 26.55 0 0 1 1.26-3.68 31.14 31.14 0 0 1 1.6-3.2 30.06 30.06 0 0 1 2.07-3.1 32.28 32.28 0 0 1 5.24-5.23h-.06c1-.73 2-1.4 3-2a31.56 31.56 0 0 1 3.84-1.93l-.31.14a31.22 31.22 0 0 1 3.65-1.24 29.34 29.34 0 0 1 3.56-.72 33.39 33.39 0 0 1 3.89-.25m10.91 1.94h.05.09l-.14-.06m-.07.24h.1zm-33.47 8.81-.13.18zm-4.08 6v.06m53 .07v.06-.07m-52.79.56a1 1 0 0 1 -.05.12zm-.08 21.75v.07a.37.37 0 0 0 0-.07m52.93.29v.09zm-49.18 6.27.11.13zm11.44 9h.11-.1m22.36.05h-.06.1m0 0 .14-.06zm11.65-8.88.06-.07zm-51-13.58s0-.09 0-.14zm56.79-.21s0-.06 0-.1 0 .1 0 .15"/><path d="m207.33 212a1.31 1.31 0 1 0 1.24 2.3c.44-.2.86-.39 1.31-.56a23.72 23.72 0 0 1 5.27-1.21 34.4 34.4 0 0 1 8.47.27c1.07.18 2.13.41 3.18.67 1.24.32 2.47.73 3.69 1.15a1.4 1.4 0 0 0 1.14-2.53 27.48 27.48 0 0 0 -12-2.76h-.51a27.11 27.11 0 0 0 -11.79 2.67"/><path d="m303.11 199a28.87 28.87 0 0 0 -2.77 2c-1 .77-1.89 1.57-2.81 2.39-1.9 1.65-3.78 3.33-5.81 4.82-.59.41-1.19.81-1.81 1.18a1 1 0 1 0 1 1.82c2.42-1.44 4.77-3 7-4.66 1.12-.82 2.23-1.67 3.29-2.57a34.59 34.59 0 0 0 3.31-3 1.25 1.25 0 0 0 .24-1.48 1.28 1.28 0 0 0 -1.1-.66 1.08 1.08 0 0 0 -.57.16m-11.39 9.25-.18.13z"/><path d="m302.1 199.51c-1.44 1-2.84 2.05-4.24 3.11s-2.89 2.14-4.35 3.18h.06q-2 1.46-4.13 2.88a.85.85 0 0 0 -.38.47.78.78 0 0 0 1.13.91q3.35-2.21 6.66-4.5c2.13-1.48 4.28-2.94 6.31-4.55a.92.92 0 0 0 .18-1.09 1 1 0 0 0 -.54-.44 1.14 1.14 0 0 0 -.29 0 .7.7 0 0 0 -.41.11m-8.7 6.38.11-.08z"/></g></svg>