<svg viewBox="0 0 453.54 453.54" xmlns="http://www.w3.org/2000/svg" xmlns:xlink="http://www.w3.org/1999/xlink"><linearGradient id="a" gradientUnits="userSpaceOnUse" x1="14.17" x2="439.37" y1="226.77" y2="226.77"><stop offset="0" stop-color="#2f9c9b"/><stop offset="1" stop-color="#5dbe8e"/></linearGradient><clipPath id="b"><circle cx="226.77" cy="226.77" r="212.6"/></clipPath><circle cx="226.77" cy="226.77" fill="url(#a)" r="212.6"/><g clip-path="url(#b)"><path d="m339.77 230.4a103.13 103.13 0 1 0 -132.92 98.74 81.89 81.89 0 0 1 -9.58 20.22c41.25 39.58 80-4.58 80-4.58a24.73 24.73 0 0 1 -13.09-15 103.15 103.15 0 0 0 75.59-99.38z" fill="#cfe7ce"/><path d="m248.1 375.4c24.09-4.79 34.83-19.58 39.13-28.12h-1.23l-12.5-3.75s-5 8.75-13.75 11.25-31.25 16.25-60-6.25l-25.57 2.47c47.98 37 73.92 24.4 73.92 24.4z" fill="#89ca8d"/><path d="m313.52 349.77s-7.2-2.4-26.28-2.5c-4.3 8.54-15 23.33-39.13 28.12 0 0-25.95 12.56-73.92-24.4l-13.19 1.28s-20-3.75-30 15-10 47.5-8.75 50c0 0 22.5 25 111.25 23.75s105-21.25 105-21.25 7.5-56.25-24.98-70z" fill="#1f5173"/><path d="m203.88 352a.68.68 0 0 0 -.39.3l-.49.7c-2 2.62-4 5.22-6 7.83a.62.62 0 0 0 -.18.45.65.65 0 0 0 .64.64.63.63 0 0 0 .45-.19c2.25-2.91 4.5-5.82 6.71-8.75a.62.62 0 0 0 .06-.48.69.69 0 0 0 -.31-.4.59.59 0 0 0 -.29-.08.66.66 0 0 0 -.18 0m-1 1.09.07-.1z"/><path d="m211.44 356.54c-1.36 1.78-2.66 3.6-3.89 5.47-1.37 2.08-2.66 4.22-3.89 6.39a.65.65 0 0 0 .25.87.64.64 0 0 0 .87-.25 100.69 100.69 0 0 1 7.11-11l-.1.13.56-.74a.7.7 0 0 0 .19-.45.64.64 0 0 0 -.19-.45.65.65 0 0 0 -.46-.19.63.63 0 0 0 -.45.19"/><path d="m221.75 360c-1.67 3.43-2.95 7-4.35 10.57l.06-.16c-.47 1.17-1 2.32-1.47 3.45a.75.75 0 0 0 -.06.48.62.62 0 0 0 .31.39.63.63 0 0 0 .87-.24c1.38-3 2.52-6.19 3.75-9.3.63-1.56 1.29-3.1 2-4.6a.65.65 0 0 0 -.25-.87.63.63 0 0 0 -.31-.08.61.61 0 0 0 -.56.33"/><path d="m228.77 361.78a.7.7 0 0 0 -.19.45c-.08.8-.17 1.59-.28 2.39 0 0 0 0 0-.07-.58 4.2-1.37 8.35-2 12.53a.73.73 0 0 0 .06.5.66.66 0 0 0 .39.29.63.63 0 0 0 .49-.06.61.61 0 0 0 .29-.39c.82-5 1.81-10.08 2.37-15.18a.57.57 0 0 0 -.18-.45.66.66 0 0 0 -.46-.19.62.62 0 0 0 -.44.19m-.47 2.76a.3.3 0 0 0 0 0"/><path d="m237.63 361.9c0 4.95.28 9.89.64 14.82a.65.65 0 0 0 .64.64.64.64 0 0 0 .64-.64c-.36-4.93-.63-9.87-.64-14.82a.64.64 0 1 0 -1.27 0"/><path d="m247.9 359.88a.66.66 0 0 0 -.45.79c1 4.93 2.26 9.82 3.6 14.67a.64.64 0 1 0 1.24-.34c-1.36-4.85-2.57-9.74-3.61-14.67a.65.65 0 0 0 -.64-.47h-.15"/><path d="m258.17 355.83a.65.65 0 0 0 -.45.79 65 65 0 0 0 6.15 13.4.64.64 0 1 0 1.1-.65 88.86 88.86 0 0 1 -4.5-8.86l.06.16a42.9 42.9 0 0 1 -1.57-4.39.66.66 0 0 0 -.62-.47h-.16"/><path d="m267.21 350a.63.63 0 0 0 -.23.87c2.69 3.85 5.69 7.48 8.33 11.36a.65.65 0 0 0 .87.23.64.64 0 0 0 .23-.88c-2.64-3.88-5.64-7.5-8.32-11.35a.72.72 0 0 0 -.39-.3h-.16a.62.62 0 0 0 -.33.09"/><path d="m273.36 343.82a.64.64 0 0 0 0 .9c3.13 3.31 6.83 6 10 9.29a.64.64 0 0 0 .9-.91c-3.15-3.28-6.85-6-10-9.28a.59.59 0 0 0 -.44-.19.65.65 0 0 0 -.46.19"/><path d="m233.59 360.26a.64.64 0 0 0 0 1.27h4.74a.64.64 0 1 0 0-1.27c-1.14 0-2.28 0-3.42 0z"/><path d="m232.55 360.31a.63.63 0 0 0 -.21.88.6.6 0 0 0 .39.29c.87.1 1.74.16 2.61.2 1.14 0 2.28 0 3.42.08a.64.64 0 0 0 .62-.66.65.65 0 0 0 -.66-.62c-1.78 0-3.57 0-5.34-.2h-.36-.15a.59.59 0 0 0 -.33.09"/><path d="m239.13 376.39c-1.7.08-3.41.07-5.1.22a.66.66 0 0 0 -.62.66.64.64 0 0 0 .66.62c1.69-.15 3.4-.14 5.1-.22a.64.64 0 0 0 .61-.66.65.65 0 0 0 -.64-.62z"/><path d="m239.61 376.19c-2 0-3.9.12-5.86.3a.64.64 0 0 0 0 1.27c2-.18 3.9-.26 5.86-.3a.65.65 0 0 0 .61-.66.64.64 0 0 0 -.64-.62z"/><path d="m320.77 215.06a.86.86 0 0 0 -.32.57.79.79 0 0 0 .17.61c.37.38.72.76 1.06 1.18a9.93 9.93 0 0 1 .79 1.14c.16.29.3.58.45.87a10.28 10.28 0 0 1 .49 1.32c.1.39.19.78.26 1.19a12.48 12.48 0 0 1 .15 1.69s0-.09 0-.14c0 .6 0 1.18-.09 1.77a15.6 15.6 0 0 1 -.41 2.14c0-.06 0-.12 0-.18a20.73 20.73 0 0 1 -2 4.77l-.12.2a.71.71 0 0 0 -.12.48.63.63 0 0 0 .24.42.67.67 0 0 0 .48.13.63.63 0 0 0 .42-.25c.41-.69.79-1.39 1.15-2.11a22.89 22.89 0 0 0 1-2.4 16.43 16.43 0 0 0 .92-4.77 12.69 12.69 0 0 0 -.14-2.3 11.81 11.81 0 0 0 -.6-2.24 11.09 11.09 0 0 0 -2.78-4 .77.77 0 0 0 -.41-.16h-.11a.81.81 0 0 0 -.49.17m1.64 3.4v.06zm-1.06 13.5.07-.12z"/><path d="m328.66 212.68a8.87 8.87 0 0 0 -1.36.17 5.92 5.92 0 0 0 -1.9.77 9 9 0 0 0 -.81.55 10 10 0 0 0 -.86.84 8.13 8.13 0 0 0 -1.41 2.24.77.77 0 0 0 1.42.58c.07-.17.15-.33.24-.49a8.79 8.79 0 0 1 .92-1.27 7.44 7.44 0 0 1 1.17-.94c.24-.13.48-.26.73-.37a6.58 6.58 0 0 1 .95-.32l-.21.06a10 10 0 0 1 1.71-.24h.16a.81.81 0 0 0 .57-.16.77.77 0 0 0 .3-.53.79.79 0 0 0 -.69-.87h-.75-.18m-4.59 4.48v.08z"/><path d="m236.55 66h-.66a101.82 101.82 0 0 0 -22.81 2.85 124 124 0 0 0 -22.08 7.65 147.14 147.14 0 0 0 -21 11.57 170.84 170.84 0 0 0 -49.14 49.37 134 134 0 0 0 -10 18.61 151.34 151.34 0 0 0 -11.08 40.65 182.94 182.94 0 0 0 -.52 43.19 195.75 195.75 0 0 0 9.29 42.51 174.32 174.32 0 0 0 18.45 38.54c1.83 2.85 3.85 5.74 6 8.6a111.24 111.24 0 0 0 7.05 8.62 110.27 110.27 0 0 0 14.76 12.92 22.39 22.39 0 0 0 -4.39.58 33.52 33.52 0 0 0 -6.63 2.29 30.18 30.18 0 0 0 -5.76 3.57 34.24 34.24 0 0 0 -4.9 4.71 45.45 45.45 0 0 0 -7.27 11.87 65.51 65.51 0 0 0 -4.21 14 85 85 0 0 0 -1.55 15.08c0 2.47 0 5 .2 7.38a54.74 54.74 0 0 0 .86 7 1.26 1.26 0 0 0 1.14 1 125.6 125.6 0 0 0 35.23 15.94c3.37 1 6.92 1.88 10.55 2.68a33.21 33.21 0 0 0 4.1 4.4 35.38 35.38 0 0 0 5.39 3.9q1 .6 2.06 1.11a6.69 6.69 0 0 0 0 1.64 5.81 5.81 0 0 0 .4 1.52 4.09 4.09 0 0 0 .71 1.15 20.93 20.93 0 0 0 -1.65 2.89 17.17 17.17 0 0 0 -1.19 3.44 23.12 23.12 0 0 0 -.5 7.55 23.4 23.4 0 0 0 1.79 7.08 17.77 17.77 0 0 0 4.48 6.33 25.51 25.51 0 0 0 3.2 2.44c.88.59 1.78 1.11 2.7 1.63l.49.28c.38.22.74.47 1.09.71l2 1.36c1 .71 2.06 1.43 3.08 2.16l1.14.8 1.66 1.2.3.22.42.31a5.12 5.12 0 0 0 .71.87 1.18 1.18 0 0 0 .79.47 1 1 0 0 0 .91-.41 11.56 11.56 0 0 0 1-1.93 12.57 12.57 0 0 0 .62-2.53 18.81 18.81 0 0 0 .16-3.43l.31.45a13.76 13.76 0 0 1 1.47 1.87 31.21 31.21 0 0 1 2.85 6.92 1 1 0 0 0 .62.58 1 1 0 0 0 .42.07.86.86 0 0 0 .47-.11 14.44 14.44 0 0 0 1.42-.91 10.75 10.75 0 0 0 1.26-1.08 15.56 15.56 0 0 0 2.3-2.86 21.38 21.38 0 0 0 2.79-6.84 32.54 32.54 0 0 0 .8-7.78 37.63 37.63 0 0 0 -.91-7.67 24.84 24.84 0 0 0 -2.39-6.44 22.68 22.68 0 0 0 -5.52-6.66 24.25 24.25 0 0 0 -7.44-4 38.24 38.24 0 0 0 -8.67-1.79h-.36-.37-.36l-.81-.11a2.7 2.7 0 0 0 -.07-1 7.53 7.53 0 0 0 -1.92-3.35l.24-.77c2.3.32 4.69.55 7.08.75 8.75.77 18 1.15 28.26 1.15 3.89 0 7.79-.06 11.68-.16 6-.15 12.15-.39 18.84-.76 5.53-.29 12.77-.7 19.83-1.31a191.81 191.81 0 0 0 33.69-5.53 108.45 108.45 0 0 0 15.6-5.33 67.35 67.35 0 0 0 7.39-3.75c1.12-.66 2.19-1.35 3.25-2.06l.91-.66a26.74 26.74 0 0 0 2.64-1.8.73.73 0 0 0 .24-.38 1.56 1.56 0 0 0 .11-.28.88.88 0 0 0 .12-.91c.23-1.63.34-3.32.41-4.78q.09-1.84.15-3.67c.06-2.17.07-4.34.05-6.51-.05-4.78-.34-9.53-.85-14.14a97.91 97.91 0 0 0 -2.65-14.34 58.81 58.81 0 0 0 -5.09-13 35.77 35.77 0 0 0 -7-9.16 28.28 28.28 0 0 0 -4.54-3.45 29 29 0 0 0 -5.55-2.6 31.6 31.6 0 0 0 -6.07-1.36 49.1 49.1 0 0 0 -6.22-.31h-1.53l-3.73.06h-1.11-1.13-2.23a59.94 59.94 0 0 1 -7.81-.41 29.42 29.42 0 0 1 -7.4-1.91 20.73 20.73 0 0 1 -4.23-2.43 23.81 23.81 0 0 1 -1.86-1.62c-.31-.3-.6-.6-.89-.92l.26.06a1.12 1.12 0 0 0 .52-.11l.27-.15a43.58 43.58 0 0 0 4.85-2.4c1.75-1 3.54-2.07 5.31-3.21 2.6-1.68 5.36-3.63 8.66-6.14 5.16-3.93 10.22-8.19 15-12.68a178.48 178.48 0 0 0 25.88-30.18 146.4 146.4 0 0 0 17.66-35.24 125.91 125.91 0 0 0 4.76-19.12 136.83 136.83 0 0 0 1.65-21 196.4 196.4 0 0 0 -5.42-46.26 215.13 215.13 0 0 0 -6.63-22.39 164.48 164.48 0 0 0 -7-16.94 83.88 83.88 0 0 0 -14.74-22 43.59 43.59 0 0 0 -9.89-7.79 33.06 33.06 0 0 0 -5.57-2.41 26.46 26.46 0 0 0 -3.46-.88 4.67 4.67 0 0 0 1.28-.94 10.28 10.28 0 0 0 1.2-1.34 7.58 7.58 0 0 0 .92-1.42 4.81 4.81 0 0 0 .4-1.18 3.71 3.71 0 0 0 0-1.38 1.16 1.16 0 0 0 -.11-.32 3.22 3.22 0 0 0 -.3-.57 2.64 2.64 0 0 0 -.93-.84 3.45 3.45 0 0 0 -1.74-.41 5.63 5.63 0 0 0 -.59 0 7.8 7.8 0 0 0 -3 1 11.23 11.23 0 0 0 -1.41.95 18.71 18.71 0 0 0 -1.72 1.51c-.33.34-.63.7-.93 1.06a27.21 27.21 0 0 0 -.07-6 12.19 12.19 0 0 0 -1.45-4.93 4.2 4.2 0 0 0 -1.47-1.47 3.16 3.16 0 0 0 -1.63-.42 4.69 4.69 0 0 0 -.65 0 3.57 3.57 0 0 0 -2.34 1.69 5 5 0 0 0 -.5.93 15.12 15.12 0 0 0 -1 5.13 44.66 44.66 0 0 0 0 5.65v.48.49a27.66 27.66 0 0 0 -4.06-5.18 43.7 43.7 0 0 0 -7.7-6.24 57.64 57.64 0 0 0 -9.17-4.85 73.72 73.72 0 0 0 -19.42-5.25 72.48 72.48 0 0 0 -9.72-.57m-8.83 137h.15a20.89 20.89 0 0 0 5.06-.73 45.64 45.64 0 0 0 5.95-2 98.69 98.69 0 0 0 12.05-5.8c3.18-1.75 6.28-3.59 9.21-5.49a95.56 95.56 0 0 0 11.07-8.56 104.83 104.83 0 0 0 15.62-17.13 76.53 76.53 0 0 0 5.61-8.84l-.55 1.31c-.83 2.76-1.49 5.18-2 7.4a43.47 43.47 0 0 0 -1.1 6.78 11.87 11.87 0 0 0 .59 5.22 5.06 5.06 0 0 0 3.21 3 3.38 3.38 0 0 0 .9.12 5.55 5.55 0 0 0 3.3-1.33 18.94 18.94 0 0 0 3.85-4.59 61.81 61.81 0 0 0 3.61-6.49l1-2.17c-.07 3-.07 6-.07 9.07v.42c0 4.54 0 9.23.3 13.84a58.39 58.39 0 0 0 2.21 13.62 29.58 29.58 0 0 0 2.68 6.24 21.9 21.9 0 0 0 1.89 2.75c.34.43.7.85 1.07 1.24l.54.55c.29.29.45.45.61.63l-.47.91-.16.32a1.26 1.26 0 0 0 .4 1.5 1.29 1.29 0 0 0 .78.24 1.13 1.13 0 0 0 1-.5 19.29 19.29 0 0 1 2.18-2.71 16.92 16.92 0 0 1 3.12-2.45 14.49 14.49 0 0 1 2.36-1 15 15 0 0 1 3.43-.52 11.57 11.57 0 0 1 2.4.29 9.52 9.52 0 0 1 1.57.64 7.7 7.7 0 0 1 1.47 1.13 8.33 8.33 0 0 1 1.25 1.63 13.42 13.42 0 0 1 1.06 2.52 19.12 19.12 0 0 1 .56 4.4l.15-.28a36.78 36.78 0 0 1 -.9 6.27 29.85 29.85 0 0 1 -2.69 6.86 24.74 24.74 0 0 1 -3.67 4.85 20.1 20.1 0 0 1 -3.3 2.61 16.6 16.6 0 0 1 -3.36 1.45 15.48 15.48 0 0 1 -3.55.56h-.33-.26a7.61 7.61 0 0 1 0-2.42c.36-2.93.61-5.47.78-7.94a.82.82 0 0 0 -.23-.59 1 1 0 0 0 -.66-.3.9.9 0 0 0 -.64.26 1 1 0 0 0 -.25.6l-.34 2.69c-.17 1.37-.34 2.74-.52 4.1a134.81 134.81 0 0 1 -3.23 16.47 97.41 97.41 0 0 1 -4.27 12.43 96.11 96.11 0 0 1 -12.1 20.8 87.54 87.54 0 0 1 -14.94 15.3 83.74 83.74 0 0 1 -7.85 5.31 74.41 74.41 0 0 1 -8.56 4.29 66.72 66.72 0 0 1 -16.41 4.53c-.7.09-1.57.19-2.43.27a.72.72 0 0 0 -.7.72.73.73 0 0 0 .66.71 74.47 74.47 0 0 0 9-1.39c2.19-.49 4.38-1.09 6.51-1.79-.11 7.43.88 13.45 3 18.37a29.37 29.37 0 0 0 5 7.94 21.28 21.28 0 0 0 3 2.72 4 4 0 0 0 -.76.7l-.2.21a53.85 53.85 0 0 1 -4.74 4.4 48.47 48.47 0 0 1 -4.58 3.28 52.91 52.91 0 0 1 -11.83 5.31 58.34 58.34 0 0 1 -14.91 2.45l.26.15a3.54 3.54 0 0 0 -1.12-.12h-.54a54.68 54.68 0 0 1 -12.33-1.39 46.71 46.71 0 0 1 -11.19-4.21 39.41 39.41 0 0 1 -7.72-5.57l-.35-.34-.35-.34a.85.85 0 0 0 -.56-.29 20.16 20.16 0 0 0 1.18-2 55.63 55.63 0 0 0 5.26-14.28 47.54 47.54 0 0 0 .68-15.46 55.54 55.54 0 0 0 13.77 2.52.72.72 0 0 0 .72-.7.73.73 0 0 0 -.72-.72c-1.38-.08-2.75-.21-4.11-.4a62.21 62.21 0 0 1 -15.69-4.43 75.27 75.27 0 0 1 -16.76-9.94 83.24 83.24 0 0 1 -7.54-6.66 81.29 81.29 0 0 1 -7-8l.06.32a80.26 80.26 0 0 1 -8.9-15.37 84.06 84.06 0 0 1 -5.65-20.61c-.33-2.42-.55-5-.66-7.52-.11-2.78 0-5.58.1-8.44a1.26 1.26 0 0 0 -.89-1.19 1.76 1.76 0 0 0 -.33 0 1.23 1.23 0 0 0 -.61.17 1.13 1.13 0 0 0 -.55.72 60.21 60.21 0 0 0 -.08 15.72 11.7 11.7 0 0 0 -1.16-.93 17 17 0 0 1 -2.94-3 23.05 23.05 0 0 1 -2.69-4.67 26.73 26.73 0 0 1 -1.06-3 1.08 1.08 0 0 0 -.17-.34 51.74 51.74 0 0 1 3.42-10 59.7 59.7 0 0 1 8.17-12.91 55.34 55.34 0 0 1 4.71-4.88 53.41 53.41 0 0 1 5.87-4.6 77.82 77.82 0 0 1 8.79-5.15c2.75-1.37 5.77-2.7 9.5-4.16 3-1.19 6.15-2.29 9.17-3.35l.54-.19 1.86-.65c2.5-.86 5.61-1.93 8.53-3.21a85.34 85.34 0 0 0 17.06-10.12c3.24-2.43 6.54-5.16 10.37-8.57a41.26 41.26 0 0 0 -2.19 3.57l-.92 1.6c-2.49 4.41-4.73 8.4-6.69 12.61a41.12 41.12 0 0 0 -2.13 5.21 14.22 14.22 0 0 0 -.47 2 4.54 4.54 0 0 0 0 1.73 5 5 0 0 0 .89 1.78 4.8 4.8 0 0 0 1.49 1.32 8.17 8.17 0 0 0 4.16 1m6.74 159.41a57.6 57.6 0 0 0 13.06-1.49 51.54 51.54 0 0 0 15.5-6.27 44.26 44.26 0 0 0 5.27-3.8c.9-.77 1.76-1.6 2.58-2.45a34.75 34.75 0 0 0 2.89-3.53 14 14 0 0 0 2.3 1.35 29.73 29.73 0 0 0 10 2.57l-.26.21a10.54 10.54 0 0 0 -.77 1.09l-.31.45-.68 1.06-.34.53c-.42.65-.73 1.11-1 1.56a38.48 38.48 0 0 1 -3.76 4.47 57.33 57.33 0 0 1 -5 4.65 61.57 61.57 0 0 1 -5.56 4 64.33 64.33 0 0 1 -14.68 6.65 69 69 0 0 1 -17.87 3l.25.15a4.48 4.48 0 0 0 -1.2-.12h-.85a67.18 67.18 0 0 1 -15.34-1.76 61.18 61.18 0 0 1 -14.7-5.6c-.9-.5-1.91-1.11-2.92-1.76a28.89 28.89 0 0 0 -.74-5.79 33.77 33.77 0 0 0 -2.56-7.1.74.74 0 0 0 -.25-.3l.48-.55.46-.66c.8-1.13 1.54-2.29 2.26-3.48a34.76 34.76 0 0 0 6.25 5.28 43.17 43.17 0 0 0 7.23 3.85 51.12 51.12 0 0 0 16.37 3.75c1.32.09 2.63.14 4 .14m.48 16a71.38 71.38 0 0 0 13.43-1.27 65.87 65.87 0 0 0 8.2-2.16 61.5 61.5 0 0 0 7.86-3.19 57 57 0 0 0 13.05-8.83 50.08 50.08 0 0 0 5.35-5.6 42.49 42.49 0 0 0 5.42-8.51c.25 7.84.47 15.82.67 23.56v1.43l.49 18.79c.2 7.59.4 15 .62 22.33.11 3.72.22 7.44.35 11.16.06 1.85.13 3.71.2 5.57v1.26l.06 1.27c0 .56 0 1.09.07 1.6-5.21.78-10.72 1.47-16.8 2.09-6.38.64-12.89 1.07-19 1.44-7.54.46-13.13.73-18.13.89-4.42.14-8.84.21-13.12.21-7.76 0-15.34-.25-22.53-.74-3.55-.24-7.24-.57-11-1a1 1 0 0 0 .18-.53 23.19 23.19 0 0 0 -.89-10.79 10.86 10.86 0 0 0 1.25-1.35 23.58 23.58 0 0 0 3-4.72 33.83 33.83 0 0 0 3.09-11 42.63 42.63 0 0 0 .27-5.65 42.14 42.14 0 0 0 -.58-5.88 30.69 30.69 0 0 0 -3.45-10 38.5 38.5 0 0 0 4.92-7.43 33.27 33.27 0 0 0 2.26-6.33 30.14 30.14 0 0 0 .82-6.24 42.57 42.57 0 0 0 5.9 3.43 58.36 58.36 0 0 0 7.82 3.1 65.41 65.41 0 0 0 16.61 3c1.18.06 2.36.09 3.55.09m74.04 53.46c-.08-6.36-.17-12.75-.26-19.14-.11-7.92-.27-14.92-.49-21.39-.55-16.38-1.58-29.83-3.25-42.38l1.25.15c.71.06 1.4.13 2.1.22a29.74 29.74 0 0 1 6.91 1.85 27.9 27.9 0 0 1 5.63 3.24 2 2 0 0 0 .29.16 35.11 35.11 0 0 1 5.2 5.36 45.57 45.57 0 0 1 5.45 9.57 78.86 78.86 0 0 1 5.05 19.67 142.84 142.84 0 0 1 1.12 14.78v6.83l-.05 1.5v1.67c0 1-.1 2-.19 3-.08.8-.17 1.61-.27 2.42l-.07.62-1.18.6-1.22.66-.47.25c-.87.47-1.73.94-2.61 1.39-2.08 1.09-4.23 2.12-6.36 3.07a115.2 115.2 0 0 1 -13.5 5c-1 .31-2 .61-3.06.89m-142.74 2.91-.41-.18-.54-.13a156.74 156.74 0 0 1 -16.88-5.09 124.38 124.38 0 0 1 -16.22-7.29c-3-1.64-5.87-3.41-8.66-5.3v-.78l-.05-.88a105.07 105.07 0 0 1 1.63-26.66 66.75 66.75 0 0 1 5.49-16.44 43.55 43.55 0 0 1 5.94-8.9 34 34 0 0 1 6.07-5.26 31.09 31.09 0 0 1 6.48-3.23 33.2 33.2 0 0 1 7.88-1.53h.31.3l.83.64.88.66.3.22.38.28 1.23.92 2.93 2.21a54.31 54.31 0 0 0 -7.06 12.72 48.37 48.37 0 0 0 -2.24 7.32 40.11 40.11 0 0 0 -.93 7.49 30.35 30.35 0 0 0 .61 7.28 25.71 25.71 0 0 0 .91 3.32 23.55 23.55 0 0 0 6 9.23c.41.38.83.75 1.25 1.1a28.55 28.55 0 0 0 -1.35 5.7 33.19 33.19 0 0 0 3 19.11 34.5 34.5 0 0 0 2 3.49m19 13.88h.11a1.35 1.35 0 0 0 1-.5 24.65 24.65 0 0 0 1.47-2.24 18.56 18.56 0 0 0 1.16-2.35.52.52 0 0 0 .13.4 5.62 5.62 0 0 1 .54 1.16 3.9 3.9 0 0 1 .15.86 4.54 4.54 0 0 1 -.07.85 5.85 5.85 0 0 1 -.39 1c-.18.27-.37.54-.59.8a7.48 7.48 0 0 1 -1.31 1.1 7.31 7.31 0 0 1 -1.7.75 6.29 6.29 0 0 1 -1.51.23 4.38 4.38 0 0 1 -1-.11 5.86 5.86 0 0 1 -.74-.26 4.4 4.4 0 0 1 -.51-.38 3.56 3.56 0 0 1 -.44-.54 5.6 5.6 0 0 1 -.31-.72 7 7 0 0 1 -.19-1.19v-.34a16.81 16.81 0 0 0 3 1.23h.45a1.15 1.15 0 0 0 .75.25"/><path d="m274.38 211.59c-.71 0-1.42 0-2.13.07-.38 0-.76.06-1.14.1a25.1 25.1 0 0 0 -10.76 3.56 19.79 19.79 0 0 0 -4.55 3.86 19.18 19.18 0 0 0 -3.26 5.37.89.89 0 0 0 0 .75 1.06 1.06 0 0 0 .64.56 1 1 0 0 0 .33.06 1.12 1.12 0 0 0 1-.73c.11-.27.22-.54.35-.8a15.15 15.15 0 0 1 1.91-3 17.47 17.47 0 0 1 3-2.74 22.07 22.07 0 0 1 4.26-2.24c.61-.22 1.22-.42 1.84-.59a27 27 0 0 0 -.33 4.49 25.73 25.73 0 0 0 .68 6 13.72 13.72 0 0 0 .92 2.56c.2.42.43.83.67 1.23a7.94 7.94 0 0 0 .75 1 6.78 6.78 0 0 0 2.19 1.66 7 7 0 0 0 2.75.63h.3a8.48 8.48 0 0 0 2.61-.43 6.47 6.47 0 0 0 2.36-1.42 6.7 6.7 0 0 0 1.57-2.25 11 11 0 0 0 .84-2.8 20.34 20.34 0 0 0 0-6.14 29.43 29.43 0 0 0 -.9-4.54 33.88 33.88 0 0 1 3.69 1.39 23.22 23.22 0 0 1 4.49 2.83 19.52 19.52 0 0 1 3.1 3.36 1.86 1.86 0 0 0 .8.52 1.82 1.82 0 0 0 .56.09 1.87 1.87 0 0 0 .87-.22 1.69 1.69 0 0 0 .45-.33 7 7 0 0 0 .78-.51 10.18 10.18 0 0 0 1.81-1.78 16.28 16.28 0 0 0 2.31-3.86.86.86 0 0 0 .09-.61.82.82 0 0 0 -.8-.61.77.77 0 0 0 -.68.39 10.1 10.1 0 0 1 -.5 1 9.3 9.3 0 0 1 -.88 1.27c-.27.31-.57.62-.88.94a15.73 15.73 0 0 1 -1.3 1.07c-.17-.28-.38-.56-.59-.84a5.31 5.31 0 0 0 .93-.93 10.21 10.21 0 0 0 1-1.52 8.75 8.75 0 0 0 .65-1.62.85.85 0 0 0 -.06-.67.93.93 0 0 0 -.57-.46h-.33a1 1 0 0 0 -.81.66c-.09.3-.2.58-.32.87a8.27 8.27 0 0 1 -.91 1.46 7.72 7.72 0 0 1 -.83.81 11.06 11.06 0 0 0 -.92-.91 6.77 6.77 0 0 0 1.18-1.3.75.75 0 0 0 .09-.62.81.81 0 0 0 -.37-.5.76.76 0 0 0 -.33-.18 1 1 0 0 0 -.7.39l-.17.22a5.16 5.16 0 0 1 -.51.57 4.5 4.5 0 0 1 -.38.34 21.74 21.74 0 0 0 -5.24-2.93 29.76 29.76 0 0 0 -10.62-2m.35 4.59c.07-.43.15-.87.24-1.3.66.06 1.35.13 2 .22a22.86 22.86 0 0 1 -.16 3.19 8.85 8.85 0 0 1 -.44 1.72 5.18 5.18 0 0 1 -.38.67 1.71 1.71 0 0 1 -.22.22h-.26a1.59 1.59 0 0 1 -.24-.23c-.1-.17-.2-.33-.28-.5a6.11 6.11 0 0 1 -.33-1.36 12.15 12.15 0 0 1 0-2.64z"/><path d="m183.56 214.1a27.69 27.69 0 0 0 -4.45.35 28.43 28.43 0 0 0 -6.17 1.64 22.13 22.13 0 0 0 -5.26 2.94l-.35-.35a6.73 6.73 0 0 1 -.46-.5l-.21-.28a.9.9 0 0 0 -.51-.38h-.15a.78.78 0 0 0 -.45.11.88.88 0 0 0 -.38.5.79.79 0 0 0 .1.63 8.89 8.89 0 0 0 1.18 1.33 10.19 10.19 0 0 0 -1 .88c-.25-.25-.53-.52-.8-.81a9.1 9.1 0 0 1 -.91-1.46c-.11-.29-.21-.57-.31-.86a1 1 0 0 0 -.8-.66h-.06a1 1 0 0 0 -.28 0 .92.92 0 0 0 -.56.46.87.87 0 0 0 -.07.68 9.6 9.6 0 0 0 .66 1.62 10.18 10.18 0 0 0 1 1.52 7 7 0 0 0 .93 1 8.86 8.86 0 0 0 -.62.81 16.05 16.05 0 0 1 -1.27-1.08c-.31-.32-.62-.64-.91-1a9.64 9.64 0 0 1 -.84-1.24 11.29 11.29 0 0 1 -.52-1 .67.67 0 0 0 -.57-.37h-.05a.83.83 0 0 0 -.48.1.82.82 0 0 0 -.37.49.91.91 0 0 0 .1.6 15.78 15.78 0 0 0 2.31 3.86 10.11 10.11 0 0 0 1.62 1.64l.21.15a7.44 7.44 0 0 0 .65.45 3.54 3.54 0 0 0 .55.4 2 2 0 0 0 .89.21 1.87 1.87 0 0 0 .55-.08 2.12 2.12 0 0 0 .8-.51 19.62 19.62 0 0 1 3.09-3.38 23.6 23.6 0 0 1 4.49-2.82 26.38 26.38 0 0 1 3.73-1.36 25.12 25.12 0 0 0 -.93 4.51 20.41 20.41 0 0 0 .05 6.14 11 11 0 0 0 .84 2.8 6.61 6.61 0 0 0 1.57 2.25 6.39 6.39 0 0 0 2.36 1.42 8.4 8.4 0 0 0 2.61.43h.3a7 7 0 0 0 2.74-.63 6.59 6.59 0 0 0 2.12-1.56 8.52 8.52 0 0 0 .83-1.06c.24-.4.46-.8.67-1.23a14.26 14.26 0 0 0 .92-2.56 25.56 25.56 0 0 0 .68-6 32.89 32.89 0 0 0 -.31-4.53c.59.2 1.21.4 1.82.62a21.73 21.73 0 0 1 4.26 2.23 18.52 18.52 0 0 1 3 2.65 16.37 16.37 0 0 1 2 3.07c.12.27.24.54.35.81a1.12 1.12 0 0 0 1 .72 1 1 0 0 0 .32-.05 1.08 1.08 0 0 0 .64-.57.92.92 0 0 0 0-.76 19.34 19.34 0 0 0 -3.26-5.37 20.14 20.14 0 0 0 -4.55-3.86 25.16 25.16 0 0 0 -10.76-3.56l-1.14-.1c-.72-.05-1.43-.07-2.14-.07m2.13 7.24a7.11 7.11 0 0 1 0-1.64 12.2 12.2 0 0 1 .64-2.34l.72.06c.54.05 1 .11 1.5.18a9.59 9.59 0 0 1 0 2.05 9.84 9.84 0 0 1 -.49 1.93 5.11 5.11 0 0 1 -.49.83c-.12.12-.21.23-.33.33l-.26.14-.34.07-.32-.11a2.32 2.32 0 0 1 -.21-.23 2.88 2.88 0 0 1 -.26-.46 4.86 4.86 0 0 1 -.2-.83z"/><path d="m224.11 213.34a96.17 96.17 0 0 1 -.85 15.14v-.21a130.43 130.43 0 0 1 -3.6 16.9c-.38 1.39-.79 2.77-1.19 4.15-.31 1-.58 2.07-.8 3.14a17.22 17.22 0 0 0 -.37 5 8.61 8.61 0 0 0 1.14 3.66 7.16 7.16 0 0 0 2.86 2.59 12.59 12.59 0 0 0 4.54 1.17 27.22 27.22 0 0 0 6.23-.23 1.23 1.23 0 0 0 .79-.33 1.12 1.12 0 0 0 -.79-1.91 33.58 33.58 0 0 1 -6.31 0 12.88 12.88 0 0 1 -2.78-.68 8.59 8.59 0 0 1 -1.4-.8 6.71 6.71 0 0 1 -.74-.74 6.43 6.43 0 0 1 -.63-1 8.72 8.72 0 0 1 -.49-1.86 17.39 17.39 0 0 1 .09-3.69 32.58 32.58 0 0 1 .66-3.32c.42-1.66.86-3.33 1.25-5 .84-3.5 1.55-7 2.17-10.58s1-6.9 1.33-10.38a108.66 108.66 0 0 0 .37-11 .77.77 0 0 0 -1.53 0m-4.23 40v.08s0 0 0-.08m1.87 7.64.14.11zm1.18.68h.13zm.15.06.16.07z"/><path d="m268.77 187.29a28.91 28.91 0 0 0 -10.39 3.28 1.15 1.15 0 0 0 -.58.62 1.07 1.07 0 0 0 0 .83 1.11 1.11 0 0 0 1.45.55c1.17-.46 2.35-.87 3.56-1.23l-.16.05a48.06 48.06 0 0 1 5.4-1.24 44.94 44.94 0 0 1 5.72-.57 49 49 0 0 1 11.83 1.13 43.91 43.91 0 0 1 10.3 3.76 38.93 38.93 0 0 1 3.36 2 .76.76 0 0 0 1-.18.75.75 0 0 0 -.18-1 46.89 46.89 0 0 0 -9.22-4.91 48.29 48.29 0 0 0 -10.86-2.94 41.83 41.83 0 0 0 -11.26-.15m-6.25 4.13h.16z"/><path d="m197.06 193.35a55.6 55.6 0 0 0 -9.42 1.44 59.35 59.35 0 0 0 -17.14 7.07.9.9 0 0 0 .85 1.59 62.52 62.52 0 0 1 8.61-4.09l-.25.09a69 69 0 0 1 7.56-2.32 60.54 60.54 0 0 1 8-1.35c1.73-.18 3.48-.29 5.23-.34a44.84 44.84 0 0 1 5.66.22 1 1 0 0 0 1.06-1 1.06 1.06 0 0 0 -1-1.06 60.58 60.58 0 0 0 -6.34-.35q-1.42 0-2.83.08"/><path d="m252.86 274a.92.92 0 0 0 -.92.68 1 1 0 0 0 0 .45c-.65.57-1.33 1.17-2.06 1.74a33.31 33.31 0 0 1 -3.05 2c-.86.51-1.75 1-2.64 1.37l-.37-.47-.32-.38-1.11-1.28a13 13 0 0 0 -2.21-1.93 8.8 8.8 0 0 0 -1.88-1 4.5 4.5 0 0 0 -1.56-.34h-.63a2.55 2.55 0 0 0 -.47.09 4.67 4.67 0 0 0 -1.41.53 12.73 12.73 0 0 0 -1.37.81c-.45.28-.9.55-1.36.79a7.91 7.91 0 0 1 -1.45.54c-.33.07-.56.1-.8.13a4.24 4.24 0 0 1 -.5 0h-.42l-.38-.06a2.72 2.72 0 0 1 -.36-.1 6.36 6.36 0 0 1 -.79-.43c-.33-.23-.65-.48-1-.73l-.27-.21a10.67 10.67 0 0 0 -1.26-.84 4.56 4.56 0 0 0 -1.5-.47 3.25 3.25 0 0 0 -.54 0 4.87 4.87 0 0 0 -1.42.2 3.46 3.46 0 0 0 -.75.3 9 9 0 0 0 -.88.5 12.84 12.84 0 0 0 -1.79 1.54c-.49.48-.95 1-1.41 1.48a24.44 24.44 0 0 1 -1.77 1.83 30 30 0 0 1 -5-1.61.72.72 0 0 0 -.14-.87.83.83 0 0 0 -.6-.23.76.76 0 0 0 -.58.23 5 5 0 0 0 -.56.65 5.81 5.81 0 0 0 -.53.83.86.86 0 0 0 .26 1.15.78.78 0 0 0 .4.11.86.86 0 0 0 .7-.39l.16-.28c1.83.68 3.77 1.37 5.74 2a10.94 10.94 0 0 0 .42 2.2 12.09 12.09 0 0 0 4.25 6.18 15.93 15.93 0 0 0 9.75 3.09 18.76 18.76 0 0 0 5.31-.77 17 17 0 0 0 4.84-2.24 16.45 16.45 0 0 0 1.94-1.56 15.62 15.62 0 0 0 1.8-2.07 13.66 13.66 0 0 0 2.2-5.07.84.84 0 0 0 -.06-.52 24.05 24.05 0 0 0 3.92-2 30.71 30.71 0 0 0 4.61-3.61l.43.17a3.37 3.37 0 0 1 .57.34c.34.26.52.38.8.38a.92.92 0 0 0 .65-.28.93.93 0 0 0 .28-.7.83.83 0 0 0 -.28-.6c-.15-.14-.31-.27-.47-.39a3.55 3.55 0 0 0 -.65-.39 5.11 5.11 0 0 0 -1.31-.43h-.22"/><path d="m198.32 249a.64.64 0 1 0 .64-.64.64.64 0 0 0 -.64.64"/><path d="m204.12 243.93a.64.64 0 1 0 .64-.64.64.64 0 0 0 -.64.64"/><path d="m211.77 238.95a.64.64 0 1 0 .64-.64.64.64 0 0 0 -.64.64"/><path d="m213.19 244.06a.64.64 0 1 0 .64-.64.64.64 0 0 0 -.64.64"/><path d="m207.95 250.16a.64.64 0 1 0 .64-.64.64.64 0 0 0 -.64.64"/><path d="m188.7 251.16a.64.64 0 1 0 .64-.64.64.64 0 0 0 -.64.64"/><path d="m226.77 238.21a.64.64 0 1 0 .64-.64.64.64 0 0 0 -.64.64"/><path d="m235.24 235.48a.64.64 0 1 0 .64-.64.64.64 0 0 0 -.64.64"/><path d="m233 241.94a.64.64 0 1 0 .64-.64.64.64 0 0 0 -.64.64"/><path d="m238.1 247.47a.64.64 0 1 0 .64-.64.64.64 0 0 0 -.64.64"/><path d="m245.37 243.75a.64.64 0 1 0 .63-.64.64.64 0 0 0 -.63.64"/><path d="m250 249a.64.64 0 1 0 .64-.64.64.64 0 0 0 -.64.64"/><path d="m257.79 247.53a.64.64 0 1 0 .64-.64.64.64 0 0 0 -.64.64"/><path d="m260.64 251.72a.64.64 0 1 0 .64-.64.64.64 0 0 0 -.64.64"/><path d="m263.26 244.76a.64.64 0 1 0 .64-.64.64.64 0 0 0 -.64.64"/><path d="m269.48 250a.64.64 0 1 0 .64-.64.64.64 0 0 0 -.64.64"/><path d="m194.78 256.29a.64.64 0 1 0 .64-.64.64.64 0 0 0 -.64.64"/><path d="m265.83 256.46a.64.64 0 1 0 .64-.64.64.64 0 0 0 -.64.64"/></g></svg>